<?xml version="1.0" encoding="UTF-8" standalone="no"?>
<!-- Created with Inkscape (http://www.inkscape.org/) -->

<svg
   width="58.958836mm"
   height="61.232101mm"
   viewBox="0 0 58.958836 61.232101"
   version="1.1"
   id="svg1"
   xmlns:xlink="http://www.w3.org/1999/xlink"
   xmlns="http://www.w3.org/2000/svg"
   xmlns:svg="http://www.w3.org/2000/svg">
  <defs
     id="defs1">
    <linearGradient
       id="linearGradient66">
      <stop
         style="stop-color:#fcfc0a;stop-opacity:1;"
         offset="0"
         id="stop65" />
      <stop
         style="stop-color:#dcdc31;stop-opacity:1;"
         offset="1"
         id="stop66" />
    </linearGradient>
    <linearGradient
       id="linearGradient28">
      <stop
         style="stop-color:#0a0595;stop-opacity:0.57021278;"
         offset="0"
         id="stop27" />
      <stop
         style="stop-color:#4f53bf;stop-opacity:0.24528302;"
         offset="1"
         id="stop28" />
    </linearGradient>
    <linearGradient
       id="linearGradient26">
      <stop
         style="stop-color:#0d9f06;stop-opacity:0.57021278;"
         offset="0"
         id="stop25" />
      <stop
         style="stop-color:#084505;stop-opacity:0.27672955;"
         offset="1"
         id="stop26" />
    </linearGradient>
    <linearGradient
       xlink:href="#linearGradient66"
       id="linearGradient117"
       gradientUnits="userSpaceOnUse"
       gradientTransform="matrix(0.19852942,0,0,0.19852942,188.88265,144.68729)"
       x1="-136.28989"
       y1="-94.14003"
       x2="-118.29822"
       y2="-94.14003" />
    <linearGradient
       xlink:href="#linearGradient66"
       id="linearGradient118"
       gradientUnits="userSpaceOnUse"
       gradientTransform="matrix(0.19852942,0,0,0.19852942,173.66334,119.15949)"
       x1="-136.28989"
       y1="-94.14003"
       x2="-118.29822"
       y2="-94.14003" />
    <linearGradient
       xlink:href="#linearGradient66"
       id="linearGradient119"
       gradientUnits="userSpaceOnUse"
       gradientTransform="matrix(0.19852942,0,0,0.19852942,136.79741,141.23552)"
       x1="-136.28989"
       y1="-94.14003"
       x2="-118.29822"
       y2="-94.14003" />
    <linearGradient
       xlink:href="#linearGradient26"
       id="linearGradient120"
       gradientUnits="userSpaceOnUse"
       gradientTransform="matrix(0.13743732,0,0,0.13743738,-52.988843,-204.16538)"
       x1="84.137497"
       y1="132.82083"
       x2="97.102081"
       y2="148.16667" />
    <linearGradient
       xlink:href="#linearGradient26"
       id="linearGradient121"
       gradientUnits="userSpaceOnUse"
       gradientTransform="matrix(0.13743732,0,0,0.13743738,-49.546933,-188.98873)"
       x1="84.137497"
       y1="132.82083"
       x2="97.102081"
       y2="148.16667" />
    <linearGradient
       xlink:href="#linearGradient28"
       id="linearGradient122"
       gradientUnits="userSpaceOnUse"
       gradientTransform="matrix(0.13361965,0,0,0.13361966,-45.981643,-201.61018)"
       x1="84.137497"
       y1="132.82083"
       x2="97.102081"
       y2="148.16667" />
    <linearGradient
       xlink:href="#linearGradient26"
       id="linearGradient123"
       gradientUnits="userSpaceOnUse"
       gradientTransform="matrix(0.13743732,0,0,0.13743738,-43.653383,-196.99624)"
       x1="84.137497"
       y1="132.82083"
       x2="97.102081"
       y2="148.16667" />
    <linearGradient
       xlink:href="#linearGradient26"
       id="linearGradient124"
       gradientUnits="userSpaceOnUse"
       gradientTransform="matrix(0.13743732,0,0,0.13743738,-50.337562,-195.35291)"
       x1="84.137497"
       y1="132.82083"
       x2="97.102081"
       y2="148.16667" />
    <linearGradient
       xlink:href="#linearGradient28"
       id="linearGradient125"
       gradientUnits="userSpaceOnUse"
       gradientTransform="matrix(0.13361965,0,0,0.13361966,-60.470453,-187.67912)"
       x1="84.137497"
       y1="132.82083"
       x2="97.102081"
       y2="148.16667" />
    <linearGradient
       xlink:href="#linearGradient66"
       id="linearGradient126"
       gradientUnits="userSpaceOnUse"
       gradientTransform="matrix(0.19852942,0,0,0.19852942,151.95606,167.70982)"
       x1="-136.28989"
       y1="-94.14003"
       x2="-118.29822"
       y2="-94.14003" />
    <linearGradient
       xlink:href="#linearGradient28"
       id="linearGradient127"
       gradientUnits="userSpaceOnUse"
       gradientTransform="matrix(0.13361965,0,0,0.13361966,-56.886513,-201.41089)"
       x1="84.137497"
       y1="132.82083"
       x2="97.102081"
       y2="148.16667" />
    <linearGradient
       xlink:href="#linearGradient26"
       id="linearGradient128"
       gradientUnits="userSpaceOnUse"
       gradientTransform="matrix(0.13743732,0,0,0.13743738,-65.872683,-195.12248)"
       x1="84.137497"
       y1="132.82083"
       x2="97.102081"
       y2="148.16667" />
    <linearGradient
       xlink:href="#linearGradient28"
       id="linearGradient129"
       gradientUnits="userSpaceOnUse"
       gradientTransform="matrix(0.13361965,0,0,0.13361966,-44.947553,-192.76542)"
       x1="84.137497"
       y1="132.82083"
       x2="97.102081"
       y2="148.16667" />
    <linearGradient
       xlink:href="#linearGradient66"
       id="linearGradient130"
       gradientUnits="userSpaceOnUse"
       gradientTransform="matrix(0.19852942,0,0,0.19852942,144.70758,113.82506)"
       x1="-136.28989"
       y1="-94.14003"
       x2="-118.29822"
       y2="-94.14003" />
    <linearGradient
       xlink:href="#linearGradient28"
       id="linearGradient131"
       gradientUnits="userSpaceOnUse"
       gradientTransform="matrix(0.13361965,0,0,0.13361966,-118.47098,131.74973)"
       x1="84.137497"
       y1="132.82083"
       x2="97.102081"
       y2="148.16667" />
    <linearGradient
       xlink:href="#linearGradient26"
       id="linearGradient132"
       gradientUnits="userSpaceOnUse"
       gradientTransform="matrix(0.13743732,0,0,0.13743738,-54.523053,-193.2294)"
       x1="84.137497"
       y1="132.82083"
       x2="97.102081"
       y2="148.16667" />
  </defs>
  <g
     id="layer1"
     transform="translate(-20.916527,-142.08352)">
    <g
       id="g133">
      <path
         style="fill:#fff6d5;fill-rule:evenodd;stroke:#ffe680;stroke-width:0.528412;stroke-opacity:0.449153"
         id="path84"
         d="m 79.611158,173.66074 a 29.215208,29.39068 0 0 1 -29.132215,29.39056 29.215208,29.39068 0 0 1 -29.297729,-29.22358 29.215208,29.39068 0 0 1 28.96576,-29.5566 29.215208,29.39068 0 0 1 29.462298,29.05566" />
      <path
         style="fill:url(#linearGradient117);fill-opacity:1;fill-rule:evenodd;stroke:#c8c800;stroke-width:0.1;stroke-dasharray:none;stroke-opacity:1"
         id="path85"
         d="m 165.39695,125.99773 a 1.7859375,1.7859375 0 0 1 -1.78087,1.78593 1.7859375,1.7859375 0 0 1 -1.79098,-1.77579 1.7859375,1.7859375 0 0 1 1.77069,-1.79602 1.7859375,1.7859375 0 0 1 1.80104,1.76558"
         transform="rotate(31.942204)" />
      <path
         style="fill:#fff6d5;fill-rule:evenodd;stroke:#ffe680;stroke-width:0.436319;stroke-opacity:0.449153"
         id="path86"
         d="m 75.054268,173.91284 a 24.123505,24.268394 0 0 1 -24.054976,24.2683 24.123505,24.268394 0 0 1 -24.191644,-24.13042 24.123505,24.268394 0 0 1 23.917531,-24.40539 24.123505,24.268394 0 0 1 24.327532,23.99176" />
      <path
         style="fill:url(#linearGradient118);fill-opacity:1;fill-rule:evenodd;stroke:#c8c800;stroke-width:0.1;stroke-dasharray:none;stroke-opacity:1"
         id="path94"
         d="m 150.17765,100.46991 a 1.7859375,1.7859375 0 0 1 -1.78087,1.78593 1.7859375,1.7859375 0 0 1 -1.79098,-1.77578 1.7859375,1.7859375 0 0 1 1.77069,-1.796023 1.7859375,1.7859375 0 0 1 1.80104,1.765583"
         transform="rotate(31.942204)" />
      <path
         style="fill:url(#linearGradient119);fill-opacity:1;fill-rule:evenodd;stroke:#c8c800;stroke-width:0.1;stroke-dasharray:none;stroke-opacity:1"
         id="path95"
         d="m 113.31169,122.54595 a 1.7859375,1.7859375 0 0 1 -1.78087,1.78593 1.7859375,1.7859375 0 0 1 -1.79098,-1.77578 1.7859375,1.7859375 0 0 1 1.77069,-1.79602 1.7859375,1.7859375 0 0 1 1.80104,1.76558"
         transform="rotate(31.942204)" />
      <path
         style="fill:url(#linearGradient120);fill-opacity:1;fill-rule:evenodd;stroke-width:0.0363636"
         id="path96"
         d="m -37.097876,-185.03816 a 3.6000001,3.5999999 0 0 1 -3.589773,3.59998 3.6000001,3.5999999 0 0 1 -3.610169,-3.57953 3.6000001,3.5999999 0 0 1 3.569262,-3.62032 3.6000001,3.5999999 0 0 1 3.630448,3.55896"
         transform="rotate(176.52951)" />
      <path
         style="fill:url(#linearGradient121);fill-opacity:1;fill-rule:evenodd;stroke-width:0.0363636"
         id="path97"
         d="m -33.655974,-169.86148 a 3.6000001,3.5999999 0 0 1 -3.589773,3.59998 3.6000001,3.5999999 0 0 1 -3.610169,-3.57953 3.6000001,3.5999999 0 0 1 3.569262,-3.62032 3.6000001,3.5999999 0 0 1 3.630448,3.55896"
         transform="rotate(176.52951)" />
      <path
         style="fill:url(#linearGradient122);fill-opacity:1;fill-rule:evenodd;stroke-width:0.0353535"
         id="path98"
         d="m -30.532127,-183.01425 a 3.5,3.5 0 0 1 -3.490058,3.49998 3.5,3.5 0 0 1 -3.509886,-3.4801 3.5,3.5 0 0 1 3.470116,-3.51975 3.5,3.5 0 0 1 3.529602,3.4601"
         transform="rotate(176.52951)" />
      <path
         style="fill:url(#linearGradient123);fill-opacity:1;fill-rule:evenodd;stroke-width:0.0363636"
         id="path99"
         d="m -27.76245,-177.86899 a 3.6000001,3.5999999 0 0 1 -3.589773,3.59999 3.6000001,3.5999999 0 0 1 -3.610169,-3.57953 3.6000001,3.5999999 0 0 1 3.569263,-3.62033 3.6000001,3.5999999 0 0 1 3.630447,3.55897"
         transform="rotate(176.52951)" />
      <path
         style="fill:url(#linearGradient131);fill-opacity:1;fill-rule:evenodd;stroke-width:0.0353535"
         id="path130"
         d="m -103.02148,150.34564 a 3.5,3.5 0 0 1 -3.49005,3.49999 3.5,3.5 0 0 1 -3.50989,-3.4801 3.5,3.5 0 0 1 3.47012,-3.51976 3.5,3.5 0 0 1 3.5296,3.4601"
         transform="rotate(-51.441365)" />
      <path
         style="fill:url(#linearGradient124);fill-opacity:1;fill-rule:evenodd;stroke-width:0.0363636"
         id="path100"
         d="m -34.446631,-176.22568 a 3.6000001,3.5999999 0 0 1 -3.589773,3.59999 3.6000001,3.5999999 0 0 1 -3.610169,-3.57953 3.6000001,3.5999999 0 0 1 3.569262,-3.62033 3.6000001,3.5999999 0 0 1 3.630448,3.55897"
         transform="rotate(176.52951)" />
      <path
         style="fill:url(#linearGradient125);fill-opacity:1;fill-rule:evenodd;stroke-width:0.0353535"
         id="path101"
         d="m -45.020947,-169.08318 a 3.5,3.5 0 0 1 -3.490057,3.49999 3.5,3.5 0 0 1 -3.509886,-3.4801 3.5,3.5 0 0 1 3.470116,-3.51976 3.5,3.5 0 0 1 3.529602,3.4601"
         transform="rotate(178.17322)" />
      <path
         style="fill:url(#linearGradient126);fill-opacity:1;fill-rule:evenodd;stroke:#c8c800;stroke-width:0.1;stroke-dasharray:none;stroke-opacity:1"
         id="path111"
         d="m 128.47037,149.02026 a 1.7859375,1.7859375 0 0 1 -1.78086,1.78593 1.7859375,1.7859375 0 0 1 -1.79099,-1.77578 1.7859375,1.7859375 0 0 1 1.77069,-1.79602 1.7859375,1.7859375 0 0 1 1.80105,1.76558"
         transform="rotate(31.942204)" />
      <path
         style="fill:url(#linearGradient127);fill-opacity:1;fill-rule:evenodd;stroke-width:0.0353535"
         id="path112"
         d="m -41.437004,-182.81499 a 3.5,3.5 0 0 1 -3.490057,3.49999 3.5,3.5 0 0 1 -3.509887,-3.4801 3.5,3.5 0 0 1 3.470116,-3.51976 3.5,3.5 0 0 1 3.529602,3.4601"
         transform="rotate(176.52951)" />
      <path
         style="fill:url(#linearGradient128);fill-opacity:1;fill-rule:evenodd;stroke-width:0.0363636"
         id="path113"
         d="m -49.981714,-175.99521 a 3.6000001,3.5999999 0 0 1 -3.589774,3.59999 3.6000001,3.5999999 0 0 1 -3.610169,-3.57954 3.6000001,3.5999999 0 0 1 3.569263,-3.62032 3.6000001,3.5999999 0 0 1 3.630447,3.55897"
         transform="rotate(178.17322)" />
      <path
         style="fill:url(#linearGradient129);fill-opacity:1;fill-rule:evenodd;stroke-width:0.0353535"
         id="path114"
         d="m -29.498039,-174.16951 a 3.5,3.5 0 0 1 -3.490058,3.49999 3.5,3.5 0 0 1 -3.509886,-3.4801 3.5,3.5 0 0 1 3.470116,-3.51976 3.5,3.5 0 0 1 3.529602,3.4601"
         transform="rotate(176.52951)" />
      <path
         style="fill:url(#linearGradient130);fill-opacity:1;fill-rule:evenodd;stroke:#c8c800;stroke-width:0.1;stroke-dasharray:none;stroke-opacity:1"
         id="path129"
         d="m 121.22186,95.13549 a 1.7859375,1.7859375 0 0 1 -1.78087,1.785931 1.7859375,1.7859375 0 0 1 -1.79098,-1.775784 1.7859375,1.7859375 0 0 1 1.77069,-1.796019 1.7859375,1.7859375 0 0 1 1.80104,1.765579"
         transform="rotate(31.942204)" />
      <path
         style="fill:url(#linearGradient132);fill-opacity:1;fill-rule:evenodd;stroke-width:0.0363636"
         id="path131"
         d="m -38.632101,-174.10216 a 3.6000001,3.5999999 0 0 1 -3.589774,3.59999 3.6000001,3.5999999 0 0 1 -3.610168,-3.57953 3.6000001,3.5999999 0 0 1 3.569262,-3.62033 3.6000001,3.5999999 0 0 1 3.630447,3.55897"
         transform="rotate(176.52951)" />
    </g>
  </g>
</svg>
