<?xml version="1.0" encoding="UTF-8" standalone="no"?>
<!-- Created with Inkscape (http://www.inkscape.org/) -->

<svg
   width="58.958828mm"
   height="59.309788mm"
   viewBox="0 0 58.958828 59.309788"
   version="1.1"
   id="svg1"
   xmlns:xlink="http://www.w3.org/1999/xlink"
   xmlns="http://www.w3.org/2000/svg"
   xmlns:svg="http://www.w3.org/2000/svg">
  <defs
     id="defs1">
    <linearGradient
       id="linearGradient66">
      <stop
         style="stop-color:#fcfc0a;stop-opacity:1;"
         offset="0"
         id="stop65" />
      <stop
         style="stop-color:#dcdc31;stop-opacity:1;"
         offset="1"
         id="stop66" />
    </linearGradient>
    <linearGradient
       id="linearGradient28">
      <stop
         style="stop-color:#0a0595;stop-opacity:0.57021278;"
         offset="0"
         id="stop27" />
      <stop
         style="stop-color:#4f53bf;stop-opacity:0.24528302;"
         offset="1"
         id="stop28" />
    </linearGradient>
    <linearGradient
       id="linearGradient26">
      <stop
         style="stop-color:#0d9f06;stop-opacity:0.57021278;"
         offset="0"
         id="stop25" />
      <stop
         style="stop-color:#084505;stop-opacity:0.27672955;"
         offset="1"
         id="stop26" />
    </linearGradient>
    <linearGradient
       xlink:href="#linearGradient66"
       id="linearGradient154"
       gradientUnits="userSpaceOnUse"
       gradientTransform="matrix(0.19852942,0,0,0.19852942,244.21357,117.85823)"
       x1="-136.28989"
       y1="-94.14003"
       x2="-118.29822"
       y2="-94.14003" />
    <linearGradient
       xlink:href="#linearGradient66"
       id="linearGradient155"
       gradientUnits="userSpaceOnUse"
       gradientTransform="matrix(0.19852942,0,0,0.19852942,228.58227,131.7675)"
       x1="-136.28989"
       y1="-94.14003"
       x2="-118.29822"
       y2="-94.14003" />
    <linearGradient
       xlink:href="#linearGradient66"
       id="linearGradient156"
       gradientUnits="userSpaceOnUse"
       gradientTransform="matrix(0.19852942,0,0,0.19852942,202.99174,90.721913)"
       x1="-136.28989"
       y1="-94.14003"
       x2="-118.29822"
       y2="-94.14003" />
    <linearGradient
       xlink:href="#linearGradient26"
       id="linearGradient157"
       gradientUnits="userSpaceOnUse"
       gradientTransform="matrix(0.13743732,0,0,0.13743738,-114.74615,-213.62586)"
       x1="84.137497"
       y1="132.82083"
       x2="97.102081"
       y2="148.16667" />
    <linearGradient
       xlink:href="#linearGradient26"
       id="linearGradient158"
       gradientUnits="userSpaceOnUse"
       gradientTransform="matrix(0.13743732,0,0,0.13743738,-111.30424,-198.44921)"
       x1="84.137497"
       y1="132.82083"
       x2="97.102081"
       y2="148.16667" />
    <linearGradient
       xlink:href="#linearGradient28"
       id="linearGradient159"
       gradientUnits="userSpaceOnUse"
       gradientTransform="matrix(0.13361965,0,0,0.13361966,-107.73895,-211.07066)"
       x1="84.137497"
       y1="132.82083"
       x2="97.102081"
       y2="148.16667" />
    <linearGradient
       xlink:href="#linearGradient26"
       id="linearGradient160"
       gradientUnits="userSpaceOnUse"
       gradientTransform="matrix(0.13743732,0,0,0.13743738,-105.41069,-206.45672)"
       x1="84.137497"
       y1="132.82083"
       x2="97.102081"
       y2="148.16667" />
    <linearGradient
       xlink:href="#linearGradient28"
       id="linearGradient161"
       gradientUnits="userSpaceOnUse"
       gradientTransform="matrix(0.13361965,0,0,0.13361966,-84.151237,183.95721)"
       x1="84.137497"
       y1="132.82083"
       x2="97.102081"
       y2="148.16667" />
    <linearGradient
       xlink:href="#linearGradient26"
       id="linearGradient162"
       gradientUnits="userSpaceOnUse"
       gradientTransform="matrix(0.13743732,0,0,0.13743738,-112.09487,-204.81339)"
       x1="84.137497"
       y1="132.82083"
       x2="97.102081"
       y2="148.16667" />
    <linearGradient
       xlink:href="#linearGradient28"
       id="linearGradient163"
       gradientUnits="userSpaceOnUse"
       gradientTransform="matrix(0.13361965,0,0,0.13361966,-125.11153,-195.70062)"
       x1="84.137497"
       y1="132.82083"
       x2="97.102081"
       y2="148.16667" />
    <linearGradient
       xlink:href="#linearGradient66"
       id="linearGradient164"
       gradientUnits="userSpaceOnUse"
       gradientTransform="matrix(0.19852942,0,0,0.19852942,208.7526,139.86196)"
       x1="-136.28989"
       y1="-94.14003"
       x2="-118.29822"
       y2="-94.14003" />
    <linearGradient
       xlink:href="#linearGradient28"
       id="linearGradient165"
       gradientUnits="userSpaceOnUse"
       gradientTransform="matrix(0.13361965,0,0,0.13361966,-118.64382,-210.87137)"
       x1="84.137497"
       y1="132.82083"
       x2="97.102081"
       y2="148.16667" />
    <linearGradient
       xlink:href="#linearGradient26"
       id="linearGradient166"
       gradientUnits="userSpaceOnUse"
       gradientTransform="matrix(0.13743732,0,0,0.13743738,-127.87595,-202.80761)"
       x1="84.137497"
       y1="132.82083"
       x2="97.102081"
       y2="148.16667" />
    <linearGradient
       xlink:href="#linearGradient28"
       id="linearGradient167"
       gradientUnits="userSpaceOnUse"
       gradientTransform="matrix(0.13361965,0,0,0.13361966,-106.70486,-202.2259)"
       x1="84.137497"
       y1="132.82083"
       x2="97.102081"
       y2="148.16667" />
    <linearGradient
       xlink:href="#linearGradient66"
       id="linearGradient168"
       gradientUnits="userSpaceOnUse"
       gradientTransform="matrix(0.19852942,0,0,0.19852942,222.18072,82.74975)"
       x1="-136.28989"
       y1="-94.14003"
       x2="-118.29822"
       y2="-94.14003" />
    <linearGradient
       xlink:href="#linearGradient26"
       id="linearGradient169"
       gradientUnits="userSpaceOnUse"
       gradientTransform="matrix(0.13743732,0,0,0.13743738,-116.28036,-202.68988)"
       x1="84.137497"
       y1="132.82083"
       x2="97.102081"
       y2="148.16667" />
    <linearGradient
       xlink:href="#linearGradient66"
       id="linearGradient170"
       gradientUnits="userSpaceOnUse"
       gradientTransform="matrix(0.19852942,0,0,0.19852942,187.02235,104.67114)"
       x1="-136.28989"
       y1="-94.14003"
       x2="-118.29822"
       y2="-94.14003" />
    <linearGradient
       xlink:href="#linearGradient28"
       id="linearGradient171"
       gradientUnits="userSpaceOnUse"
       gradientTransform="matrix(0.13361965,0,0,0.13361966,-118.73554,-197.89357)"
       x1="84.137497"
       y1="132.82083"
       x2="97.102081"
       y2="148.16667" />
  </defs>
  <g
     id="layer1"
     transform="translate(-83.133272,-149.71052)">
    <g
       id="g171">
      <path
         style="fill:#fff6d5;fill-rule:evenodd;stroke:#ffe680;stroke-width:0.528412;stroke-opacity:0.449153"
         id="path133"
         d="m 141.8279,179.36542 a 29.215208,29.39068 0 0 1 -29.13221,29.39056 29.215208,29.39068 0 0 1 -29.297733,-29.22358 29.215208,29.39068 0 0 1 28.965763,-29.5566 29.215208,29.39068 0 0 1 29.4623,29.05566" />
      <path
         style="fill:url(#linearGradient154);fill-opacity:1;fill-rule:evenodd;stroke:#c8c800;stroke-width:0.1;stroke-dasharray:none;stroke-opacity:1"
         id="path134"
         d="m 220.72786,99.168671 a 1.7859375,1.7859375 0 0 1 -1.78086,1.785929 1.7859375,1.7859375 0 0 1 -1.79098,-1.775783 1.7859375,1.7859375 0 0 1 1.77069,-1.796019 1.7859375,1.7859375 0 0 1 1.80104,1.765579"
         transform="rotate(31.942204)" />
      <path
         style="fill:#fff6d5;fill-rule:evenodd;stroke:#ffe680;stroke-width:0.436319;stroke-opacity:0.449153"
         id="path135"
         d="m 137.27101,179.61752 a 24.123505,24.268394 0 0 1 -24.05497,24.2683 24.123505,24.268394 0 0 1 -24.191649,-24.13042 24.123505,24.268394 0 0 1 23.917529,-24.40539 24.123505,24.268394 0 0 1 24.32753,23.99176" />
      <path
         style="fill:url(#linearGradient155);fill-opacity:1;fill-rule:evenodd;stroke:#c8c800;stroke-width:0.1;stroke-dasharray:none;stroke-opacity:1"
         id="path136"
         d="m 205.09659,113.07792 a 1.7859375,1.7859375 0 0 1 -1.78086,1.78593 1.7859375,1.7859375 0 0 1 -1.79099,-1.77578 1.7859375,1.7859375 0 0 1 1.77069,-1.79602 1.7859375,1.7859375 0 0 1 1.80105,1.76558"
         transform="rotate(31.942204)" />
      <path
         style="fill:url(#linearGradient156);fill-opacity:1;fill-rule:evenodd;stroke:#c8c800;stroke-width:0.1;stroke-dasharray:none;stroke-opacity:1"
         id="path137"
         d="m 179.506,72.032333 a 1.7859375,1.7859375 0 0 1 -1.78086,1.785931 1.7859375,1.7859375 0 0 1 -1.79099,-1.775784 1.7859375,1.7859375 0 0 1 1.77069,-1.796019 1.7859375,1.7859375 0 0 1 1.80104,1.765579"
         transform="rotate(31.942204)" />
      <path
         style="fill:url(#linearGradient157);fill-opacity:1;fill-rule:evenodd;stroke-width:0.0363636"
         id="path139"
         d="m -98.855177,-194.49864 a 3.6000001,3.5999999 0 0 1 -3.589773,3.59998 3.6000001,3.5999999 0 0 1 -3.61017,-3.57953 3.6000001,3.5999999 0 0 1 3.56926,-3.62032 3.6000001,3.5999999 0 0 1 3.63045,3.55896"
         transform="rotate(176.52951)" />
      <path
         style="fill:url(#linearGradient158);fill-opacity:1;fill-rule:evenodd;stroke-width:0.0363636"
         id="path141"
         d="m -95.413283,-179.32196 a 3.6000001,3.5999999 0 0 1 -3.589773,3.59998 3.6000001,3.5999999 0 0 1 -3.610164,-3.57953 3.6000001,3.5999999 0 0 1 3.569257,-3.62032 3.6000001,3.5999999 0 0 1 3.630448,3.55896"
         transform="rotate(176.52951)" />
      <path
         style="fill:url(#linearGradient159);fill-opacity:1;fill-rule:evenodd;stroke-width:0.0353535"
         id="path142"
         d="m -92.289436,-192.47473 a 3.5,3.5 0 0 1 -3.490058,3.49998 3.5,3.5 0 0 1 -3.509886,-3.4801 3.5,3.5 0 0 1 3.470116,-3.51975 3.5,3.5 0 0 1 3.529602,3.4601"
         transform="rotate(176.52951)" />
      <path
         style="fill:url(#linearGradient160);fill-opacity:1;fill-rule:evenodd;stroke-width:0.0363636"
         id="path145"
         d="m -89.519758,-187.32947 a 3.6000001,3.5999999 0 0 1 -3.589774,3.59999 3.6000001,3.5999999 0 0 1 -3.610169,-3.57953 3.6000001,3.5999999 0 0 1 3.569263,-3.62033 3.6000001,3.5999999 0 0 1 3.630447,3.55897"
         transform="rotate(176.52951)" />
      <path
         style="fill:url(#linearGradient161);fill-opacity:1;fill-rule:evenodd;stroke-width:0.0353535"
         id="path146"
         d="m -68.701736,202.55313 a 3.5,3.5 0 0 1 -3.490058,3.49999 3.5,3.5 0 0 1 -3.509886,-3.4801 3.5,3.5 0 0 1 3.470116,-3.51976 3.5,3.5 0 0 1 3.529602,3.4601"
         transform="rotate(-51.441365)" />
      <path
         style="fill:url(#linearGradient162);fill-opacity:1;fill-rule:evenodd;stroke-width:0.0363636"
         id="path147"
         d="m -96.20394,-185.68616 a 3.6000001,3.5999999 0 0 1 -3.589773,3.59999 3.6000001,3.5999999 0 0 1 -3.610167,-3.57953 3.6000001,3.5999999 0 0 1 3.56926,-3.62033 3.6000001,3.5999999 0 0 1 3.630448,3.55897"
         transform="rotate(176.52951)" />
      <path
         style="fill:url(#linearGradient163);fill-opacity:1;fill-rule:evenodd;stroke-width:0.0353535"
         id="path148"
         d="m -109.66204,-177.10469 a 3.5,3.5 0 0 1 -3.49006,3.49999 3.5,3.5 0 0 1 -3.50988,-3.48011 3.5,3.5 0 0 1 3.47011,-3.51975 3.5,3.5 0 0 1 3.5296,3.4601"
         transform="rotate(178.17322)" />
      <path
         style="fill:url(#linearGradient164);fill-opacity:1;fill-rule:evenodd;stroke:#c8c800;stroke-width:0.1;stroke-dasharray:none;stroke-opacity:1"
         id="path149"
         d="m 185.26691,121.17239 a 1.7859375,1.7859375 0 0 1 -1.78086,1.78593 1.7859375,1.7859375 0 0 1 -1.79099,-1.77578 1.7859375,1.7859375 0 0 1 1.77069,-1.79602 1.7859375,1.7859375 0 0 1 1.80104,1.76558"
         transform="rotate(31.942204)" />
      <path
         style="fill:url(#linearGradient165);fill-opacity:1;fill-rule:evenodd;stroke-width:0.0353535"
         id="path150"
         d="m -103.19431,-192.27547 a 3.5,3.5 0 0 1 -3.49006,3.49999 3.5,3.5 0 0 1 -3.50989,-3.4801 3.5,3.5 0 0 1 3.47012,-3.51976 3.5,3.5 0 0 1 3.5296,3.4601"
         transform="rotate(176.52951)" />
      <path
         style="fill:url(#linearGradient166);fill-opacity:1;fill-rule:evenodd;stroke-width:0.0363636"
         id="path151"
         d="m -111.98498,-183.68034 a 3.6000001,3.5999999 0 0 1 -3.58977,3.59998 3.6000001,3.5999999 0 0 1 -3.61017,-3.57953 3.6000001,3.5999999 0 0 1 3.56926,-3.62032 3.6000001,3.5999999 0 0 1 3.63045,3.55896"
         transform="rotate(178.17322)" />
      <path
         style="fill:url(#linearGradient167);fill-opacity:1;fill-rule:evenodd;stroke-width:0.0353535"
         id="path152"
         d="m -91.255348,-183.62999 a 3.5,3.5 0 0 1 -3.490058,3.49999 3.5,3.5 0 0 1 -3.509886,-3.4801 3.5,3.5 0 0 1 3.470116,-3.51976 3.5,3.5 0 0 1 3.529602,3.4601"
         transform="rotate(176.52951)" />
      <path
         style="fill:url(#linearGradient168);fill-opacity:1;fill-rule:evenodd;stroke:#c8c800;stroke-width:0.1;stroke-dasharray:none;stroke-opacity:1"
         id="path153"
         d="m 198.69498,64.060181 a 1.7859375,1.7859375 0 0 1 -1.78086,1.78593 1.7859375,1.7859375 0 0 1 -1.79099,-1.775784 1.7859375,1.7859375 0 0 1 1.77069,-1.796019 1.7859375,1.7859375 0 0 1 1.80104,1.765579"
         transform="rotate(31.942204)" />
      <path
         style="fill:url(#linearGradient169);fill-opacity:1;fill-rule:evenodd;stroke-width:0.0363636"
         id="path154"
         d="m -100.38941,-183.56264 a 3.6000001,3.5999999 0 0 1 -3.58977,3.59999 3.6000001,3.5999999 0 0 1 -3.61017,-3.57953 3.6000001,3.5999999 0 0 1 3.56926,-3.62033 3.6000001,3.5999999 0 0 1 3.63045,3.55897"
         transform="rotate(176.52951)" />
      <path
         style="fill:url(#linearGradient170);fill-opacity:1;fill-rule:evenodd;stroke:#c8c800;stroke-width:0.1;stroke-dasharray:none;stroke-opacity:1"
         id="path169"
         d="m 163.53667,85.981583 a 1.7859375,1.7859375 0 0 1 -1.78086,1.78593 1.7859375,1.7859375 0 0 1 -1.79099,-1.775784 1.7859375,1.7859375 0 0 1 1.77069,-1.796019 1.7859375,1.7859375 0 0 1 1.80104,1.765579"
         transform="rotate(31.942204)" />
      <path
         style="fill:url(#linearGradient171);fill-opacity:1;fill-rule:evenodd;stroke-width:0.0353535"
         id="path170"
         d="m -103.28604,-179.29762 a 3.5,3.5 0 0 1 -3.49006,3.49998 3.5,3.5 0 0 1 -3.50988,-3.4801 3.5,3.5 0 0 1 3.47011,-3.51976 3.5,3.5 0 0 1 3.5296,3.46011"
         transform="rotate(178.17322)" />
    </g>
  </g>
</svg>
