<?xml version="1.0" encoding="UTF-8" standalone="no"?>
<!-- Created with Inkscape (http://www.inkscape.org/) -->

<svg
   width="48.683334mm"
   height="50.405468mm"
   viewBox="0 0 48.683334 50.405468"
   version="1.1"
   id="svg1"
   xmlns:xlink="http://www.w3.org/1999/xlink"
   xmlns="http://www.w3.org/2000/svg"
   xmlns:svg="http://www.w3.org/2000/svg">
  <defs
     id="defs1">
    <linearGradient
       id="linearGradient66">
      <stop
         style="stop-color:#fcfc0a;stop-opacity:1;"
         offset="0"
         id="stop65" />
      <stop
         style="stop-color:#dcdc31;stop-opacity:1;"
         offset="1"
         id="stop66" />
    </linearGradient>
    <linearGradient
       id="linearGradient26">
      <stop
         style="stop-color:#0d9f06;stop-opacity:0.57021278;"
         offset="0"
         id="stop25" />
      <stop
         style="stop-color:#084505;stop-opacity:0.27672955;"
         offset="1"
         id="stop26" />
    </linearGradient>
    <linearGradient
       id="linearGradient28">
      <stop
         style="stop-color:#0a0595;stop-opacity:0.57021278;"
         offset="0"
         id="stop27" />
      <stop
         style="stop-color:#4f53bf;stop-opacity:0.24528302;"
         offset="1"
         id="stop28" />
    </linearGradient>
    <linearGradient
       xlink:href="#linearGradient28"
       id="linearGradient57"
       gradientUnits="userSpaceOnUse"
       gradientTransform="matrix(0.22222223,0,0,0.22222223,-68.970653,-171.64129)"
       x1="84.137497"
       y1="132.82083"
       x2="97.102081"
       y2="148.16667" />
    <linearGradient
       xlink:href="#linearGradient66"
       id="linearGradient65"
       gradientUnits="userSpaceOnUse"
       gradientTransform="matrix(0.19852942,0,0,0.19852942,121.62465,96.797997)"
       x1="-136.28989"
       y1="-94.14003"
       x2="-118.29822"
       y2="-94.14003" />
    <linearGradient
       xlink:href="#linearGradient26"
       id="linearGradient32"
       gradientUnits="userSpaceOnUse"
       gradientTransform="matrix(0.23484849,0,0,0.23484849,-80.303192,-165.56109)"
       x1="84.137497"
       y1="132.82083"
       x2="97.102081"
       y2="148.16667" />
  </defs>
  <g
     id="layer1"
     transform="translate(-16.097468,-115.42234)">
    <g
       id="g55">
      <path
         style="fill:#fff6d5;fill-rule:evenodd;stroke:#ffe680;stroke-width:0.436319;stroke-opacity:0.449153"
         id="path48"
         d="m 64.562645,141.34126 a 24.123505,24.268394 0 0 1 -24.054976,24.2683 24.123505,24.268394 0 0 1 -24.191644,-24.13042 24.123505,24.268394 0 0 1 23.917531,-24.40539 24.123505,24.268394 0 0 1 24.327532,23.99176" />
      <path
         style="fill:url(#linearGradient57);fill-opacity:1;fill-rule:evenodd;stroke-width:0.0587962"
         id="path51"
         d="m -43.276624,-140.7144 a 5.8208337,5.8208337 0 0 1 -5.804298,5.82081 5.8208337,5.8208337 0 0 1 -5.837276,-5.78774 5.8208337,5.8208337 0 0 1 5.771134,-5.85369 5.8208337,5.8208337 0 0 1 5.870064,5.75448"
         transform="rotate(-174.65152)" />
      <path
         style="fill:url(#linearGradient65);fill-opacity:1;fill-rule:evenodd;stroke:#c8c800;stroke-width:0.1;stroke-dasharray:none;stroke-opacity:1"
         id="path64"
         d="m 98.138957,78.108421 a 1.7859375,1.7859375 0 0 1 -1.780864,1.785931 1.7859375,1.7859375 0 0 1 -1.790982,-1.775784 1.7859375,1.7859375 0 0 1 1.770689,-1.796019 1.7859375,1.7859375 0 0 1 1.801042,1.765579"
         transform="rotate(31.942204)" />
      <path
         style="fill:url(#linearGradient32);fill-opacity:1;fill-rule:evenodd;stroke-width:0.0621369"
         id="path20"
         d="m -53.149299,-132.877 a 6.1515627,6.1515627 0 0 1 -6.134087,6.15154 6.1515627,6.1515627 0 0 1 -6.168939,-6.11659 6.1515627,6.1515627 0 0 1 6.099039,-6.18629 6.1515627,6.1515627 0 0 1 6.20359,6.08144"
         transform="rotate(-174.65152)" />
    </g>
  </g>
</svg>
