<?xml version="1.0" encoding="UTF-8" standalone="no"?>
<!-- Created with Inkscape (http://www.inkscape.org/) -->

<svg
   width="166.51051mm"
   height="58.598446mm"
   viewBox="0 0 166.51051 58.598446"
   version="1.1"
   id="svg1"
   xmlns:xlink="http://www.w3.org/1999/xlink"
   xmlns="http://www.w3.org/2000/svg"
   xmlns:svg="http://www.w3.org/2000/svg">
  <defs
     id="defs1">
    <linearGradient
       id="linearGradient66">
      <stop
         style="stop-color:#fcfc0a;stop-opacity:1;"
         offset="0"
         id="stop65" />
      <stop
         style="stop-color:#dcdc31;stop-opacity:1;"
         offset="1"
         id="stop66" />
    </linearGradient>
    <linearGradient
       id="linearGradient26">
      <stop
         style="stop-color:#0d9f06;stop-opacity:0.57021278;"
         offset="0"
         id="stop25" />
      <stop
         style="stop-color:#084505;stop-opacity:0.27672955;"
         offset="1"
         id="stop26" />
    </linearGradient>
    <linearGradient
       id="linearGradient28">
      <stop
         style="stop-color:#0a0595;stop-opacity:0.57021278;"
         offset="0"
         id="stop27" />
      <stop
         style="stop-color:#4f53bf;stop-opacity:0.24528302;"
         offset="1"
         id="stop28" />
    </linearGradient>
    <linearGradient
       xlink:href="#linearGradient28"
       id="linearGradient57"
       gradientUnits="userSpaceOnUse"
       gradientTransform="matrix(0.22222223,0,0,0.22222223,-68.970653,-171.64129)"
       x1="84.137497"
       y1="132.82083"
       x2="97.102081"
       y2="148.16667" />
    <linearGradient
       xlink:href="#linearGradient66"
       id="linearGradient65"
       gradientUnits="userSpaceOnUse"
       gradientTransform="matrix(0.19852942,0,0,0.19852942,121.62465,96.797997)"
       x1="-136.28989"
       y1="-94.14003"
       x2="-118.29822"
       y2="-94.14003" />
    <linearGradient
       xlink:href="#linearGradient26"
       id="linearGradient32"
       gradientUnits="userSpaceOnUse"
       gradientTransform="matrix(0.23484849,0,0,0.23484849,-80.303192,-165.56109)"
       x1="84.137497"
       y1="132.82083"
       x2="97.102081"
       y2="148.16667" />
    <linearGradient
       xlink:href="#linearGradient26"
       id="linearGradient52"
       gradientUnits="userSpaceOnUse"
       gradientTransform="matrix(0.23484849,0,0,0.23484849,-139.57574,-156.66032)"
       x1="84.137497"
       y1="132.82083"
       x2="97.102081"
       y2="148.16667" />
    <linearGradient
       xlink:href="#linearGradient66"
       id="linearGradient53"
       gradientUnits="userSpaceOnUse"
       gradientTransform="matrix(0.19852942,0,0,0.19852942,173.61112,64.123952)"
       x1="-136.28989"
       y1="-94.14003"
       x2="-118.29822"
       y2="-94.14003" />
    <linearGradient
       xlink:href="#linearGradient28"
       id="linearGradient54"
       gradientUnits="userSpaceOnUse"
       gradientTransform="matrix(0.22222223,0,0,0.22222223,-128.2432,-162.74052)"
       x1="84.137497"
       y1="132.82083"
       x2="97.102081"
       y2="148.16667" />
    <linearGradient
       xlink:href="#linearGradient26"
       id="linearGradient55"
       gradientUnits="userSpaceOnUse"
       gradientTransform="matrix(0.23484849,0,0,0.23484849,-140.86144,-170.39334)"
       x1="84.137497"
       y1="132.82083"
       x2="97.102081"
       y2="148.16667" />
    <linearGradient
       xlink:href="#linearGradient28"
       id="linearGradient57-0"
       gradientUnits="userSpaceOnUse"
       gradientTransform="matrix(0.22222223,0,0,0.22222223,-69.477069,-152.31073)"
       x1="84.137497"
       y1="132.82083"
       x2="97.102081"
       y2="148.16667" />
    <linearGradient
       xlink:href="#linearGradient66"
       id="linearGradient65-9"
       gradientUnits="userSpaceOnUse"
       gradientTransform="matrix(0.19852942,0,0,0.19852942,111.225,84.589299)"
       x1="-136.28989"
       y1="-94.14003"
       x2="-118.29822"
       y2="-94.14003" />
  </defs>
  <g
     id="layer1"
     transform="translate(-13.731692,-99.560185)">
    <g
       id="g3">
      <g
         id="g55"
         transform="translate(56.547815,-15.862155)">
        <path
           style="fill:#fff6d5;fill-rule:evenodd;stroke:#ffe680;stroke-width:0.436319;stroke-opacity:0.449153"
           id="path48"
           d="m 64.562645,141.34126 a 24.123505,24.268394 0 0 1 -24.054976,24.2683 24.123505,24.268394 0 0 1 -24.191644,-24.13042 24.123505,24.268394 0 0 1 23.917531,-24.40539 24.123505,24.268394 0 0 1 24.327532,23.99176" />
        <path
           style="fill:url(#linearGradient57);fill-opacity:1;fill-rule:evenodd;stroke-width:0.0587962"
           id="path51"
           d="m -43.276624,-140.7144 a 5.8208337,5.8208337 0 0 1 -5.804298,5.82081 5.8208337,5.8208337 0 0 1 -5.837276,-5.78774 5.8208337,5.8208337 0 0 1 5.771134,-5.85369 5.8208337,5.8208337 0 0 1 5.870064,5.75448"
           transform="rotate(-174.65152)" />
        <path
           style="fill:url(#linearGradient65);fill-opacity:1;fill-rule:evenodd;stroke:#c8c800;stroke-width:0.1;stroke-dasharray:none;stroke-opacity:1"
           id="path64"
           d="m 98.138957,78.108421 a 1.7859375,1.7859375 0 0 1 -1.780864,1.785931 1.7859375,1.7859375 0 0 1 -1.790982,-1.775784 1.7859375,1.7859375 0 0 1 1.770689,-1.796019 1.7859375,1.7859375 0 0 1 1.801042,1.765579"
           transform="rotate(31.942204)" />
        <path
           style="fill:url(#linearGradient32);fill-opacity:1;fill-rule:evenodd;stroke-width:0.0621369"
           id="path20"
           d="m -53.149299,-132.877 a 6.1515627,6.1515627 0 0 1 -6.134087,6.15154 6.1515627,6.1515627 0 0 1 -6.168939,-6.11659 6.1515627,6.1515627 0 0 1 6.099039,-6.18629 6.1515627,6.1515627 0 0 1 6.20359,6.08144"
           transform="rotate(-174.65152)" />
      </g>
      <g
         id="g56"
         transform="translate(54.059961,-15.639686)">
        <path
           style="fill:#fff6d5;fill-rule:evenodd;stroke:#ffe680;stroke-width:0.436319;stroke-opacity:0.449153"
           id="path45"
           d="m 125.96409,141.11879 a 24.123505,24.268394 0 0 1 -24.05498,24.2683 24.123505,24.268394 0 0 1 -24.191641,-24.13042 24.123505,24.268394 0 0 1 23.917531,-24.40539 24.123505,24.268394 0 0 1 24.32753,23.99175" />
        <path
           style="fill:url(#linearGradient54);fill-opacity:1;fill-rule:evenodd;stroke-width:0.0587962"
           id="path46"
           d="m -102.54918,-131.81364 a 5.8208337,5.8208337 0 0 1 -5.8043,5.82081 5.8208337,5.8208337 0 0 1 -5.83728,-5.78774 5.8208337,5.8208337 0 0 1 5.77114,-5.8537 5.8208337,5.8208337 0 0 1 5.87006,5.75448"
           transform="rotate(-174.65152)" />
        <path
           style="fill:url(#linearGradient53);fill-opacity:1;fill-rule:evenodd;stroke:#c8c800;stroke-width:0.1;stroke-dasharray:none;stroke-opacity:1"
           id="path47"
           d="m 150.12543,45.434376 a 1.7859375,1.7859375 0 0 1 -1.78086,1.78593 1.7859375,1.7859375 0 0 1 -1.79099,-1.775783 1.7859375,1.7859375 0 0 1 1.77069,-1.79602 1.7859375,1.7859375 0 0 1 1.80105,1.76558"
           transform="rotate(31.942204)" />
        <path
           style="fill:url(#linearGradient52);fill-opacity:1;fill-rule:evenodd;stroke-width:0.0621369"
           id="path49"
           d="m -112.42185,-123.97624 a 6.1515627,6.1515627 0 0 1 -6.13409,6.15154 6.1515627,6.1515627 0 0 1 -6.16894,-6.11659 6.1515627,6.1515627 0 0 1 6.09904,-6.18629 6.1515627,6.1515627 0 0 1 6.20359,6.08144"
           transform="rotate(-174.65152)" />
        <path
           style="fill:url(#linearGradient55);fill-opacity:1;fill-rule:evenodd;stroke-width:0.0621369"
           id="path54"
           d="m -113.70756,-137.70926 a 6.1515627,6.1515627 0 0 1 -6.13409,6.15154 6.1515627,6.1515627 0 0 1 -6.16894,-6.11659 6.1515627,6.1515627 0 0 1 6.09904,-6.18629 6.1515627,6.1515627 0 0 1 6.20359,6.08144"
           transform="rotate(-174.65152)" />
      </g>
      <path
         style="fill:#fff6d5;fill-rule:evenodd;stroke:#ffe680;stroke-width:0.436319;stroke-opacity:0.449153"
         id="path48-9"
         d="M 62.196869,125.47911 A 24.123505,24.268394 0 0 1 38.141893,149.74741 24.123505,24.268394 0 0 1 13.950249,125.61699 24.123505,24.268394 0 0 1 37.86778,101.2116 24.123505,24.268394 0 0 1 62.195312,125.20335" />
      <path
         style="fill:url(#linearGradient57-0);fill-opacity:1;fill-rule:evenodd;stroke-width:0.0587962"
         id="path51-8"
         d="m -43.783041,-121.38385 a 5.8208337,5.8208337 0 0 1 -5.804298,5.82081 5.8208337,5.8208337 0 0 1 -5.837275,-5.78774 5.8208337,5.8208337 0 0 1 5.771134,-5.85369 5.8208337,5.8208337 0 0 1 5.870064,5.75448"
         transform="rotate(-174.65152)" />
      <path
         style="fill:url(#linearGradient65-9);fill-opacity:1;fill-rule:evenodd;stroke:#c8c800;stroke-width:0.1;stroke-dasharray:none;stroke-opacity:1"
         id="path64-6"
         d="m 87.739314,65.899719 a 1.7859375,1.7859375 0 0 1 -1.780864,1.785931 1.7859375,1.7859375 0 0 1 -1.790982,-1.775784 1.7859375,1.7859375 0 0 1 1.770689,-1.796019 1.7859375,1.7859375 0 0 1 1.801042,1.765579"
         transform="rotate(31.942204)" />
      <text
         xml:space="preserve"
         style="font-size:6.35px;font-family:Lexend;-inkscape-font-specification:'Lexend, @wght=300';font-variation-settings:'wght' 300;fill:#000000;stroke:#000000;stroke-width:0.750001;stroke-linecap:square;stroke-linejoin:bevel"
         x="25.489077"
         y="156.48541"
         id="text1"><tspan
           id="tspan1"
           style="font-style:normal;font-variant:normal;font-weight:normal;font-stretch:normal;font-size:5.64444px;font-family:Lexend;-inkscape-font-specification:'Lexend, Normal';font-variant-ligatures:normal;font-variant-caps:normal;font-variant-numeric:normal;font-variant-east-asian:normal;stroke-width:0.75"
           x="25.489077"
           y="156.48541">hydrogen</tspan></text>
      <text
         xml:space="preserve"
         style="font-size:6.35px;font-family:Lexend;-inkscape-font-specification:'Lexend, @wght=300';font-variation-settings:'wght' 300;fill:#000000;stroke:#000000;stroke-width:0.750001;stroke-linecap:square;stroke-linejoin:bevel"
         x="83.48262"
         y="157.11758"
         id="text2"><tspan
           id="tspan2"
           style="font-style:normal;font-variant:normal;font-weight:normal;font-stretch:normal;font-size:5.64444px;font-family:Lexend;-inkscape-font-specification:'Lexend, Normal';font-variant-ligatures:normal;font-variant-caps:normal;font-variant-numeric:normal;font-variant-east-asian:normal;stroke-width:0.75"
           x="83.48262"
           y="157.11758">deuterium</tspan></text>
      <text
         xml:space="preserve"
         style="font-size:6.35px;font-family:Lexend;-inkscape-font-specification:'Lexend, @wght=300';font-variation-settings:'wght' 300;fill:#000000;stroke:#000000;stroke-width:0.750001;stroke-linecap:square;stroke-linejoin:bevel"
         x="147.19681"
         y="157.11758"
         id="text3"><tspan
           id="tspan3"
           style="font-style:normal;font-variant:normal;font-weight:normal;font-stretch:normal;font-size:5.64444px;font-family:Lexend;-inkscape-font-specification:'Lexend, Normal';font-variant-ligatures:normal;font-variant-caps:normal;font-variant-numeric:normal;font-variant-east-asian:normal;stroke-width:0.75"
           x="147.19681"
           y="157.11758">tritium</tspan></text>
    </g>
  </g>
</svg>
