<?xml version="1.0" encoding="UTF-8" standalone="no"?>
<!-- Created with Inkscape (http://www.inkscape.org/) -->

<svg
   width="166.51051mm"
   height="50.405483mm"
   viewBox="0 0 166.51051 50.405483"
   version="1.1"
   id="svg1"
   xmlns:xlink="http://www.w3.org/1999/xlink"
   xmlns="http://www.w3.org/2000/svg"
   xmlns:svg="http://www.w3.org/2000/svg">
  <defs
     id="defs1">
    <linearGradient
       id="linearGradient66">
      <stop
         style="stop-color:#fcfc0a;stop-opacity:1;"
         offset="0"
         id="stop65" />
      <stop
         style="stop-color:#dcdc31;stop-opacity:1;"
         offset="1"
         id="stop66" />
    </linearGradient>
    <linearGradient
       id="linearGradient26">
      <stop
         style="stop-color:#0d9f06;stop-opacity:0.57021278;"
         offset="0"
         id="stop25" />
      <stop
         style="stop-color:#084505;stop-opacity:0.27672955;"
         offset="1"
         id="stop26" />
    </linearGradient>
    <linearGradient
       id="linearGradient28">
      <stop
         style="stop-color:#0a0595;stop-opacity:0.57021278;"
         offset="0"
         id="stop27" />
      <stop
         style="stop-color:#4f53bf;stop-opacity:0.24528302;"
         offset="1"
         id="stop28" />
    </linearGradient>
    <linearGradient
       xlink:href="#linearGradient28"
       id="linearGradient57"
       gradientUnits="userSpaceOnUse"
       gradientTransform="matrix(0.22222223,0,0,0.22222223,-68.970653,-171.64129)"
       x1="84.137497"
       y1="132.82083"
       x2="97.102081"
       y2="148.16667" />
    <linearGradient
       xlink:href="#linearGradient66"
       id="linearGradient65"
       gradientUnits="userSpaceOnUse"
       gradientTransform="matrix(0.19852942,0,0,0.19852942,121.62465,96.797997)"
       x1="-136.28989"
       y1="-94.14003"
       x2="-118.29822"
       y2="-94.14003" />
    <linearGradient
       xlink:href="#linearGradient26"
       id="linearGradient32"
       gradientUnits="userSpaceOnUse"
       gradientTransform="matrix(0.23484849,0,0,0.23484849,-80.303192,-165.56109)"
       x1="84.137497"
       y1="132.82083"
       x2="97.102081"
       y2="148.16667" />
    <linearGradient
       xlink:href="#linearGradient26"
       id="linearGradient52"
       gradientUnits="userSpaceOnUse"
       gradientTransform="matrix(0.23484849,0,0,0.23484849,-139.57574,-156.66032)"
       x1="84.137497"
       y1="132.82083"
       x2="97.102081"
       y2="148.16667" />
    <linearGradient
       xlink:href="#linearGradient66"
       id="linearGradient53"
       gradientUnits="userSpaceOnUse"
       gradientTransform="matrix(0.19852942,0,0,0.19852942,173.61112,64.123952)"
       x1="-136.28989"
       y1="-94.14003"
       x2="-118.29822"
       y2="-94.14003" />
    <linearGradient
       xlink:href="#linearGradient28"
       id="linearGradient54"
       gradientUnits="userSpaceOnUse"
       gradientTransform="matrix(0.22222223,0,0,0.22222223,-128.2432,-162.74052)"
       x1="84.137497"
       y1="132.82083"
       x2="97.102081"
       y2="148.16667" />
    <linearGradient
       xlink:href="#linearGradient26"
       id="linearGradient55"
       gradientUnits="userSpaceOnUse"
       gradientTransform="matrix(0.23484849,0,0,0.23484849,-140.86144,-170.39334)"
       x1="84.137497"
       y1="132.82083"
       x2="97.102081"
       y2="148.16667" />
    <linearGradient
       xlink:href="#linearGradient28"
       id="linearGradient57-0"
       gradientUnits="userSpaceOnUse"
       gradientTransform="matrix(0.22222223,0,0,0.22222223,-54.474055,-62.07455)"
       x1="84.137497"
       y1="132.82083"
       x2="97.102081"
       y2="148.16667" />
    <linearGradient
       xlink:href="#linearGradient66"
       id="linearGradient65-9"
       gradientUnits="userSpaceOnUse"
       gradientTransform="matrix(0.19852942,0,0,0.19852942,57.41403,10.616076)"
       x1="-136.28989"
       y1="-94.14003"
       x2="-118.29822"
       y2="-94.14003" />
  </defs>
  <g
     id="layer1"
     transform="translate(-16.401322,-115.80043)">
    <g
       id="g55"
       transform="translate(59.217443,0.37808001)">
      <path
         style="fill:#fff6d5;fill-rule:evenodd;stroke:#ffe680;stroke-width:0.436319;stroke-opacity:0.449153"
         id="path48"
         d="m 64.562645,141.34126 a 24.123505,24.268394 0 0 1 -24.054976,24.2683 24.123505,24.268394 0 0 1 -24.191644,-24.13042 24.123505,24.268394 0 0 1 23.917531,-24.40539 24.123505,24.268394 0 0 1 24.327532,23.99176" />
      <path
         style="fill:url(#linearGradient57);fill-opacity:1;fill-rule:evenodd;stroke-width:0.0587962"
         id="path51"
         d="m -43.276624,-140.7144 a 5.8208337,5.8208337 0 0 1 -5.804298,5.82081 5.8208337,5.8208337 0 0 1 -5.837276,-5.78774 5.8208337,5.8208337 0 0 1 5.771134,-5.85369 5.8208337,5.8208337 0 0 1 5.870064,5.75448"
         transform="rotate(-174.65152)" />
      <path
         style="fill:url(#linearGradient65);fill-opacity:1;fill-rule:evenodd;stroke:#c8c800;stroke-width:0.1;stroke-dasharray:none;stroke-opacity:1"
         id="path64"
         d="m 98.138957,78.108421 a 1.7859375,1.7859375 0 0 1 -1.780864,1.785931 1.7859375,1.7859375 0 0 1 -1.790982,-1.775784 1.7859375,1.7859375 0 0 1 1.770689,-1.796019 1.7859375,1.7859375 0 0 1 1.801042,1.765579"
         transform="rotate(31.942204)" />
      <path
         style="fill:url(#linearGradient32);fill-opacity:1;fill-rule:evenodd;stroke-width:0.0621369"
         id="path20"
         d="m -53.149299,-132.877 a 6.1515627,6.1515627 0 0 1 -6.134087,6.15154 6.1515627,6.1515627 0 0 1 -6.168939,-6.11659 6.1515627,6.1515627 0 0 1 6.099039,-6.18629 6.1515627,6.1515627 0 0 1 6.20359,6.08144"
         transform="rotate(-174.65152)" />
    </g>
    <g
       id="g56"
       transform="translate(56.729589,0.60054967)">
      <path
         style="fill:#fff6d5;fill-rule:evenodd;stroke:#ffe680;stroke-width:0.436319;stroke-opacity:0.449153"
         id="path45"
         d="m 125.96409,141.11879 a 24.123505,24.268394 0 0 1 -24.05498,24.2683 24.123505,24.268394 0 0 1 -24.191641,-24.13042 24.123505,24.268394 0 0 1 23.917531,-24.40539 24.123505,24.268394 0 0 1 24.32753,23.99175" />
      <path
         style="fill:url(#linearGradient54);fill-opacity:1;fill-rule:evenodd;stroke-width:0.0587962"
         id="path46"
         d="m -102.54918,-131.81364 a 5.8208337,5.8208337 0 0 1 -5.8043,5.82081 5.8208337,5.8208337 0 0 1 -5.83728,-5.78774 5.8208337,5.8208337 0 0 1 5.77114,-5.8537 5.8208337,5.8208337 0 0 1 5.87006,5.75448"
         transform="rotate(-174.65152)" />
      <path
         style="fill:url(#linearGradient53);fill-opacity:1;fill-rule:evenodd;stroke:#c8c800;stroke-width:0.1;stroke-dasharray:none;stroke-opacity:1"
         id="path47"
         d="m 150.12543,45.434376 a 1.7859375,1.7859375 0 0 1 -1.78086,1.78593 1.7859375,1.7859375 0 0 1 -1.79099,-1.775783 1.7859375,1.7859375 0 0 1 1.77069,-1.79602 1.7859375,1.7859375 0 0 1 1.80105,1.76558"
         transform="rotate(31.942204)" />
      <path
         style="fill:url(#linearGradient52);fill-opacity:1;fill-rule:evenodd;stroke-width:0.0621369"
         id="path49"
         d="m -112.42185,-123.97624 a 6.1515627,6.1515627 0 0 1 -6.13409,6.15154 6.1515627,6.1515627 0 0 1 -6.16894,-6.11659 6.1515627,6.1515627 0 0 1 6.09904,-6.18629 6.1515627,6.1515627 0 0 1 6.20359,6.08144"
         transform="rotate(-174.65152)" />
      <path
         style="fill:url(#linearGradient55);fill-opacity:1;fill-rule:evenodd;stroke-width:0.0621369"
         id="path54"
         d="m -113.70756,-137.70926 a 6.1515627,6.1515627 0 0 1 -6.13409,6.15154 6.1515627,6.1515627 0 0 1 -6.16894,-6.11659 6.1515627,6.1515627 0 0 1 6.09904,-6.18629 6.1515627,6.1515627 0 0 1 6.20359,6.08144"
         transform="rotate(-174.65152)" />
    </g>
    <g
       id="g81"
       transform="translate(9.19613,107.48202)">
      <path
         style="fill:#fff6d5;fill-rule:evenodd;stroke:#ffe680;stroke-width:0.436319;stroke-opacity:0.449153"
         id="path48-9"
         d="M 55.670368,34.237328 A 24.123505,24.268394 0 0 1 31.615392,58.505624 24.123505,24.268394 0 0 1 7.4237483,34.375208 24.123505,24.268394 0 0 1 31.341279,9.9698144 24.123505,24.268394 0 0 1 55.668811,33.961572" />
      <path
         style="fill:url(#linearGradient57-0);fill-opacity:1;fill-rule:evenodd;stroke-width:0.0587962"
         id="path51-8"
         d="m -28.780027,-31.147671 a 5.8208337,5.8208337 0 0 1 -5.804298,5.82081 5.8208337,5.8208337 0 0 1 -5.837275,-5.787739 5.8208337,5.8208337 0 0 1 5.771133,-5.853693 5.8208337,5.8208337 0 0 1 5.870064,5.754482"
         transform="rotate(-174.65152)" />
      <path
         style="fill:url(#linearGradient65-9);fill-opacity:1;fill-rule:evenodd;stroke:#c8c800;stroke-width:0.1;stroke-dasharray:none;stroke-opacity:1"
         id="path64-6"
         d="m 33.928336,-8.0734987 a 1.7859375,1.7859375 0 0 1 -1.780864,1.7859303 1.7859375,1.7859375 0 0 1 -1.790982,-1.7757836 1.7859375,1.7859375 0 0 1 1.770689,-1.7960194 1.7859375,1.7859375 0 0 1 1.801042,1.7655795"
         transform="rotate(31.942204)" />
    </g>
  </g>
</svg>
