<?xml version="1.0" encoding="UTF-8" standalone="no"?>
<!-- Created with Inkscape (http://www.inkscape.org/) -->

<svg
   width="461.66931"
   height="461.77957"
   viewBox="0 0 461.66931 461.77957"
   version="1.1"
   id="svg1"
   xmlns:xlink="http://www.w3.org/1999/xlink"
   xmlns="http://www.w3.org/2000/svg"
   xmlns:svg="http://www.w3.org/2000/svg">
  <defs
     id="defs1">
    <linearGradient
       id="linearGradient27">
      <stop
         style="stop-color:#000000;stop-opacity:1;"
         offset="0"
         id="stop27" />
      <stop
         style="stop-color:#000000;stop-opacity:0;"
         offset="1"
         id="stop28" />
    </linearGradient>
    <linearGradient
       id="linearGradient16">
      <stop
         style="stop-color:#ff00d2;stop-opacity:1;"
         offset="0"
         id="stop15" />
      <stop
         style="stop-color:#ff00fe;stop-opacity:0;"
         offset="1"
         id="stop16" />
    </linearGradient>
    <linearGradient
       id="linearGradient14">
      <stop
         style="stop-color:#ff0069;stop-opacity:1;"
         offset="0"
         id="stop13" />
      <stop
         style="stop-color:#ff00fe;stop-opacity:0;"
         offset="1"
         id="stop14" />
    </linearGradient>
    <linearGradient
       id="linearGradient12">
      <stop
         style="stop-color:#ff5700;stop-opacity:1;"
         offset="0"
         id="stop11" />
      <stop
         style="stop-color:#ffaf00;stop-opacity:0;"
         offset="1"
         id="stop12" />
    </linearGradient>
    <linearGradient
       id="linearGradient10">
      <stop
         style="stop-color:#ff9d00;stop-opacity:1;"
         offset="0"
         id="stop9" />
      <stop
         style="stop-color:#ffdb00;stop-opacity:0;"
         offset="1"
         id="stop10" />
    </linearGradient>
    <linearGradient
       id="linearGradient4">
      <stop
         style="stop-color:#000fff;stop-opacity:1;"
         offset="0"
         id="stop4" />
      <stop
         style="stop-color:#00a3ff;stop-opacity:0;"
         offset="1"
         id="stop5" />
    </linearGradient>
    <radialGradient
       xlink:href="#linearGradient12"
       id="radialGradient15"
       gradientUnits="userSpaceOnUse"
       gradientTransform="matrix(0.55052493,0,0,0.55052493,19.69027,165.65284)"
       cx="590"
       cy="184.99997"
       fx="590"
       fy="184.99997"
       r="96.779541" />
    <radialGradient
       xlink:href="#linearGradient10"
       id="radialGradient16"
       gradientUnits="userSpaceOnUse"
       gradientTransform="matrix(0.55052493,0,0,0.55052493,19.69027,165.65284)"
       cx="590"
       cy="184.99997"
       fx="590"
       fy="184.99997"
       r="96.779541" />
    <radialGradient
       xlink:href="#linearGradient4"
       id="radialGradient17"
       gradientUnits="userSpaceOnUse"
       gradientTransform="matrix(0.47819563,0,0,0.47819563,11.36458,246.97869)"
       cx="590"
       cy="184.99997"
       fx="590"
       fy="184.99997"
       r="96.779541" />
    <radialGradient
       xlink:href="#linearGradient4"
       id="radialGradient18"
       gradientUnits="userSpaceOnUse"
       gradientTransform="matrix(0.47819563,0,0,0.47819563,11.36458,246.97869)"
       cx="590"
       cy="184.99997"
       fx="590"
       fy="184.99997"
       r="96.779541" />
    <radialGradient
       xlink:href="#linearGradient14"
       id="radialGradient19"
       gradientUnits="userSpaceOnUse"
       gradientTransform="matrix(0.12688161,0,0,0.12688161,16.63983,361.02689)"
       cx="590"
       cy="184.99997"
       fx="590"
       fy="184.99997"
       r="96.779541" />
    <radialGradient
       xlink:href="#linearGradient16"
       id="radialGradient20"
       gradientUnits="userSpaceOnUse"
       gradientTransform="matrix(0.12688161,0,0,0.12688161,16.63983,361.02689)"
       cx="590"
       cy="184.99997"
       fx="590"
       fy="184.99997"
       r="96.779541" />
    <radialGradient
       xlink:href="#linearGradient12"
       id="radialGradient21"
       gradientUnits="userSpaceOnUse"
       gradientTransform="matrix(0.55052493,0,0,0.55052493,-62.30973,87.65284)"
       cx="590"
       cy="184.99997"
       fx="590"
       fy="184.99997"
       r="96.779541" />
    <radialGradient
       xlink:href="#linearGradient10"
       id="radialGradient22"
       gradientUnits="userSpaceOnUse"
       gradientTransform="matrix(0.55052493,0,0,0.55052493,-62.30973,87.65284)"
       cx="590"
       cy="184.99997"
       fx="590"
       fy="184.99997"
       r="96.779541" />
    <radialGradient
       xlink:href="#linearGradient12"
       id="radialGradient23"
       gradientUnits="userSpaceOnUse"
       gradientTransform="matrix(0.55052493,0,0,0.55052493,-110.30973,235.65284)"
       cx="590"
       cy="184.99997"
       fx="590"
       fy="184.99997"
       r="96.779541" />
    <radialGradient
       xlink:href="#linearGradient10"
       id="radialGradient24"
       gradientUnits="userSpaceOnUse"
       gradientTransform="matrix(0.55052493,0,0,0.55052493,-110.30973,235.65284)"
       cx="590"
       cy="184.99997"
       fx="590"
       fy="184.99997"
       r="96.779541" />
    <radialGradient
       xlink:href="#linearGradient4"
       id="radialGradient25"
       gradientUnits="userSpaceOnUse"
       gradientTransform="matrix(0.47819563,0,0,0.47819563,117.36458,285.97869)"
       cx="590"
       cy="184.99997"
       fx="590"
       fy="184.99997"
       r="96.779541" />
    <radialGradient
       xlink:href="#linearGradient4"
       id="radialGradient26"
       gradientUnits="userSpaceOnUse"
       gradientTransform="matrix(0.47819563,0,0,0.47819563,117.36458,285.97869)"
       cx="590"
       cy="184.99997"
       fx="590"
       fy="184.99997"
       r="96.779541" />
    <radialGradient
       xlink:href="#linearGradient14"
       id="radialGradient27"
       gradientUnits="userSpaceOnUse"
       gradientTransform="matrix(0.12688161,0,0,0.12688161,448.63983,329.02689)"
       cx="590"
       cy="184.99997"
       fx="590"
       fy="184.99997"
       r="96.779541" />
    <radialGradient
       xlink:href="#linearGradient16"
       id="radialGradient28"
       gradientUnits="userSpaceOnUse"
       gradientTransform="matrix(0.12688161,0,0,0.12688161,448.63983,329.02689)"
       cx="590"
       cy="184.99997"
       fx="590"
       fy="184.99997"
       r="96.779541" />
    <radialGradient
       xlink:href="#linearGradient14"
       id="radialGradient29"
       gradientUnits="userSpaceOnUse"
       gradientTransform="matrix(0.12688161,0,0,0.12688161,122.63983,123.02689)"
       cx="590"
       cy="184.99997"
       fx="590"
       fy="184.99997"
       r="96.779541" />
    <radialGradient
       xlink:href="#linearGradient16"
       id="radialGradient30"
       gradientUnits="userSpaceOnUse"
       gradientTransform="matrix(0.12688161,0,0,0.12688161,122.63983,123.02689)"
       cx="590"
       cy="184.99997"
       fx="590"
       fy="184.99997"
       r="96.779541" />
    <radialGradient
       xlink:href="#linearGradient4"
       id="radialGradient31"
       gradientUnits="userSpaceOnUse"
       gradientTransform="matrix(0.47819563,0,0,0.47819563,-86.63542,172.97869)"
       cx="590"
       cy="184.99997"
       fx="590"
       fy="184.99997"
       r="96.779541" />
    <radialGradient
       xlink:href="#linearGradient4"
       id="radialGradient32"
       gradientUnits="userSpaceOnUse"
       gradientTransform="matrix(0.47819563,0,0,0.47819563,-86.63542,172.97869)"
       cx="590"
       cy="184.99997"
       fx="590"
       fy="184.99997"
       r="96.779541" />
    <radialGradient
       xlink:href="#linearGradient12"
       id="radialGradient33"
       gradientUnits="userSpaceOnUse"
       gradientTransform="matrix(0.55052493,0,0,0.55052493,4.69027,314.65284)"
       cx="590"
       cy="184.99997"
       fx="590"
       fy="184.99997"
       r="96.779541" />
    <radialGradient
       xlink:href="#linearGradient10"
       id="radialGradient34"
       gradientUnits="userSpaceOnUse"
       gradientTransform="matrix(0.55052493,0,0,0.55052493,4.69027,314.65284)"
       cx="590"
       cy="184.99997"
       fx="590"
       fy="184.99997"
       r="96.779541" />
    <radialGradient
       xlink:href="#linearGradient14"
       id="radialGradient35"
       gradientUnits="userSpaceOnUse"
       gradientTransform="matrix(0.12688161,0,0,0.12688161,346.63983,424.02689)"
       cx="590"
       cy="184.99997"
       fx="590"
       fy="184.99997"
       r="96.779541" />
    <radialGradient
       xlink:href="#linearGradient16"
       id="radialGradient36"
       gradientUnits="userSpaceOnUse"
       gradientTransform="matrix(0.12688161,0,0,0.12688161,346.63983,424.02689)"
       cx="590"
       cy="184.99997"
       fx="590"
       fy="184.99997"
       r="96.779541" />
    <radialGradient
       xlink:href="#linearGradient12"
       id="radialGradient37"
       gradientUnits="userSpaceOnUse"
       gradientTransform="matrix(0.55052493,0,0,0.55052493,107.69027,197.65284)"
       cx="590"
       cy="184.99997"
       fx="590"
       fy="184.99997"
       r="96.779541" />
    <radialGradient
       xlink:href="#linearGradient10"
       id="radialGradient38"
       gradientUnits="userSpaceOnUse"
       gradientTransform="matrix(0.55052493,0,0,0.55052493,107.69027,197.65284)"
       cx="590"
       cy="184.99997"
       fx="590"
       fy="184.99997"
       r="96.779541" />
    <radialGradient
       xlink:href="#linearGradient4"
       id="radialGradient39"
       gradientUnits="userSpaceOnUse"
       gradientTransform="matrix(0.47819563,0,0,0.47819563,-38.63542,335.97869)"
       cx="590"
       cy="184.99997"
       fx="590"
       fy="184.99997"
       r="96.779541" />
    <radialGradient
       xlink:href="#linearGradient4"
       id="radialGradient40"
       gradientUnits="userSpaceOnUse"
       gradientTransform="matrix(0.47819563,0,0,0.47819563,-38.63542,335.97869)"
       cx="590"
       cy="184.99997"
       fx="590"
       fy="184.99997"
       r="96.779541" />
    <radialGradient
       xlink:href="#linearGradient14"
       id="radialGradient41"
       gradientUnits="userSpaceOnUse"
       gradientTransform="matrix(0.12688161,0,0,0.12688161,288.63983,61.02689)"
       cx="590"
       cy="184.99997"
       fx="590"
       fy="184.99997"
       r="96.779541" />
    <radialGradient
       xlink:href="#linearGradient16"
       id="radialGradient42"
       gradientUnits="userSpaceOnUse"
       gradientTransform="matrix(0.12688161,0,0,0.12688161,288.63983,61.02689)"
       cx="590"
       cy="184.99997"
       fx="590"
       fy="184.99997"
       r="96.779541" />
    <radialGradient
       xlink:href="#linearGradient4"
       id="radialGradient43"
       gradientUnits="userSpaceOnUse"
       gradientTransform="matrix(0.47819563,0,0,0.47819563,77.36458,93.97869)"
       cx="590"
       cy="184.99997"
       fx="590"
       fy="184.99997"
       r="96.779541" />
    <radialGradient
       xlink:href="#linearGradient4"
       id="radialGradient44"
       gradientUnits="userSpaceOnUse"
       gradientTransform="matrix(0.47819563,0,0,0.47819563,77.36458,93.97869)"
       cx="590"
       cy="184.99997"
       fx="590"
       fy="184.99997"
       r="96.779541" />
  </defs>
  <g
     id="layer1"
     transform="translate(-74.110229,-70.110199)">
    <path
       style="fill:url(#radialGradient39);fill-opacity:1;fill-rule:evenodd;stroke:url(#radialGradient40);stroke-width:3.61471;stroke-dasharray:none;stroke-opacity:1"
       id="path1"
       d="m 287.97219,424.44495 a 44.472195,44.472195 0 0 1 -44.34586,44.47201 44.472195,44.472195 0 0 1 -44.59781,-44.21935 44.472195,44.472195 0 0 1 44.09248,-44.72324 44.472195,44.472195 0 0 1 44.84832,43.96525" />
    <path
       style="fill:url(#radialGradient37);fill-opacity:1;fill-rule:evenodd;stroke:url(#radialGradient38);stroke-width:4.16145;stroke-dasharray:none;stroke-opacity:1"
       id="path2"
       d="m 483.69882,299.5 a 51.198822,51.198822 0 0 1 -51.05338,51.19862 51.198822,51.198822 0 0 1 -51.34344,-50.90774 51.198822,51.198822 0 0 1 50.76168,-51.48784 51.198822,51.198822 0 0 1 51.63184,50.6152" />
    <path
       style="fill:none;fill-rule:evenodd;stroke:#3f412a;stroke-width:5.44502;stroke-dasharray:none;stroke-opacity:0.123832"
       id="path3"
       d="M 493.16724,301 A 190.16724,190.16724 0 0 1 303.29968,491.167 190.16724,190.16724 0 0 1 112.83371,301.59936 190.16724,190.16724 0 0 1 302.10096,110.83489 a 190.16724,190.16724 0 0 1 191.0625,188.9664" />
    <path
       style="fill:url(#radialGradient35);fill-opacity:1;fill-rule:evenodd;stroke:url(#radialGradient36);stroke-width:0.959106;stroke-dasharray:none;stroke-opacity:1"
       id="path4"
       d="m 433.29999,447.5 a 11.79999,11.79999 0 0 1 -11.76647,11.79994 11.79999,11.79999 0 0 1 -11.83332,-11.7329 11.79999,11.79999 0 0 1 11.69924,-11.8666 11.79999,11.79999 0 0 1 11.89979,11.66548" />
    <path
       style="fill:url(#radialGradient33);fill-opacity:1;fill-rule:evenodd;stroke:url(#radialGradient34);stroke-width:4.16145;stroke-dasharray:none;stroke-opacity:1"
       id="path5"
       d="m 380.69882,416.5 a 51.198822,51.198822 0 0 1 -51.05338,51.19862 51.198822,51.198822 0 0 1 -51.34344,-50.90774 51.198822,51.198822 0 0 1 50.76168,-51.48784 51.198822,51.198822 0 0 1 51.63184,50.6152" />
    <path
       style="fill:url(#radialGradient31);fill-opacity:1;fill-rule:evenodd;stroke:url(#radialGradient32);stroke-width:3.61471;stroke-dasharray:none;stroke-opacity:1"
       id="path6"
       d="m 239.97219,261.44495 a 44.472195,44.472195 0 0 1 -44.34586,44.47201 44.472195,44.472195 0 0 1 -44.59781,-44.21935 44.472195,44.472195 0 0 1 44.09248,-44.72324 44.472195,44.472195 0 0 1 44.84832,43.96525" />
    <path
       style="fill:url(#radialGradient29);fill-opacity:1;fill-rule:evenodd;stroke:url(#radialGradient30);stroke-width:0.959106;stroke-dasharray:none;stroke-opacity:1"
       id="path7"
       d="m 209.29999,146.5 a 11.79999,11.79999 0 0 1 -11.76647,11.79994 11.79999,11.79999 0 0 1 -11.83332,-11.7329 11.79999,11.79999 0 0 1 11.69924,-11.8666 11.79999,11.79999 0 0 1 11.89979,11.66548" />
    <path
       style="fill:none;fill-rule:evenodd;stroke:#3f412a;stroke-width:5.44502;stroke-dasharray:none;stroke-opacity:0.123832"
       id="path8"
       d="M 529.16724,301 A 226.16724,228.16724 0 0 1 303.35641,529.16695 226.16724,228.16724 0 0 1 76.833887,301.71913 226.16724,228.16724 0 0 1 301.93077,72.835313 226.16724,228.16724 0 0 1 529.16274,299.56176" />
    <path
       style="fill:url(#radialGradient27);fill-opacity:1;fill-rule:evenodd;stroke:url(#radialGradient28);stroke-width:0.959106;stroke-dasharray:none;stroke-opacity:1"
       id="path9"
       d="m 535.29999,352.5 a 11.79999,11.79999 0 0 1 -11.76647,11.79994 11.79999,11.79999 0 0 1 -11.83332,-11.7329 11.79999,11.79999 0 0 1 11.69924,-11.8666 11.79999,11.79999 0 0 1 11.89979,11.66548" />
    <path
       style="fill:url(#radialGradient25);fill-opacity:1;fill-rule:evenodd;stroke:url(#radialGradient26);stroke-width:3.61471;stroke-dasharray:none;stroke-opacity:1"
       id="path10"
       d="m 443.97219,374.44495 a 44.472195,44.472195 0 0 1 -44.34586,44.47201 44.472195,44.472195 0 0 1 -44.59781,-44.21935 44.472195,44.472195 0 0 1 44.09248,-44.72324 44.472195,44.472195 0 0 1 44.84832,43.96525" />
    <path
       style="fill:url(#radialGradient23);fill-opacity:1;fill-rule:evenodd;stroke:url(#radialGradient24);stroke-width:4.16145;stroke-dasharray:none;stroke-opacity:1"
       id="path11"
       d="m 265.69882,337.5 a 51.198822,51.198822 0 0 1 -51.05338,51.19862 51.198822,51.198822 0 0 1 -51.34344,-50.90774 51.198822,51.198822 0 0 1 50.76168,-51.48784 51.198822,51.198822 0 0 1 51.63184,50.6152" />
    <path
       style="fill:url(#radialGradient21);fill-opacity:1;fill-rule:evenodd;stroke:url(#radialGradient22);stroke-width:4.16145;stroke-dasharray:none;stroke-opacity:1"
       id="path12"
       d="m 313.69882,189.5 a 51.198822,51.198822 0 0 1 -51.05338,51.19862 51.198822,51.198822 0 0 1 -51.34344,-50.90774 51.198822,51.198822 0 0 1 50.76168,-51.48784 51.198822,51.198822 0 0 1 51.63184,50.6152" />
    <path
       style="fill:url(#radialGradient19);fill-opacity:1;fill-rule:evenodd;stroke:url(#radialGradient20);stroke-width:0.959106;stroke-dasharray:none;stroke-opacity:1"
       id="path13"
       d="m 103.29999,384.5 a 11.79999,11.79999 0 0 1 -11.766469,11.79994 11.79999,11.79999 0 0 1 -11.83332,-11.7329 11.79999,11.79999 0 0 1 11.699238,-11.8666 11.79999,11.79999 0 0 1 11.899791,11.66548" />
    <path
       style="fill:url(#radialGradient17);fill-opacity:1;fill-rule:evenodd;stroke:url(#radialGradient18);stroke-width:3.61471;stroke-dasharray:none;stroke-opacity:1"
       id="path14"
       d="m 337.97219,335.44489 a 44.472195,44.472195 0 0 1 -44.34586,44.47201 44.472195,44.472195 0 0 1 -44.59781,-44.21935 44.472195,44.472195 0 0 1 44.09248,-44.72324 44.472195,44.472195 0 0 1 44.84832,43.96525" />
    <path
       style="fill:url(#radialGradient15);fill-opacity:1;fill-rule:evenodd;stroke:url(#radialGradient16);stroke-width:4.16145;stroke-dasharray:none;stroke-opacity:1"
       id="path15"
       d="m 395.69882,267.5 a 51.198822,51.198822 0 0 1 -51.05338,51.19862 51.198822,51.198822 0 0 1 -51.34344,-50.90774 51.198822,51.198822 0 0 1 50.76168,-51.48784 51.198822,51.198822 0 0 1 51.63184,50.6152" />
    <path
       style="fill:url(#radialGradient41);fill-opacity:1;fill-rule:evenodd;stroke:url(#radialGradient42);stroke-width:0.959106;stroke-dasharray:none;stroke-opacity:1"
       id="path40"
       d="M 375.29999,84.5 A 11.79999,11.79999 0 0 1 363.53352,96.299942 11.79999,11.79999 0 0 1 351.7002,84.567041 11.79999,11.79999 0 0 1 363.39944,72.700439 11.79999,11.79999 0 0 1 375.29923,84.36592" />
    <path
       style="fill:url(#radialGradient43);fill-opacity:1;fill-rule:evenodd;stroke:url(#radialGradient44);stroke-width:3.61471;stroke-dasharray:none;stroke-opacity:1"
       id="path42"
       d="m 403.97219,182.44495 a 44.472195,44.472195 0 0 1 -44.34586,44.47201 44.472195,44.472195 0 0 1 -44.59781,-44.21935 44.472195,44.472195 0 0 1 44.09248,-44.72324 44.472195,44.472195 0 0 1 44.84832,43.96525" />
  </g>
</svg>
