<?xml version="1.0" encoding="UTF-8" standalone="no"?>
<!-- Created with Inkscape (http://www.inkscape.org/) -->

<svg
   width="457.77954"
   height="461.77954"
   viewBox="0 0 457.77954 461.77954"
   version="1.1"
   id="svg1"
   xmlns:xlink="http://www.w3.org/1999/xlink"
   xmlns="http://www.w3.org/2000/svg"
   xmlns:svg="http://www.w3.org/2000/svg">
  <defs
     id="defs1">
    <linearGradient
       id="linearGradient27">
      <stop
         style="stop-color:#000000;stop-opacity:1;"
         offset="0"
         id="stop27" />
      <stop
         style="stop-color:#000000;stop-opacity:0;"
         offset="1"
         id="stop28" />
    </linearGradient>
    <linearGradient
       id="linearGradient16">
      <stop
         style="stop-color:#ff00d2;stop-opacity:1;"
         offset="0"
         id="stop15" />
      <stop
         style="stop-color:#ff00fe;stop-opacity:0;"
         offset="1"
         id="stop16" />
    </linearGradient>
    <linearGradient
       id="linearGradient14">
      <stop
         style="stop-color:#ff0069;stop-opacity:1;"
         offset="0"
         id="stop13" />
      <stop
         style="stop-color:#ff00fe;stop-opacity:0;"
         offset="1"
         id="stop14" />
    </linearGradient>
    <linearGradient
       id="linearGradient12">
      <stop
         style="stop-color:#ff5700;stop-opacity:1;"
         offset="0"
         id="stop11" />
      <stop
         style="stop-color:#ffaf00;stop-opacity:0;"
         offset="1"
         id="stop12" />
    </linearGradient>
    <linearGradient
       id="linearGradient10">
      <stop
         style="stop-color:#ff9d00;stop-opacity:1;"
         offset="0"
         id="stop9" />
      <stop
         style="stop-color:#ffdb00;stop-opacity:0;"
         offset="1"
         id="stop10" />
    </linearGradient>
    <linearGradient
       id="linearGradient4">
      <stop
         style="stop-color:#000fff;stop-opacity:1;"
         offset="0"
         id="stop4" />
      <stop
         style="stop-color:#00a3ff;stop-opacity:0;"
         offset="1"
         id="stop5" />
    </linearGradient>
    <radialGradient
       xlink:href="#linearGradient14"
       id="radialGradient74"
       gradientUnits="userSpaceOnUse"
       gradientTransform="matrix(0.12688161,0,0,0.12688161,80.63983,621.02689)"
       cx="590"
       cy="184.99997"
       fx="590"
       fy="184.99997"
       r="96.779541" />
    <radialGradient
       xlink:href="#linearGradient16"
       id="radialGradient75"
       gradientUnits="userSpaceOnUse"
       gradientTransform="matrix(0.12688161,0,0,0.12688161,80.63983,621.02689)"
       cx="590"
       cy="184.99997"
       fx="590"
       fy="184.99997"
       r="96.779541" />
    <radialGradient
       xlink:href="#linearGradient4"
       id="radialGradient76"
       gradientUnits="userSpaceOnUse"
       gradientTransform="matrix(0.47819563,0,0,0.47819563,21.36458,592.97869)"
       cx="590"
       cy="184.99997"
       fx="590"
       fy="184.99997"
       r="96.779541" />
    <radialGradient
       xlink:href="#linearGradient4"
       id="radialGradient77"
       gradientUnits="userSpaceOnUse"
       gradientTransform="matrix(0.47819563,0,0,0.47819563,21.36458,592.97869)"
       cx="590"
       cy="184.99997"
       fx="590"
       fy="184.99997"
       r="96.779541" />
    <radialGradient
       xlink:href="#linearGradient12"
       id="radialGradient78"
       gradientUnits="userSpaceOnUse"
       gradientTransform="matrix(0.55052493,0,0,0.55052493,-31.30973,768.65284)"
       cx="590"
       cy="184.99997"
       fx="590"
       fy="184.99997"
       r="96.779541" />
    <radialGradient
       xlink:href="#linearGradient10"
       id="radialGradient79"
       gradientUnits="userSpaceOnUse"
       gradientTransform="matrix(0.55052493,0,0,0.55052493,-31.30973,768.65284)"
       cx="590"
       cy="184.99997"
       fx="590"
       fy="184.99997"
       r="96.779541" />
    <radialGradient
       xlink:href="#linearGradient14"
       id="radialGradient80"
       gradientUnits="userSpaceOnUse"
       gradientTransform="matrix(0.12688161,0,0,0.12688161,236.63983,936.02689)"
       cx="590"
       cy="184.99997"
       fx="590"
       fy="184.99997"
       r="96.779541" />
    <radialGradient
       xlink:href="#linearGradient16"
       id="radialGradient81"
       gradientUnits="userSpaceOnUse"
       gradientTransform="matrix(0.12688161,0,0,0.12688161,236.63983,936.02689)"
       cx="590"
       cy="184.99997"
       fx="590"
       fy="184.99997"
       r="96.779541" />
    <radialGradient
       xlink:href="#linearGradient12"
       id="radialGradient82"
       gradientUnits="userSpaceOnUse"
       gradientTransform="matrix(0.55052493,0,0,0.55052493,67.69027,623.65284)"
       cx="590"
       cy="184.99997"
       fx="590"
       fy="184.99997"
       r="96.779541" />
    <radialGradient
       xlink:href="#linearGradient10"
       id="radialGradient83"
       gradientUnits="userSpaceOnUse"
       gradientTransform="matrix(0.55052493,0,0,0.55052493,67.69027,623.65284)"
       cx="590"
       cy="184.99997"
       fx="590"
       fy="184.99997"
       r="96.779541" />
    <radialGradient
       xlink:href="#linearGradient4"
       id="radialGradient84"
       gradientUnits="userSpaceOnUse"
       gradientTransform="matrix(0.47819563,0,0,0.47819563,-76.63542,729.97869)"
       cx="590"
       cy="184.99997"
       fx="590"
       fy="184.99997"
       r="96.779541" />
    <radialGradient
       xlink:href="#linearGradient4"
       id="radialGradient85"
       gradientUnits="userSpaceOnUse"
       gradientTransform="matrix(0.47819563,0,0,0.47819563,-76.63542,729.97869)"
       cx="590"
       cy="184.99997"
       fx="590"
       fy="184.99997"
       r="96.779541" />
    <radialGradient
       xlink:href="#linearGradient14"
       id="radialGradient88"
       gradientUnits="userSpaceOnUse"
       gradientTransform="matrix(0.12688161,0,0,0.12688161,414.63983,641.02689)"
       cx="590"
       cy="184.99997"
       fx="590"
       fy="184.99997"
       r="96.779541" />
    <radialGradient
       xlink:href="#linearGradient16"
       id="radialGradient89"
       gradientUnits="userSpaceOnUse"
       gradientTransform="matrix(0.12688161,0,0,0.12688161,414.63983,641.02689)"
       cx="590"
       cy="184.99997"
       fx="590"
       fy="184.99997"
       r="96.779541" />
    <radialGradient
       xlink:href="#linearGradient4"
       id="radialGradient90"
       gradientUnits="userSpaceOnUse"
       gradientTransform="matrix(0.47819563,0,0,0.47819563,103.36458,737.97869)"
       cx="590"
       cy="184.99997"
       fx="590"
       fy="184.99997"
       r="96.779541" />
    <radialGradient
       xlink:href="#linearGradient4"
       id="radialGradient91"
       gradientUnits="userSpaceOnUse"
       gradientTransform="matrix(0.47819563,0,0,0.47819563,103.36458,737.97869)"
       cx="590"
       cy="184.99997"
       fx="590"
       fy="184.99997"
       r="96.779541" />
    <radialGradient
       xlink:href="#linearGradient12"
       id="radialGradient92"
       gradientUnits="userSpaceOnUse"
       gradientTransform="matrix(0.55052493,0,0,0.55052493,-26.30973,673.65284)"
       cx="590"
       cy="184.99997"
       fx="590"
       fy="184.99997"
       r="96.779541" />
    <radialGradient
       xlink:href="#linearGradient10"
       id="radialGradient93"
       gradientUnits="userSpaceOnUse"
       gradientTransform="matrix(0.55052493,0,0,0.55052493,-26.30973,673.65284)"
       cx="590"
       cy="184.99997"
       fx="590"
       fy="184.99997"
       r="96.779541" />
    <radialGradient
       xlink:href="#linearGradient12"
       id="radialGradient94"
       gradientUnits="userSpaceOnUse"
       gradientTransform="matrix(0.55052493,0,0,0.55052493,-116.30973,621.65284)"
       cx="590"
       cy="184.99997"
       fx="590"
       fy="184.99997"
       r="96.779541" />
    <radialGradient
       xlink:href="#linearGradient10"
       id="radialGradient95"
       gradientUnits="userSpaceOnUse"
       gradientTransform="matrix(0.55052493,0,0,0.55052493,-116.30973,621.65284)"
       cx="590"
       cy="184.99997"
       fx="590"
       fy="184.99997"
       r="96.779541" />
  </defs>
  <g
     id="layer1"
     transform="translate(-64.110229,-544.11023)">
    <path
       style="fill:url(#radialGradient84);fill-opacity:1;fill-rule:evenodd;stroke:url(#radialGradient85);stroke-width:3.61471;stroke-dasharray:none;stroke-opacity:1"
       id="path68"
       d="m 249.97219,818.44495 a 44.472195,44.472195 0 0 1 -44.34586,44.47201 44.472195,44.472195 0 0 1 -44.59781,-44.21935 44.472195,44.472195 0 0 1 44.09248,-44.72324 44.472195,44.472195 0 0 1 44.84832,43.96525" />
    <path
       style="fill:url(#radialGradient82);fill-opacity:1;fill-rule:evenodd;stroke:url(#radialGradient83);stroke-width:4.16145;stroke-dasharray:none;stroke-opacity:1"
       id="path69"
       d="m 443.69882,725.5 a 51.198822,51.198822 0 0 1 -51.05338,51.19862 51.198822,51.198822 0 0 1 -51.34344,-50.90774 51.198822,51.198822 0 0 1 50.76168,-51.48784 51.198822,51.198822 0 0 1 51.63184,50.6152" />
    <path
       style="fill:none;fill-rule:evenodd;stroke:#3f412a;stroke-width:5.44502;stroke-dasharray:none;stroke-opacity:0.123832"
       id="path70"
       d="M 483.16724,775 A 190.16724,190.16724 0 0 1 293.29968,965.167 190.16724,190.16724 0 0 1 102.83371,775.59936 190.16724,190.16724 0 0 1 292.10096,584.83489 a 190.16724,190.16724 0 0 1 191.0625,188.9664" />
    <path
       style="fill:url(#radialGradient80);fill-opacity:1;fill-rule:evenodd;stroke:url(#radialGradient81);stroke-width:0.959106;stroke-dasharray:none;stroke-opacity:1"
       id="path71"
       d="m 323.29999,959.5 a 11.79999,11.79999 0 0 1 -11.76647,11.79994 11.79999,11.79999 0 0 1 -11.83332,-11.7329 11.79999,11.79999 0 0 1 11.69924,-11.8666 11.79999,11.79999 0 0 1 11.89979,11.66548" />
    <path
       style="fill:url(#radialGradient78);fill-opacity:1;fill-rule:evenodd;stroke:url(#radialGradient79);stroke-width:4.16145;stroke-dasharray:none;stroke-opacity:1"
       id="path72"
       d="m 344.69882,870.5 a 51.198822,51.198822 0 0 1 -51.05338,51.19862 51.198822,51.198822 0 0 1 -51.34344,-50.90774 51.198822,51.198822 0 0 1 50.76168,-51.48784 51.198822,51.198822 0 0 1 51.63184,50.6152" />
    <path
       style="fill:url(#radialGradient76);fill-opacity:1;fill-rule:evenodd;stroke:url(#radialGradient77);stroke-width:3.61471;stroke-dasharray:none;stroke-opacity:1"
       id="path73"
       d="m 347.97219,681.44495 a 44.472195,44.472195 0 0 1 -44.34586,44.47201 44.472195,44.472195 0 0 1 -44.59781,-44.21935 44.472195,44.472195 0 0 1 44.09248,-44.72324 44.472195,44.472195 0 0 1 44.84832,43.96525" />
    <path
       style="fill:url(#radialGradient74);fill-opacity:1;fill-rule:evenodd;stroke:url(#radialGradient75);stroke-width:0.959106;stroke-dasharray:none;stroke-opacity:1"
       id="path74"
       d="m 167.29999,644.5 a 11.79999,11.79999 0 0 1 -11.76647,11.79994 11.79999,11.79999 0 0 1 -11.83332,-11.7329 11.79999,11.79999 0 0 1 11.69924,-11.8666 11.79999,11.79999 0 0 1 11.89979,11.66548" />
    <path
       style="fill:none;fill-rule:evenodd;stroke:#3f412a;stroke-width:5.44502;stroke-dasharray:none;stroke-opacity:0.123832"
       id="path87"
       d="M 519.16724,775 A 226.16724,228.16724 0 0 1 293.35641,1003.167 226.16724,228.16724 0 0 1 66.833887,775.71913 226.16724,228.16724 0 0 1 291.93077,546.83531 226.16724,228.16724 0 0 1 519.16274,773.56176" />
    <path
       style="fill:url(#radialGradient88);fill-opacity:1;fill-rule:evenodd;stroke:url(#radialGradient89);stroke-width:0.959106;stroke-dasharray:none;stroke-opacity:1"
       id="path88"
       d="m 501.29999,664.5 a 11.79999,11.79999 0 0 1 -11.76647,11.79994 11.79999,11.79999 0 0 1 -11.83332,-11.7329 11.79999,11.79999 0 0 1 11.69924,-11.8666 11.79999,11.79999 0 0 1 11.89979,11.66548" />
    <path
       style="fill:url(#radialGradient90);fill-opacity:1;fill-rule:evenodd;stroke:url(#radialGradient91);stroke-width:3.61471;stroke-dasharray:none;stroke-opacity:1"
       id="path89"
       d="m 429.97219,826.44495 a 44.472195,44.472195 0 0 1 -44.34586,44.47201 44.472195,44.472195 0 0 1 -44.59781,-44.21935 44.472195,44.472195 0 0 1 44.09248,-44.72324 44.472195,44.472195 0 0 1 44.84832,43.96525" />
    <path
       style="fill:url(#radialGradient92);fill-opacity:1;fill-rule:evenodd;stroke:url(#radialGradient93);stroke-width:4.16145;stroke-dasharray:none;stroke-opacity:1"
       id="path91"
       d="m 349.69882,775.5 a 51.198822,51.198822 0 0 1 -51.05338,51.19862 51.198822,51.198822 0 0 1 -51.34344,-50.90774 51.198822,51.198822 0 0 1 50.76168,-51.48784 51.198822,51.198822 0 0 1 51.63184,50.6152" />
    <path
       style="fill:url(#radialGradient94);fill-opacity:1;fill-rule:evenodd;stroke:url(#radialGradient95);stroke-width:4.16145;stroke-dasharray:none;stroke-opacity:1"
       id="path93"
       d="m 259.69882,723.5 a 51.198822,51.198822 0 0 1 -51.05338,51.19862 51.198822,51.198822 0 0 1 -51.34344,-50.90774 51.198822,51.198822 0 0 1 50.76168,-51.48784 51.198822,51.198822 0 0 1 51.63184,50.6152" />
  </g>
</svg>
