<?xml version="1.0" encoding="UTF-8" standalone="no"?>
<!-- Created with Inkscape (http://www.inkscape.org/) -->

<svg
   width="463.66931"
   height="461.77954"
   viewBox="0 0 463.66931 461.77954"
   version="1.1"
   id="svg1"
   xmlns:xlink="http://www.w3.org/1999/xlink"
   xmlns="http://www.w3.org/2000/svg"
   xmlns:svg="http://www.w3.org/2000/svg">
  <defs
     id="defs1">
    <linearGradient
       id="linearGradient27">
      <stop
         style="stop-color:#000000;stop-opacity:1;"
         offset="0"
         id="stop27" />
      <stop
         style="stop-color:#000000;stop-opacity:0;"
         offset="1"
         id="stop28" />
    </linearGradient>
    <linearGradient
       id="linearGradient16">
      <stop
         style="stop-color:#ff00d2;stop-opacity:1;"
         offset="0"
         id="stop15" />
      <stop
         style="stop-color:#ff00fe;stop-opacity:0;"
         offset="1"
         id="stop16" />
    </linearGradient>
    <linearGradient
       id="linearGradient14">
      <stop
         style="stop-color:#ff0069;stop-opacity:1;"
         offset="0"
         id="stop13" />
      <stop
         style="stop-color:#ff00fe;stop-opacity:0;"
         offset="1"
         id="stop14" />
    </linearGradient>
    <linearGradient
       id="linearGradient12">
      <stop
         style="stop-color:#ff5700;stop-opacity:1;"
         offset="0"
         id="stop11" />
      <stop
         style="stop-color:#ffaf00;stop-opacity:0;"
         offset="1"
         id="stop12" />
    </linearGradient>
    <linearGradient
       id="linearGradient10">
      <stop
         style="stop-color:#ff9d00;stop-opacity:1;"
         offset="0"
         id="stop9" />
      <stop
         style="stop-color:#ffdb00;stop-opacity:0;"
         offset="1"
         id="stop10" />
    </linearGradient>
    <linearGradient
       id="linearGradient4">
      <stop
         style="stop-color:#000fff;stop-opacity:1;"
         offset="0"
         id="stop4" />
      <stop
         style="stop-color:#00a3ff;stop-opacity:0;"
         offset="1"
         id="stop5" />
    </linearGradient>
    <radialGradient
       xlink:href="#linearGradient12"
       id="radialGradient174"
       gradientUnits="userSpaceOnUse"
       gradientTransform="matrix(0.55052493,0,0,0.55052493,63.69027,623.65284)"
       cx="590"
       cy="184.99997"
       fx="590"
       fy="184.99997"
       r="96.779541" />
    <radialGradient
       xlink:href="#linearGradient10"
       id="radialGradient175"
       gradientUnits="userSpaceOnUse"
       gradientTransform="matrix(0.55052493,0,0,0.55052493,63.69027,623.65284)"
       cx="590"
       cy="184.99997"
       fx="590"
       fy="184.99997"
       r="96.779541" />
    <radialGradient
       xlink:href="#linearGradient4"
       id="radialGradient176"
       gradientUnits="userSpaceOnUse"
       gradientTransform="matrix(0.47819563,0,0,0.47819563,71.36458,695.97869)"
       cx="590"
       cy="184.99997"
       fx="590"
       fy="184.99997"
       r="96.779541" />
    <radialGradient
       xlink:href="#linearGradient4"
       id="radialGradient177"
       gradientUnits="userSpaceOnUse"
       gradientTransform="matrix(0.47819563,0,0,0.47819563,71.36458,695.97869)"
       cx="590"
       cy="184.99997"
       fx="590"
       fy="184.99997"
       r="96.779541" />
    <radialGradient
       xlink:href="#linearGradient4"
       id="radialGradient178"
       gradientUnits="userSpaceOnUse"
       gradientTransform="matrix(0.47819563,0,0,0.47819563,47.36458,597.97869)"
       cx="590"
       cy="184.99997"
       fx="590"
       fy="184.99997"
       r="96.779541" />
    <radialGradient
       xlink:href="#linearGradient4"
       id="radialGradient179"
       gradientUnits="userSpaceOnUse"
       gradientTransform="matrix(0.47819563,0,0,0.47819563,47.36458,597.97869)"
       cx="590"
       cy="184.99997"
       fx="590"
       fy="184.99997"
       r="96.779541" />
    <radialGradient
       xlink:href="#linearGradient12"
       id="radialGradient180"
       gradientUnits="userSpaceOnUse"
       gradientTransform="matrix(0.55052493,0,0,0.55052493,-46.30973,671.65284)"
       cx="590"
       cy="184.99997"
       fx="590"
       fy="184.99997"
       r="96.779541" />
    <radialGradient
       xlink:href="#linearGradient10"
       id="radialGradient181"
       gradientUnits="userSpaceOnUse"
       gradientTransform="matrix(0.55052493,0,0,0.55052493,-46.30973,671.65284)"
       cx="590"
       cy="184.99997"
       fx="590"
       fy="184.99997"
       r="96.779541" />
    <radialGradient
       xlink:href="#linearGradient4"
       id="radialGradient182"
       gradientUnits="userSpaceOnUse"
       gradientTransform="matrix(0.47819563,0,0,0.47819563,-28.63542,756.97869)"
       cx="590"
       cy="184.99997"
       fx="590"
       fy="184.99997"
       r="96.779541" />
    <radialGradient
       xlink:href="#linearGradient4"
       id="radialGradient183"
       gradientUnits="userSpaceOnUse"
       gradientTransform="matrix(0.47819563,0,0,0.47819563,-28.63542,756.97869)"
       cx="590"
       cy="184.99997"
       fx="590"
       fy="184.99997"
       r="96.779541" />
    <radialGradient
       xlink:href="#linearGradient12"
       id="radialGradient184"
       gradientUnits="userSpaceOnUse"
       gradientTransform="matrix(0.55052493,0,0,0.55052493,-74.30973,583.65284)"
       cx="590"
       cy="184.99997"
       fx="590"
       fy="184.99997"
       r="96.779541" />
    <radialGradient
       xlink:href="#linearGradient10"
       id="radialGradient185"
       gradientUnits="userSpaceOnUse"
       gradientTransform="matrix(0.55052493,0,0,0.55052493,-74.30973,583.65284)"
       cx="590"
       cy="184.99997"
       fx="590"
       fy="184.99997"
       r="96.779541" />
    <radialGradient
       xlink:href="#linearGradient12"
       id="radialGradient186"
       gradientUnits="userSpaceOnUse"
       gradientTransform="matrix(0.55052493,0,0,0.55052493,-138.30973,755.65284)"
       cx="590"
       cy="184.99997"
       fx="590"
       fy="184.99997"
       r="96.779541" />
    <radialGradient
       xlink:href="#linearGradient10"
       id="radialGradient187"
       gradientUnits="userSpaceOnUse"
       gradientTransform="matrix(0.55052493,0,0,0.55052493,-138.30973,755.65284)"
       cx="590"
       cy="184.99997"
       fx="590"
       fy="184.99997"
       r="96.779541" />
    <radialGradient
       xlink:href="#linearGradient4"
       id="radialGradient188"
       gradientUnits="userSpaceOnUse"
       gradientTransform="matrix(0.47819563,0,0,0.47819563,113.36458,795.97869)"
       cx="590"
       cy="184.99997"
       fx="590"
       fy="184.99997"
       r="96.779541" />
    <radialGradient
       xlink:href="#linearGradient4"
       id="radialGradient189"
       gradientUnits="userSpaceOnUse"
       gradientTransform="matrix(0.47819563,0,0,0.47819563,113.36458,795.97869)"
       cx="590"
       cy="184.99997"
       fx="590"
       fy="184.99997"
       r="96.779541" />
    <radialGradient
       xlink:href="#linearGradient4"
       id="radialGradient190"
       gradientUnits="userSpaceOnUse"
       gradientTransform="matrix(0.47819563,0,0,0.47819563,-72.63542,648.97869)"
       cx="590"
       cy="184.99997"
       fx="590"
       fy="184.99997"
       r="96.779541" />
    <radialGradient
       xlink:href="#linearGradient4"
       id="radialGradient191"
       gradientUnits="userSpaceOnUse"
       gradientTransform="matrix(0.47819563,0,0,0.47819563,-72.63542,648.97869)"
       cx="590"
       cy="184.99997"
       fx="590"
       fy="184.99997"
       r="96.779541" />
    <radialGradient
       xlink:href="#linearGradient12"
       id="radialGradient192"
       gradientUnits="userSpaceOnUse"
       gradientTransform="matrix(0.55052493,0,0,0.55052493,0.69027,818.65284)"
       cx="590"
       cy="184.99997"
       fx="590"
       fy="184.99997"
       r="96.779541" />
    <radialGradient
       xlink:href="#linearGradient10"
       id="radialGradient193"
       gradientUnits="userSpaceOnUse"
       gradientTransform="matrix(0.55052493,0,0,0.55052493,0.69027,818.65284)"
       cx="590"
       cy="184.99997"
       fx="590"
       fy="184.99997"
       r="96.779541" />
    <radialGradient
       xlink:href="#linearGradient12"
       id="radialGradient194"
       gradientUnits="userSpaceOnUse"
       gradientTransform="matrix(0.55052493,0,0,0.55052493,85.69027,703.65284)"
       cx="590"
       cy="184.99997"
       fx="590"
       fy="184.99997"
       r="96.779541" />
    <radialGradient
       xlink:href="#linearGradient10"
       id="radialGradient195"
       gradientUnits="userSpaceOnUse"
       gradientTransform="matrix(0.55052493,0,0,0.55052493,85.69027,703.65284)"
       cx="590"
       cy="184.99997"
       fx="590"
       fy="184.99997"
       r="96.779541" />
    <radialGradient
       xlink:href="#linearGradient4"
       id="radialGradient196"
       gradientUnits="userSpaceOnUse"
       gradientTransform="matrix(0.47819563,0,0,0.47819563,-46.63542,837.97869)"
       cx="590"
       cy="184.99997"
       fx="590"
       fy="184.99997"
       r="96.779541" />
    <radialGradient
       xlink:href="#linearGradient4"
       id="radialGradient197"
       gradientUnits="userSpaceOnUse"
       gradientTransform="matrix(0.47819563,0,0,0.47819563,-46.63542,837.97869)"
       cx="590"
       cy="184.99997"
       fx="590"
       fy="184.99997"
       r="96.779541" />
    <radialGradient
       xlink:href="#linearGradient14"
       id="radialGradient198"
       gradientUnits="userSpaceOnUse"
       gradientTransform="matrix(0.12688161,0,0,0.12688161,350.63983,971.02689)"
       cx="590"
       cy="184.99997"
       fx="590"
       fy="184.99997"
       r="96.779541" />
    <radialGradient
       xlink:href="#linearGradient16"
       id="radialGradient199"
       gradientUnits="userSpaceOnUse"
       gradientTransform="matrix(0.12688161,0,0,0.12688161,350.63983,971.02689)"
       cx="590"
       cy="184.99997"
       fx="590"
       fy="184.99997"
       r="96.779541" />
    <radialGradient
       xlink:href="#linearGradient14"
       id="radialGradient200"
       gradientUnits="userSpaceOnUse"
       gradientTransform="matrix(0.12688161,0,0,0.12688161,14.63983,683.02689)"
       cx="590"
       cy="184.99997"
       fx="590"
       fy="184.99997"
       r="96.779541" />
    <radialGradient
       xlink:href="#linearGradient16"
       id="radialGradient201"
       gradientUnits="userSpaceOnUse"
       gradientTransform="matrix(0.12688161,0,0,0.12688161,14.63983,683.02689)"
       cx="590"
       cy="184.99997"
       fx="590"
       fy="184.99997"
       r="96.779541" />
    <radialGradient
       xlink:href="#linearGradient14"
       id="radialGradient202"
       gradientUnits="userSpaceOnUse"
       gradientTransform="matrix(0.12688161,0,0,0.12688161,56.63983,947.02689)"
       cx="590"
       cy="184.99997"
       fx="590"
       fy="184.99997"
       r="96.779541" />
    <radialGradient
       xlink:href="#linearGradient16"
       id="radialGradient203"
       gradientUnits="userSpaceOnUse"
       gradientTransform="matrix(0.12688161,0,0,0.12688161,56.63983,947.02689)"
       cx="590"
       cy="184.99997"
       fx="590"
       fy="184.99997"
       r="96.779541" />
    <radialGradient
       xlink:href="#linearGradient14"
       id="radialGradient204"
       gradientUnits="userSpaceOnUse"
       gradientTransform="matrix(0.12688161,0,0,0.12688161,306.63983,583.02689)"
       cx="590"
       cy="184.99997"
       fx="590"
       fy="184.99997"
       r="96.779541" />
    <radialGradient
       xlink:href="#linearGradient16"
       id="radialGradient205"
       gradientUnits="userSpaceOnUse"
       gradientTransform="matrix(0.12688161,0,0,0.12688161,306.63983,583.02689)"
       cx="590"
       cy="184.99997"
       fx="590"
       fy="184.99997"
       r="96.779541" />
    <radialGradient
       xlink:href="#linearGradient14"
       id="radialGradient206"
       gradientUnits="userSpaceOnUse"
       gradientTransform="matrix(0.12688161,0,0,0.12688161,216.63983,597.02689)"
       cx="590"
       cy="184.99997"
       fx="590"
       fy="184.99997"
       r="96.779541" />
    <radialGradient
       xlink:href="#linearGradient16"
       id="radialGradient207"
       gradientUnits="userSpaceOnUse"
       gradientTransform="matrix(0.12688161,0,0,0.12688161,216.63983,597.02689)"
       cx="590"
       cy="184.99997"
       fx="590"
       fy="184.99997"
       r="96.779541" />
    <radialGradient
       xlink:href="#linearGradient14"
       id="radialGradient208"
       gradientUnits="userSpaceOnUse"
       gradientTransform="matrix(0.12688161,0,0,0.12688161,236.63983,970.02689)"
       cx="590"
       cy="184.99997"
       fx="590"
       fy="184.99997"
       r="96.779541" />
    <radialGradient
       xlink:href="#linearGradient16"
       id="radialGradient209"
       gradientUnits="userSpaceOnUse"
       gradientTransform="matrix(0.12688161,0,0,0.12688161,236.63983,970.02689)"
       cx="590"
       cy="184.99997"
       fx="590"
       fy="184.99997"
       r="96.779541" />
    <radialGradient
       xlink:href="#linearGradient14"
       id="radialGradient210"
       gradientUnits="userSpaceOnUse"
       gradientTransform="matrix(0.12688161,0,0,0.12688161,438.63983,747.02689)"
       cx="590"
       cy="184.99997"
       fx="590"
       fy="184.99997"
       r="96.779541" />
    <radialGradient
       xlink:href="#linearGradient16"
       id="radialGradient211"
       gradientUnits="userSpaceOnUse"
       gradientTransform="matrix(0.12688161,0,0,0.12688161,438.63983,747.02689)"
       cx="590"
       cy="184.99997"
       fx="590"
       fy="184.99997"
       r="96.779541" />
    <radialGradient
       xlink:href="#linearGradient4"
       id="radialGradient212"
       gradientUnits="userSpaceOnUse"
       gradientTransform="matrix(0.47819563,0,0,0.47819563,-118.63542,708.97869)"
       cx="590"
       cy="184.99997"
       fx="590"
       fy="184.99997"
       r="96.779541" />
    <radialGradient
       xlink:href="#linearGradient4"
       id="radialGradient213"
       gradientUnits="userSpaceOnUse"
       gradientTransform="matrix(0.47819563,0,0,0.47819563,-118.63542,708.97869)"
       cx="590"
       cy="184.99997"
       fx="590"
       fy="184.99997"
       r="96.779541" />
    <radialGradient
       xlink:href="#linearGradient12"
       id="radialGradient214"
       gradientUnits="userSpaceOnUse"
       gradientTransform="matrix(0.55052493,0,0,0.55052493,5.69027,741.65284)"
       cx="590"
       cy="184.99997"
       fx="590"
       fy="184.99997"
       r="96.779541" />
    <radialGradient
       xlink:href="#linearGradient10"
       id="radialGradient215"
       gradientUnits="userSpaceOnUse"
       gradientTransform="matrix(0.55052493,0,0,0.55052493,5.69027,741.65284)"
       cx="590"
       cy="184.99997"
       fx="590"
       fy="184.99997"
       r="96.779541" />
  </defs>
  <g
     id="layer1"
     transform="translate(-62.110229,-578.11023)">
    <path
       style="fill:none;fill-rule:evenodd;stroke:#3f412a;stroke-width:5.44502;stroke-dasharray:none;stroke-opacity:0.123832"
       id="path155"
       d="M 481.16724,809 A 190.16724,190.16724 0 0 1 291.29968,999.167 190.16724,190.16724 0 0 1 100.83371,809.59936 190.16724,190.16724 0 0 1 290.10096,618.83489 a 190.16724,190.16724 0 0 1 191.0625,188.9664" />
    <path
       style="fill:url(#radialGradient208);fill-opacity:1;fill-rule:evenodd;stroke:url(#radialGradient209);stroke-width:0.959106;stroke-dasharray:none;stroke-opacity:1"
       id="path156"
       d="m 323.29999,993.5 a 11.79999,11.79999 0 0 1 -11.76647,11.7999 11.79999,11.79999 0 0 1 -11.83332,-11.73286 11.79999,11.79999 0 0 1 11.69924,-11.8666 11.79999,11.79999 0 0 1 11.89979,11.66548" />
    <path
       style="fill:url(#radialGradient206);fill-opacity:1;fill-rule:evenodd;stroke:url(#radialGradient207);stroke-width:0.959106;stroke-dasharray:none;stroke-opacity:1"
       id="path157"
       d="m 303.29999,620.5 a 11.79999,11.79999 0 0 1 -11.76647,11.79994 11.79999,11.79999 0 0 1 -11.83332,-11.7329 11.79999,11.79999 0 0 1 11.69924,-11.8666 11.79999,11.79999 0 0 1 11.89979,11.66548" />
    <path
       style="fill:none;fill-rule:evenodd;stroke:#3f412a;stroke-width:5.44502;stroke-dasharray:none;stroke-opacity:0.123832"
       id="path158"
       d="M 517.16724,809 A 226.16724,228.16724 0 0 1 291.35641,1037.167 226.16724,228.16724 0 0 1 64.833887,809.71913 226.16724,228.16724 0 0 1 289.93077,580.83531 226.16724,228.16724 0 0 1 517.16274,807.56176" />
    <path
       style="fill:url(#radialGradient204);fill-opacity:1;fill-rule:evenodd;stroke:url(#radialGradient205);stroke-width:0.959106;stroke-dasharray:none;stroke-opacity:1"
       id="path159"
       d="m 393.29999,606.5 a 11.79999,11.79999 0 0 1 -11.76647,11.79994 11.79999,11.79999 0 0 1 -11.83332,-11.7329 11.79999,11.79999 0 0 1 11.69924,-11.8666 11.79999,11.79999 0 0 1 11.89979,11.66548" />
    <path
       style="fill:url(#radialGradient202);fill-opacity:1;fill-rule:evenodd;stroke:url(#radialGradient203);stroke-width:0.959106;stroke-dasharray:none;stroke-opacity:1"
       id="path160"
       d="m 143.29999,970.5 a 11.79999,11.79999 0 0 1 -11.76647,11.79994 11.79999,11.79999 0 0 1 -11.83332,-11.7329 11.79999,11.79999 0 0 1 11.69924,-11.8666 11.79999,11.79999 0 0 1 11.89979,11.66548" />
    <path
       style="fill:url(#radialGradient200);fill-opacity:1;fill-rule:evenodd;stroke:url(#radialGradient201);stroke-width:0.959106;stroke-dasharray:none;stroke-opacity:1"
       id="path161"
       d="m 101.29999,706.5 a 11.79999,11.79999 0 0 1 -11.766469,11.79994 11.79999,11.79999 0 0 1 -11.83332,-11.7329 11.79999,11.79999 0 0 1 11.699238,-11.8666 11.79999,11.79999 0 0 1 11.899791,11.66548" />
    <path
       style="fill:url(#radialGradient198);fill-opacity:1;fill-rule:evenodd;stroke:url(#radialGradient199);stroke-width:0.959106;stroke-dasharray:none;stroke-opacity:1"
       id="path162"
       d="m 437.29999,994.5 a 11.79999,11.79999 0 0 1 -11.76647,11.7999 11.79999,11.79999 0 0 1 -11.83332,-11.73286 11.79999,11.79999 0 0 1 11.69924,-11.8666 11.79999,11.79999 0 0 1 11.89979,11.66548" />
    <path
       style="fill:url(#radialGradient196);fill-opacity:1;fill-rule:evenodd;stroke:url(#radialGradient197);stroke-width:3.61471;stroke-dasharray:none;stroke-opacity:1"
       id="path163"
       d="m 279.97219,926.44495 a 44.472195,44.472195 0 0 1 -44.34586,44.47201 44.472195,44.472195 0 0 1 -44.59781,-44.21935 44.472195,44.472195 0 0 1 44.09248,-44.72324 44.472195,44.472195 0 0 1 44.84832,43.96525" />
    <path
       style="fill:url(#radialGradient194);fill-opacity:1;fill-rule:evenodd;stroke:url(#radialGradient195);stroke-width:4.16145;stroke-dasharray:none;stroke-opacity:1"
       id="path164"
       d="m 461.69882,805.5 a 51.198822,51.198822 0 0 1 -51.05338,51.19862 51.198822,51.198822 0 0 1 -51.34344,-50.90774 51.198822,51.198822 0 0 1 50.76168,-51.48784 51.198822,51.198822 0 0 1 51.63184,50.6152" />
    <path
       style="fill:url(#radialGradient192);fill-opacity:1;fill-rule:evenodd;stroke:url(#radialGradient193);stroke-width:4.16145;stroke-dasharray:none;stroke-opacity:1"
       id="path165"
       d="m 376.69882,920.5 a 51.198822,51.198822 0 0 1 -51.05338,51.19862 51.198822,51.198822 0 0 1 -51.34344,-50.90774 51.198822,51.198822 0 0 1 50.76168,-51.48784 51.198822,51.198822 0 0 1 51.63184,50.6152" />
    <path
       style="fill:url(#radialGradient190);fill-opacity:1;fill-rule:evenodd;stroke:url(#radialGradient191);stroke-width:3.61471;stroke-dasharray:none;stroke-opacity:1"
       id="path166"
       d="m 253.97219,737.44495 a 44.472195,44.472195 0 0 1 -44.34586,44.47201 44.472195,44.472195 0 0 1 -44.59781,-44.21935 44.472195,44.472195 0 0 1 44.09248,-44.72324 44.472195,44.472195 0 0 1 44.84832,43.96525" />
    <path
       style="fill:url(#radialGradient188);fill-opacity:1;fill-rule:evenodd;stroke:url(#radialGradient189);stroke-width:3.61471;stroke-dasharray:none;stroke-opacity:1"
       id="path167"
       d="m 439.97219,884.44495 a 44.472195,44.472195 0 0 1 -44.34586,44.47201 44.472195,44.472195 0 0 1 -44.59781,-44.21935 44.472195,44.472195 0 0 1 44.09248,-44.72324 44.472195,44.472195 0 0 1 44.84832,43.96525" />
    <path
       style="fill:url(#radialGradient186);fill-opacity:1;fill-rule:evenodd;stroke:url(#radialGradient187);stroke-width:4.16145;stroke-dasharray:none;stroke-opacity:1"
       id="path168"
       d="m 237.69882,857.5 a 51.198822,51.198822 0 0 1 -51.05338,51.19862 51.198822,51.198822 0 0 1 -51.34344,-50.90774 51.198822,51.198822 0 0 1 50.76168,-51.48784 51.198822,51.198822 0 0 1 51.63184,50.6152" />
    <path
       style="fill:url(#radialGradient184);fill-opacity:1;fill-rule:evenodd;stroke:url(#radialGradient185);stroke-width:4.16145;stroke-dasharray:none;stroke-opacity:1"
       id="path169"
       d="m 301.69882,685.5 a 51.198822,51.198822 0 0 1 -51.05338,51.19862 51.198822,51.198822 0 0 1 -51.34344,-50.90774 51.198822,51.198822 0 0 1 50.76168,-51.48784 51.198822,51.198822 0 0 1 51.63184,50.6152" />
    <path
       style="fill:url(#radialGradient182);fill-opacity:1;fill-rule:evenodd;stroke:url(#radialGradient183);stroke-width:3.61471;stroke-dasharray:none;stroke-opacity:1"
       id="path170"
       d="m 297.97219,845.44489 a 44.472195,44.472195 0 0 1 -44.34586,44.47201 44.472195,44.472195 0 0 1 -44.59781,-44.21935 44.472195,44.472195 0 0 1 44.09248,-44.72324 44.472195,44.472195 0 0 1 44.84832,43.96525" />
    <path
       style="fill:url(#radialGradient180);fill-opacity:1;fill-rule:evenodd;stroke:url(#radialGradient181);stroke-width:4.16145;stroke-dasharray:none;stroke-opacity:1"
       id="path171"
       d="m 329.69882,773.5 a 51.198822,51.198822 0 0 1 -51.05338,51.19862 51.198822,51.198822 0 0 1 -51.34344,-50.90774 51.198822,51.198822 0 0 1 50.76168,-51.48784 51.198822,51.198822 0 0 1 51.63184,50.6152" />
    <path
       style="fill:url(#radialGradient178);fill-opacity:1;fill-rule:evenodd;stroke:url(#radialGradient179);stroke-width:3.61471;stroke-dasharray:none;stroke-opacity:1"
       id="path172"
       d="m 373.97219,686.44495 a 44.472195,44.472195 0 0 1 -44.34586,44.47201 44.472195,44.472195 0 0 1 -44.59781,-44.21935 44.472195,44.472195 0 0 1 44.09248,-44.72324 44.472195,44.472195 0 0 1 44.84832,43.96525" />
    <path
       style="fill:url(#radialGradient176);fill-opacity:1;fill-rule:evenodd;stroke:url(#radialGradient177);stroke-width:3.61471;stroke-dasharray:none;stroke-opacity:1"
       id="path173"
       d="m 397.97219,784.44495 a 44.472195,44.472195 0 0 1 -44.34586,44.47201 44.472195,44.472195 0 0 1 -44.59781,-44.21935 44.472195,44.472195 0 0 1 44.09248,-44.72324 44.472195,44.472195 0 0 1 44.84832,43.96525" />
    <path
       style="fill:url(#radialGradient174);fill-opacity:1;fill-rule:evenodd;stroke:url(#radialGradient175);stroke-width:4.16145;stroke-dasharray:none;stroke-opacity:1"
       id="path174"
       d="m 439.69882,725.5 a 51.198822,51.198822 0 0 1 -51.05338,51.19862 51.198822,51.198822 0 0 1 -51.34344,-50.90774 51.198822,51.198822 0 0 1 50.76168,-51.48784 51.198822,51.198822 0 0 1 51.63184,50.6152" />
    <path
       style="fill:url(#radialGradient210);fill-opacity:1;fill-rule:evenodd;stroke:url(#radialGradient211);stroke-width:0.959106;stroke-dasharray:none;stroke-opacity:1"
       id="path209"
       d="m 525.29999,770.5 a 11.79999,11.79999 0 0 1 -11.76647,11.79994 11.79999,11.79999 0 0 1 -11.83332,-11.7329 11.79999,11.79999 0 0 1 11.69924,-11.8666 11.79999,11.79999 0 0 1 11.89979,11.66548" />
    <path
       style="fill:url(#radialGradient212);fill-opacity:1;fill-rule:evenodd;stroke:url(#radialGradient213);stroke-width:3.61471;stroke-dasharray:none;stroke-opacity:1"
       id="path211"
       d="m 207.97219,797.44495 a 44.472195,44.472195 0 0 1 -44.34586,44.47201 44.472195,44.472195 0 0 1 -44.59781,-44.21935 44.472195,44.472195 0 0 1 44.09248,-44.72324 44.472195,44.472195 0 0 1 44.84832,43.96525" />
    <path
       style="fill:url(#radialGradient214);fill-opacity:1;fill-rule:evenodd;stroke:url(#radialGradient215);stroke-width:4.16145;stroke-dasharray:none;stroke-opacity:1"
       id="path213"
       d="m 381.69882,843.5 a 51.198822,51.198822 0 0 1 -51.05338,51.19862 51.198822,51.198822 0 0 1 -51.34344,-50.90774 51.198822,51.198822 0 0 1 50.76168,-51.48784 51.198822,51.198822 0 0 1 51.63184,50.6152" />
  </g>
</svg>
