<?xml version="1.0" encoding="UTF-8" standalone="no"?>
<!-- Created with Inkscape (http://www.inkscape.org/) -->

<svg
   width="484.19653"
   height="482.01385"
   viewBox="0 0 484.19653 482.01385"
   version="1.1"
   id="svg1"
   xmlns:xlink="http://www.w3.org/1999/xlink"
   xmlns="http://www.w3.org/2000/svg"
   xmlns:svg="http://www.w3.org/2000/svg">
  <defs
     id="defs1">
    <linearGradient
       id="linearGradient39">
      <stop
         style="stop-color:#020402;stop-opacity:0.57210404;"
         offset="0"
         id="stop40" />
      <stop
         style="stop-color:#f1ab2c;stop-opacity:0.91182365;"
         offset="1"
         id="stop39" />
    </linearGradient>
    <linearGradient
       id="linearGradient22">
      <stop
         style="stop-color:#367471;stop-opacity:0.87943262;"
         offset="0.00173913"
         id="stop21" />
      <stop
         style="stop-color:#7ceae5;stop-opacity:0.61938536;"
         offset="1"
         id="stop22" />
    </linearGradient>
    <linearGradient
       id="linearGradient20">
      <stop
         style="stop-color:#8806ce;stop-opacity:0.82978725;"
         offset="0"
         id="stop20" />
      <stop
         style="stop-color:#d6a3f1;stop-opacity:0.70921987;"
         offset="1"
         id="stop19" />
    </linearGradient>
    <linearGradient
       id="linearGradient27">
      <stop
         style="stop-color:#000000;stop-opacity:1;"
         offset="0"
         id="stop27" />
      <stop
         style="stop-color:#000000;stop-opacity:0;"
         offset="1"
         id="stop28" />
    </linearGradient>
    <linearGradient
       id="linearGradient10">
      <stop
         style="stop-color:#ff9d00;stop-opacity:1;"
         offset="0"
         id="stop9" />
      <stop
         style="stop-color:#ffdb00;stop-opacity:0;"
         offset="1"
         id="stop10" />
    </linearGradient>
    <linearGradient
       id="linearGradient4">
      <stop
         style="stop-color:#000fff;stop-opacity:1;"
         offset="0"
         id="stop4" />
      <stop
         style="stop-color:#00a3ff;stop-opacity:0;"
         offset="1"
         id="stop5" />
    </linearGradient>
    <radialGradient
       xlink:href="#linearGradient20"
       id="radialGradient162"
       gradientUnits="userSpaceOnUse"
       gradientTransform="matrix(0.36129377,0,0,0.36129377,561.6249,762.86806)"
       cx="590"
       cy="184.99997"
       fx="590"
       fy="184.99997"
       r="96.779541" />
    <radialGradient
       xlink:href="#linearGradient4"
       id="radialGradient163"
       gradientUnits="userSpaceOnUse"
       gradientTransform="matrix(0.36129377,0,0,0.36129377,561.6249,762.86806)"
       cx="590"
       cy="184.99997"
       fx="590"
       fy="184.99997"
       r="96.779541" />
    <radialGradient
       xlink:href="#linearGradient39"
       id="radialGradient164"
       gradientUnits="userSpaceOnUse"
       gradientTransform="translate(270.11479,705.69255)"
       cx="296.5"
       cy="70.5"
       fx="296.5"
       fy="70.5"
       r="12.799991" />
    <radialGradient
       xlink:href="#linearGradient39"
       id="radialGradient165"
       gradientUnits="userSpaceOnUse"
       gradientTransform="translate(506.28846,881.05504)"
       cx="296.5"
       cy="70.5"
       fx="296.5"
       fy="70.5"
       r="12.799991" />
    <radialGradient
       xlink:href="#linearGradient22"
       id="radialGradient166"
       gradientUnits="userSpaceOnUse"
       gradientTransform="matrix(0.38978489,0,0,0.38978489,489.11773,703.73202)"
       cx="590"
       cy="184.99997"
       fx="590"
       fy="184.99997"
       r="96.779541" />
    <radialGradient
       xlink:href="#linearGradient10"
       id="radialGradient167"
       gradientUnits="userSpaceOnUse"
       gradientTransform="matrix(0.38978489,0,0,0.38978489,489.11773,703.73202)"
       cx="590"
       cy="184.99997"
       fx="590"
       fy="184.99997"
       r="96.779541" />
    <radialGradient
       xlink:href="#linearGradient22"
       id="radialGradient168"
       gradientUnits="userSpaceOnUse"
       gradientTransform="matrix(0.38978489,0,0,0.38978489,605.08324,777.27113)"
       cx="590"
       cy="184.99997"
       fx="590"
       fy="184.99997"
       r="96.779541" />
    <radialGradient
       xlink:href="#linearGradient10"
       id="radialGradient169"
       gradientUnits="userSpaceOnUse"
       gradientTransform="matrix(0.38978489,0,0,0.38978489,605.08324,777.27113)"
       cx="590"
       cy="184.99997"
       fx="590"
       fy="184.99997"
       r="96.779541" />
    <radialGradient
       xlink:href="#linearGradient22"
       id="radialGradient170"
       gradientUnits="userSpaceOnUse"
       gradientTransform="matrix(0.38978489,0,0,0.38978489,646.09542,651.40612)"
       cx="590"
       cy="184.99997"
       fx="590"
       fy="184.99997"
       r="96.779541" />
    <radialGradient
       xlink:href="#linearGradient10"
       id="radialGradient171"
       gradientUnits="userSpaceOnUse"
       gradientTransform="matrix(0.38978489,0,0,0.38978489,646.09542,651.40612)"
       cx="590"
       cy="184.99997"
       fx="590"
       fy="184.99997"
       r="96.779541" />
    <radialGradient
       xlink:href="#linearGradient20"
       id="radialGradient172"
       gradientUnits="userSpaceOnUse"
       gradientTransform="matrix(0.36129377,0,0,0.36129377,660.61985,711.95638)"
       cx="590"
       cy="184.99997"
       fx="590"
       fy="184.99997"
       r="96.779541" />
    <radialGradient
       xlink:href="#linearGradient4"
       id="radialGradient173"
       gradientUnits="userSpaceOnUse"
       gradientTransform="matrix(0.36129377,0,0,0.36129377,660.61985,711.95638)"
       cx="590"
       cy="184.99997"
       fx="590"
       fy="184.99997"
       r="96.779541" />
    <radialGradient
       xlink:href="#linearGradient20"
       id="radialGradient174"
       gradientUnits="userSpaceOnUse"
       gradientTransform="matrix(0.36129377,0,0,0.36129377,500.81372,645.48836)"
       cx="590"
       cy="184.99997"
       fx="590"
       fy="184.99997"
       r="96.779541" />
    <radialGradient
       xlink:href="#linearGradient4"
       id="radialGradient175"
       gradientUnits="userSpaceOnUse"
       gradientTransform="matrix(0.36129377,0,0,0.36129377,500.81372,645.48836)"
       cx="590"
       cy="184.99997"
       fx="590"
       fy="184.99997"
       r="96.779541" />
    <radialGradient
       xlink:href="#linearGradient39"
       id="radialGradient176"
       gradientUnits="userSpaceOnUse"
       gradientTransform="translate(497.80317,504.87423)"
       cx="296.5"
       cy="70.5"
       fx="296.5"
       fy="70.5"
       r="12.799991" />
    <radialGradient
       xlink:href="#linearGradient22"
       id="radialGradient177"
       gradientUnits="userSpaceOnUse"
       gradientTransform="matrix(0.38978489,0,0,0.38978489,558.41419,604.73708)"
       cx="590"
       cy="184.99997"
       fx="590"
       fy="184.99997"
       r="96.779541" />
    <radialGradient
       xlink:href="#linearGradient10"
       id="radialGradient178"
       gradientUnits="userSpaceOnUse"
       gradientTransform="matrix(0.38978489,0,0,0.38978489,558.41419,604.73708)"
       cx="590"
       cy="184.99997"
       fx="590"
       fy="184.99997"
       r="96.779541" />
    <radialGradient
       xlink:href="#linearGradient20"
       id="radialGradient179"
       gradientUnits="userSpaceOnUse"
       gradientTransform="matrix(0.36129377,0,0,0.36129377,585.66654,652.55941)"
       cx="590"
       cy="184.99997"
       fx="590"
       fy="184.99997"
       r="96.779541" />
    <radialGradient
       xlink:href="#linearGradient4"
       id="radialGradient180"
       gradientUnits="userSpaceOnUse"
       gradientTransform="matrix(0.36129377,0,0,0.36129377,585.66654,652.55941)"
       cx="590"
       cy="184.99997"
       fx="590"
       fy="184.99997"
       r="96.779541" />
    <radialGradient
       xlink:href="#linearGradient22"
       id="radialGradient181"
       gradientUnits="userSpaceOnUse"
       gradientTransform="matrix(0.38978489,0,0,0.38978489,579.62738,691.0041)"
       cx="590"
       cy="184.99997"
       fx="590"
       fy="184.99997"
       r="96.779541" />
    <radialGradient
       xlink:href="#linearGradient10"
       id="radialGradient182"
       gradientUnits="userSpaceOnUse"
       gradientTransform="matrix(0.38978489,0,0,0.38978489,579.62738,691.0041)"
       cx="590"
       cy="184.99997"
       fx="590"
       fy="184.99997"
       r="96.779541" />
    <radialGradient
       xlink:href="#linearGradient39"
       id="radialGradient183"
       gradientUnits="userSpaceOnUse"
       gradientTransform="translate(726.90577,702.86412)"
       cx="296.5"
       cy="70.5"
       fx="296.5"
       fy="70.5"
       r="12.799991" />
  </defs>
  <g
     id="layer1"
     transform="translate(-552.00916,-521.78687)">
    <path
       style="fill:#ffcd47;fill-opacity:0.607843;fill-rule:evenodd;stroke:#bc8b07;stroke-width:17.1129;stroke-dasharray:1.71129, 1.71129;stroke-dashoffset:0;stroke-opacity:0.341176"
       id="path151"
       d="M 1025.4675,762.79462 A 232.45152,232.45152 0 0 1 793.38231,995.24585 232.45152,232.45152 0 0 1 560.56562,763.52725 232.45152,232.45152 0 0 1 791.91705,530.34569 232.45152,232.45152 0 0 1 1025.4629,761.32937" />
    <path
       style="fill:#ffcd47;fill-opacity:0.607843;fill-rule:evenodd;stroke:#bc8b07;stroke-width:14;stroke-dasharray:1.4, 1.4;stroke-dashoffset:0;stroke-opacity:0.341176"
       id="path152"
       d="M 983.18335,762.79449 A 190.16724,190.16724 0 0 1 793.31579,952.96149 190.16724,190.16724 0 0 1 602.84982,763.39385 190.16724,190.16724 0 0 1 792.11708,572.62938 190.16724,190.16724 0 0 1 983.17957,761.59578" />
    <path
       style="fill:url(#radialGradient177);fill-opacity:1;fill-rule:evenodd;stroke:url(#radialGradient178);stroke-width:2.94641;stroke-dasharray:none;stroke-opacity:1"
       id="path153"
       d="m 824.63726,676.84729 a 36.249996,36.249996 0 0 1 -36.14701,36.24985 36.249996,36.249996 0 0 1 -36.35239,-36.0439 36.249996,36.249996 0 0 1 35.94048,-36.45463 36.249996,36.249996 0 0 1 36.55658,35.83678" />
    <path
       style="fill:url(#radialGradient176);fill-opacity:0.911824;fill-rule:evenodd;stroke:#fefe29;stroke-width:2;stroke-dasharray:none;stroke-opacity:0.771543"
       id="path154"
       d="m 806.10315,575.37427 a 11.79999,11.79999 0 0 1 -11.76647,11.79994 11.79999,11.79999 0 0 1 -11.83332,-11.7329 11.79999,11.79999 0 0 1 11.69924,-11.8666 11.79999,11.79999 0 0 1 11.89979,11.66548" />
    <path
       style="fill:url(#radialGradient174);fill-opacity:1;fill-rule:evenodd;stroke:url(#radialGradient175);stroke-width:2.73104;stroke-dasharray:none;stroke-opacity:1"
       id="path155"
       d="m 747.57743,712.32776 a 33.600323,33.600323 0 0 1 -33.50487,33.60019 33.600323,33.600323 0 0 1 -33.69523,-33.40929 33.600323,33.600323 0 0 1 33.31343,-33.79 33.600323,33.600323 0 0 1 33.88451,33.21731" />
    <path
       style="fill:url(#radialGradient172);fill-opacity:1;fill-rule:evenodd;stroke:url(#radialGradient173);stroke-width:2.73104;stroke-dasharray:none;stroke-opacity:1"
       id="path156"
       d="m 907.38353,778.79578 a 33.600323,33.600323 0 0 1 -33.50488,33.60018 33.600323,33.600323 0 0 1 -33.69523,-33.40928 33.600323,33.600323 0 0 1 33.31344,-33.79001 33.600323,33.600323 0 0 1 33.8845,33.21731" />
    <path
       style="fill:url(#radialGradient170);fill-opacity:1;fill-rule:evenodd;stroke:url(#radialGradient171);stroke-width:2.94641;stroke-dasharray:none;stroke-opacity:1"
       id="path157"
       d="m 912.31848,723.51642 a 36.249996,36.249996 0 0 1 -36.14702,36.24985 36.249996,36.249996 0 0 1 -36.35239,-36.0439 36.249996,36.249996 0 0 1 35.94048,-36.45463 36.249996,36.249996 0 0 1 36.55659,35.83678" />
    <path
       style="fill:url(#radialGradient168);fill-opacity:1;fill-rule:evenodd;stroke:url(#radialGradient169);stroke-width:2.94641;stroke-dasharray:none;stroke-opacity:1"
       id="path158"
       d="m 871.30633,849.38135 a 36.249996,36.249996 0 0 1 -36.14702,36.24985 36.249996,36.249996 0 0 1 -36.35239,-36.0439 36.249996,36.249996 0 0 1 35.94049,-36.45463 36.249996,36.249996 0 0 1 36.55658,35.83678" />
    <path
       style="fill:url(#radialGradient166);fill-opacity:1;fill-rule:evenodd;stroke:url(#radialGradient167);stroke-width:2.94641;stroke-dasharray:none;stroke-opacity:1"
       id="path159"
       d="m 755.34082,775.84222 a 36.249996,36.249996 0 0 1 -36.14702,36.24985 36.249996,36.249996 0 0 1 -36.35239,-36.04389 36.249996,36.249996 0 0 1 35.94048,-36.45464 36.249996,36.249996 0 0 1 36.55659,35.83678" />
    <path
       style="fill:url(#radialGradient165);fill-opacity:0.911824;fill-rule:evenodd;stroke:#fefe29;stroke-width:2;stroke-dasharray:none;stroke-opacity:0.771543"
       id="path160"
       d="m 814.58844,951.55505 a 11.79999,11.79999 0 0 1 -11.76647,11.79995 11.79999,11.79999 0 0 1 -11.83332,-11.7329 11.79999,11.79999 0 0 1 11.69924,-11.86661 11.79999,11.79999 0 0 1 11.89979,11.66548" />
    <path
       style="fill:url(#radialGradient164);fill-opacity:0.911824;fill-rule:evenodd;stroke:#fefe29;stroke-width:2;stroke-dasharray:none;stroke-opacity:0.771543"
       id="path161"
       d="m 578.41474,776.19257 a 11.79999,11.79999 0 0 1 -11.76647,11.79994 11.79999,11.79999 0 0 1 -11.83332,-11.7329 11.79999,11.79999 0 0 1 11.69923,-11.86661 11.79999,11.79999 0 0 1 11.89979,11.66549" />
    <path
       style="fill:url(#radialGradient181);fill-opacity:1;fill-rule:evenodd;stroke:url(#radialGradient182);stroke-width:2.94641;stroke-dasharray:none;stroke-opacity:1"
       id="path180"
       d="m 845.85046,763.11432 a 36.249996,36.249996 0 0 1 -36.14702,36.24985 36.249996,36.249996 0 0 1 -36.35239,-36.0439 36.249996,36.249996 0 0 1 35.94049,-36.45463 36.249996,36.249996 0 0 1 36.55658,35.83678" />
    <path
       style="fill:url(#radialGradient162);fill-opacity:1;fill-rule:evenodd;stroke:url(#radialGradient163);stroke-width:2.73104;stroke-dasharray:none;stroke-opacity:1"
       id="path162"
       d="m 808.38853,829.7074 a 33.600323,33.600323 0 0 1 -33.50487,33.60018 33.600323,33.600323 0 0 1 -33.69523,-33.40928 33.600323,33.600323 0 0 1 33.31343,-33.79001 33.600323,33.600323 0 0 1 33.8845,33.21731" />
    <path
       style="fill:url(#radialGradient179);fill-opacity:1;fill-rule:evenodd;stroke:url(#radialGradient180);stroke-width:2.73104;stroke-dasharray:none;stroke-opacity:1"
       id="path178"
       d="m 832.43016,719.39868 a 33.600323,33.600323 0 0 1 -33.50488,33.60019 33.600323,33.600323 0 0 1 -33.69523,-33.40929 33.600323,33.600323 0 0 1 33.31344,-33.79 33.600323,33.600323 0 0 1 33.8845,33.21731" />
    <path
       style="fill:url(#radialGradient183);fill-opacity:0.911824;fill-rule:evenodd;stroke:#fefe29;stroke-width:2;stroke-dasharray:none;stroke-opacity:0.771543"
       id="path182"
       d="m 1035.2057,773.36414 a 11.79999,11.79999 0 0 1 -11.7665,11.79994 11.79999,11.79999 0 0 1 -11.8333,-11.7329 11.79999,11.79999 0 0 1 11.6992,-11.86661 11.79999,11.79999 0 0 1 11.8998,11.66549" />
  </g>
</svg>
