<svg version="1.1" viewBox="0.0 0.0 590.0 365.0" fill="none" stroke="none" stroke-linecap="square" stroke-miterlimit="10" width="590" height="365" xmlns:xlink="http://www.w3.org/1999/xlink" xmlns="http://www.w3.org/2000/svg"><path fill="#ffffff" d="M0 0L590.0 0L590.0 365.0L0 365.0L0 0Z" fill-rule="nonzero"/><path stroke="#333333" stroke-width="1.0" stroke-linecap="butt" d="M86.5 288.5L571.5 288.5" fill-rule="nonzero"/><path stroke="#cccccc" stroke-width="1.0" stroke-linecap="butt" d="M86.5 231.5L571.5 231.5" fill-rule="nonzero"/><path stroke="#cccccc" stroke-width="1.0" stroke-linecap="butt" d="M86.5 175.5L571.5 175.5" fill-rule="nonzero"/><path stroke="#cccccc" stroke-width="1.0" stroke-linecap="butt" d="M86.5 118.5L571.5 118.5" fill-rule="nonzero"/><path stroke="#cccccc" stroke-width="1.0" stroke-linecap="butt" d="M86.5 61.5L571.5 61.5" fill-rule="nonzero"/><path stroke="#000000" stroke-width="1.0" stroke-linecap="butt" d="M571.5 288.5L86.5 288.5" fill-rule="nonzero"/><path stroke="#000000" stroke-width="1.0" stroke-linecap="butt" d="M86.5 288.5L86.5 61.5" fill-rule="nonzero"/><clipPath id="id_0"><path d="M86.25 61.416668L571.75 61.416668L571.75 288.75L86.25 288.75L86.25 61.416668Z" clip-rule="nonzero"/></clipPath><path fill="#4285f4" fill-opacity="0.3019608" clip-path="url(#id_0)" d="M86.25 61.416668L167.16667 175.08333L248.08333 231.91667L329.0 260.33334L409.91666 274.54166L490.83334 281.64584L571.75 285.1979L571.75 288.75L490.83334 288.75L409.91666 288.75L329.0 288.75L248.08333 288.75L167.16667 288.75L86.25 288.75Z" fill-rule="nonzero"/><path stroke="#4285f4" stroke-width="2.0" stroke-linecap="butt" clip-path="url(#id_0)" d="M86.25 61.416668L167.16667 175.08333L248.08333 231.91667L329.0 260.33334L409.91666 274.54166L490.83334 281.64584L571.75 285.1979" fill-rule="nonzero"/><path fill="#000000" fill-opacity="0.0" clip-path="url(#id_0)" d="M89.25 61.416668C89.25 63.07352 87.90685 64.416664 86.25 64.416664C84.59315 64.416664 83.25 63.07352 83.25 61.416668C83.25 59.75981 84.59315 58.416668 86.25 58.416668C87.90685 58.416668 89.25 59.75981 89.25 61.416668Z" fill-rule="nonzero"/><path fill="#000000" fill-opacity="0.0" clip-path="url(#id_0)" d="M170.16667 175.08333C170.16667 176.74019 168.82352 178.08333 167.16667 178.08333C165.50981 178.08333 164.16667 176.74019 164.16667 175.08333C164.16667 173.42648 165.50981 172.08333 167.16667 172.08333C168.82352 172.08333 170.16667 173.42648 170.16667 175.08333Z" fill-rule="nonzero"/><path fill="#000000" fill-opacity="0.0" clip-path="url(#id_0)" d="M251.08333 231.91667C251.08333 233.57352 249.74019 234.91667 248.08333 234.91667C246.42648 234.91667 245.08333 233.57352 245.08333 231.91667C245.08333 230.25981 246.42648 228.91667 248.08333 228.91667C249.74019 228.91667 251.08333 230.25981 251.08333 231.91667Z" fill-rule="nonzero"/><path fill="#000000" fill-opacity="0.0" clip-path="url(#id_0)" d="M332.0 260.33334C332.0 261.99017 330.65686 263.33334 329.0 263.33334C327.34314 263.33334 326.0 261.99017 326.0 260.33334C326.0 258.67648 327.34314 257.33334 329.0 257.33334C330.65686 257.33334 332.0 258.67648 332.0 260.33334Z" fill-rule="nonzero"/><path fill="#000000" fill-opacity="0.0" clip-path="url(#id_0)" d="M412.91666 274.54166C412.91666 276.19852 411.57352 277.54166 409.91666 277.54166C408.25983 277.54166 406.91666 276.19852 406.91666 274.54166C406.91666 272.88483 408.25983 271.54166 409.91666 271.54166C411.57352 271.54166 412.91666 272.88483 412.91666 274.54166Z" fill-rule="nonzero"/><path fill="#000000" fill-opacity="0.0" clip-path="url(#id_0)" d="M493.83334 281.64584C493.83334 283.30267 492.49017 284.64584 490.83334 284.64584C489.17648 284.64584 487.83334 283.30267 487.83334 281.64584C487.83334 279.98898 489.17648 278.64584 490.83334 278.64584C492.49017 278.64584 493.83334 279.98898 493.83334 281.64584Z" fill-rule="nonzero"/><path fill="#000000" fill-opacity="0.0" clip-path="url(#id_0)" d="M574.75 285.1979C574.75 286.85477 573.40686 288.1979 571.75 288.1979C570.09314 288.1979 568.75 286.85477 568.75 285.1979C568.75 283.54108 570.09314 282.1979 571.75 282.1979C573.40686 282.1979 574.75 283.54108 574.75 285.1979Z" fill-rule="nonzero"/><path stroke="#000000" stroke-width="1.0" stroke-linecap="butt" d="M86.5 294.5L86.5 282.5" fill-rule="nonzero"/><path stroke="#000000" stroke-width="1.0" stroke-linecap="butt" d="M167.5 294.5L167.5 282.5" fill-rule="nonzero"/><path stroke="#000000" stroke-width="1.0" stroke-linecap="butt" d="M248.5 294.5L248.5 282.5" fill-rule="nonzero"/><path stroke="#000000" stroke-width="1.0" stroke-linecap="butt" d="M329.5 294.5L329.5 282.5" fill-rule="nonzero"/><path stroke="#000000" stroke-width="1.0" stroke-linecap="butt" d="M409.5 294.5L409.5 282.5" fill-rule="nonzero"/><path stroke="#000000" stroke-width="1.0" stroke-linecap="butt" d="M490.5 294.5L490.5 282.5" fill-rule="nonzero"/><path stroke="#000000" stroke-width="1.0" stroke-linecap="butt" d="M571.5 294.5L571.5 282.5" fill-rule="nonzero"/><path stroke="#000000" stroke-width="1.0" stroke-linecap="butt" d="M80.5 288.5L92.5 288.5" fill-rule="nonzero"/><path stroke="#000000" stroke-width="1.0" stroke-linecap="butt" d="M80.5 231.5L92.5 231.5" fill-rule="nonzero"/><path stroke="#000000" stroke-width="1.0" stroke-linecap="butt" d="M80.5 175.5L92.5 175.5" fill-rule="nonzero"/><path stroke="#000000" stroke-width="1.0" stroke-linecap="butt" d="M80.5 118.5L92.5 118.5" fill-rule="nonzero"/><path stroke="#000000" stroke-width="1.0" stroke-linecap="butt" d="M80.5 61.5L92.5 61.5" fill-rule="nonzero"/><path fill="#000000" d="M318.10938 343.75L318.10938 336.17188L315.28125 336.17188L315.28125 335.15625L322.09375 335.15625L322.09375 336.17188L319.25 336.17188L319.25 343.75L318.10938 343.75ZM322.79688 336.375L322.79688 335.15625L323.85938 335.15625L323.85938 336.375L322.79688 336.375ZM322.79688 343.75L322.79688 337.53125L323.85938 337.53125L323.85938 343.75L322.79688 343.75ZM325.79688 343.75L325.79688 337.53125L326.73438 337.53125L326.73438 338.40625Q327.03125 337.9375 327.51562 337.67188Q328.0 337.39062 328.625 337.39062Q329.3125 337.39062 329.75 337.67188Q330.20312 337.95312 330.375 338.46875Q331.125 337.39062 332.29688 337.39062Q333.23438 337.39062 333.71875 337.90625Q334.21875 338.40625 334.21875 339.48438L334.21875 343.75L333.17188 343.75L333.17188 339.82812Q333.17188 339.20312 333.0625 338.92188Q332.96875 338.64062 332.70312 338.46875Q332.4375 338.29688 332.0625 338.29688Q331.40625 338.29688 330.96875 338.73438Q330.54688 339.17188 330.54688 340.14062L330.54688 343.75L329.48438 343.75L329.48438 339.70312Q329.48438 339.0 329.21875 338.65625Q328.96875 338.29688 328.39062 338.29688Q327.9375 338.29688 327.5625 338.53125Q327.1875 338.76562 327.01562 339.21875Q326.84375 339.67188 326.84375 340.51562L326.84375 343.75L325.79688 343.75ZM341.04688 341.75L342.14062 341.875Q341.89062 342.82812 341.1875 343.35938Q340.48438 343.89062 339.40625 343.89062Q338.04688 343.89062 337.23438 343.04688Q336.4375 342.20312 336.4375 340.6875Q336.4375 339.125 337.25 338.26562Q338.0625 337.39062 339.34375 337.39062Q340.59375 337.39062 341.375 338.23438Q342.17188 339.07812 342.17188 340.625Q342.17188 340.71875 342.17188 340.90625L337.53125 340.90625Q337.59375 341.9375 338.10938 342.48438Q338.625 343.01562 339.40625 343.01562Q339.98438 343.01562 340.39062 342.71875Q340.8125 342.40625 341.04688 341.75ZM337.59375 340.04688L341.0625 340.04688Q341.0 339.25 340.67188 338.85938Q340.15625 338.25 339.35938 338.25Q338.625 338.25 338.125 338.73438Q337.64062 339.21875 337.59375 340.04688Z" fill-rule="nonzero"/><path fill="#000000" d="M26.484375 218.03647L26.390625 216.97397Q27.046875 216.89584 27.453125 216.6146Q27.859375 216.33334 28.125 215.75522Q28.375 215.16147 28.375 214.4271Q28.375 213.78647 28.1875 213.28647Q27.984375 212.78647 27.65625 212.5521Q27.3125 212.3021 26.921875 212.3021Q26.515625 212.3021 26.21875 212.53647Q25.90625 212.77084 25.703125 213.3021Q25.5625 213.66147 25.28125 214.84897Q25.0 216.02084 24.75 216.4896Q24.421875 217.1146 23.953125 217.41147Q23.46875 217.70834 22.875 217.70834Q22.234375 217.70834 21.671875 217.34897Q21.09375 216.97397 20.8125 216.27084Q20.515625 215.5521 20.515625 214.69272Q20.515625 213.7396 20.828125 213.00522Q21.125 212.27084 21.734375 211.88022Q22.328125 211.4896 23.078125 211.45834L23.15625 212.5521Q22.34375 212.64584 21.9375 213.16147Q21.515625 213.66147 21.515625 214.64584Q21.515625 215.6771 21.890625 216.14584Q22.265625 216.6146 22.796875 216.6146Q23.265625 216.6146 23.5625 216.28647Q23.859375 215.95834 24.171875 214.58334Q24.484375 213.19272 24.71875 212.6771Q25.078125 211.9271 25.609375 211.56772Q26.125 211.20834 26.828125 211.20834Q27.515625 211.20834 28.125 211.59897Q28.71875 211.9896 29.0625 212.72397Q29.390625 213.45834 29.390625 214.38022Q29.390625 215.5521 29.0625 216.34897Q28.71875 217.13022 28.03125 217.58334Q27.34375 218.02084 26.484375 218.03647ZM28.484375 205.72397Q28.984375 206.31772 29.1875 206.8646Q29.390625 207.39584 29.390625 208.02084Q29.390625 209.0521 28.890625 209.59897Q28.390625 210.14584 27.609375 210.14584Q27.15625 210.14584 26.78125 209.94272Q26.390625 209.7396 26.171875 209.39584Q25.9375 209.0521 25.828125 208.63022Q25.734375 208.33334 25.65625 207.69272Q25.515625 206.4271 25.296875 205.81772Q25.078125 205.81772 25.03125 205.81772Q24.375 205.81772 24.109375 206.1146Q23.765625 206.52084 23.765625 207.31772Q23.765625 208.0521 24.03125 208.41147Q24.28125 208.77084 24.9375 208.94272L24.796875 209.97397Q24.140625 209.83334 23.734375 209.50522Q23.328125 209.1771 23.109375 208.56772Q22.890625 207.95834 22.890625 207.16147Q22.890625 206.3646 23.078125 205.8646Q23.265625 205.3646 23.546875 205.13022Q23.828125 204.89584 24.265625 204.8021Q24.53125 204.75522 25.234375 204.75522L26.640625 204.75522Q28.109375 204.75522 28.5 204.69272Q28.890625 204.6146 29.25 204.41147L29.25 205.52084Q28.921875 205.6771 28.484375 205.72397ZM26.125 205.81772Q26.359375 206.39584 26.53125 207.53647Q26.625 208.19272 26.75 208.45834Q26.859375 208.72397 27.078125 208.88022Q27.296875 209.02084 27.578125 209.02084Q28.0 209.02084 28.28125 208.70834Q28.5625 208.38022 28.5625 207.77084Q28.5625 207.16147 28.296875 206.69272Q28.03125 206.20834 27.5625 205.9896Q27.203125 205.81772 26.515625 205.81772L26.125 205.81772ZM29.25 202.78647L23.03125 202.78647L23.03125 201.84897L23.90625 201.84897Q23.4375 201.5521 23.171875 201.06772Q22.890625 200.58334 22.890625 199.95834Q22.890625 199.27084 23.171875 198.83334Q23.453125 198.38022 23.96875 198.20834Q22.890625 197.45834 22.890625 196.28647Q22.890625 195.34897 23.40625 194.8646Q23.90625 194.3646 24.984375 194.3646L29.25 194.3646L29.25 195.41147L25.328125 195.41147Q24.703125 195.41147 24.421875 195.52084Q24.140625 195.6146 23.96875 195.88022Q23.796875 196.14584 23.796875 196.52084Q23.796875 197.1771 24.234375 197.6146Q24.671875 198.03647 25.640625 198.03647L29.25 198.03647L29.25 199.09897L25.203125 199.09897Q24.5 199.09897 24.15625 199.3646Q23.796875 199.6146 23.796875 200.19272Q23.796875 200.64584 24.03125 201.02084Q24.265625 201.39584 24.71875 201.56772Q25.171875 201.7396 26.015625 201.7396L29.25 201.7396L29.25 202.78647ZM31.640625 191.78647L23.03125 191.78647L23.03125 190.83334L23.828125 190.83334Q23.359375 190.4896 23.125 190.06772Q22.890625 189.63022 22.890625 189.02084Q22.890625 188.22397 23.296875 187.6146Q23.703125 187.00522 24.453125 186.70834Q25.203125 186.39584 26.09375 186.39584Q27.046875 186.39584 27.8125 186.7396Q28.578125 187.06772 28.984375 187.72397Q29.390625 188.38022 29.390625 189.09897Q29.390625 189.63022 29.171875 190.0521Q28.9375 190.47397 28.609375 190.7396L31.640625 190.7396L31.640625 191.78647ZM26.171875 190.83334Q27.375 190.83334 27.953125 190.34897Q28.515625 189.8646 28.515625 189.1771Q28.515625 188.47397 27.921875 187.97397Q27.328125 187.47397 26.078125 187.47397Q24.890625 187.47397 24.3125 187.95834Q23.71875 188.44272 23.71875 189.13022Q23.71875 189.8021 24.34375 190.31772Q24.96875 190.83334 26.171875 190.83334ZM29.25 184.81772L20.65625 184.81772L20.65625 183.75522L29.25 183.75522L29.25 184.81772ZM27.25 177.53647L27.375 176.44272Q28.328125 176.69272 28.859375 177.39584Q29.390625 178.09897 29.390625 179.1771Q29.390625 180.53647 28.546875 181.34897Q27.703125 182.14584 26.1875 182.14584Q24.625 182.14584 23.765625 181.33334Q22.890625 180.52084 22.890625 179.2396Q22.890625 177.9896 23.734375 177.20834Q24.578125 176.41147 26.125 176.41147Q26.21875 176.41147 26.40625 176.41147L26.40625 181.0521Q27.4375 180.9896 27.984375 180.47397Q28.515625 179.95834 28.515625 179.1771Q28.515625 178.59897 28.21875 178.19272Q27.90625 177.77084 27.25 177.53647ZM25.546875 180.9896L25.546875 177.52084Q24.75 177.58334 24.359375 177.91147Q23.75 178.4271 23.75 179.22397Q23.75 179.95834 24.234375 180.45834Q24.71875 180.94272 25.546875 180.9896ZM27.390625 172.20834L27.234375 171.1771Q27.859375 171.08334 28.1875 170.69272Q28.515625 170.28647 28.515625 169.5521Q28.515625 168.83334 28.234375 168.4896Q27.9375 168.13022 27.53125 168.13022Q27.171875 168.13022 26.96875 168.44272Q26.828125 168.66147 26.609375 169.52084Q26.3125 170.6771 26.109375 171.13022Q25.890625 171.56772 25.515625 171.8021Q25.140625 172.03647 24.671875 172.03647Q24.265625 172.03647 23.90625 171.84897Q23.546875 171.66147 23.3125 171.33334Q23.140625 171.08334 23.015625 170.66147Q22.890625 170.2396 22.890625 169.7396Q22.890625 169.02084 23.109375 168.47397Q23.3125 167.91147 23.671875 167.64584Q24.03125 167.38022 24.625 167.28647L24.765625 168.31772Q24.296875 168.38022 24.03125 168.72397Q23.75 169.0521 23.75 169.6771Q23.75 170.39584 24.0 170.70834Q24.234375 171.02084 24.5625 171.02084Q24.765625 171.02084 24.921875 170.89584Q25.09375 170.75522 25.203125 170.4896Q25.265625 170.33334 25.46875 169.5521Q25.78125 168.4271 25.96875 167.9896Q26.15625 167.5521 26.515625 167.3021Q26.875 167.0521 27.421875 167.0521Q27.953125 167.0521 28.421875 167.3646Q28.875 167.66147 29.140625 168.2396Q29.390625 168.81772 29.390625 169.5521Q29.390625 170.77084 28.890625 171.41147Q28.375 172.03647 27.390625 172.20834ZM21.875 164.78647L20.65625 164.78647L20.65625 163.72397L21.875 163.72397L21.875 164.78647ZM29.25 164.78647L23.03125 164.78647L23.03125 163.72397L29.25 163.72397L29.25 164.78647ZM29.25 162.34897L28.390625 162.34897L23.84375 158.38022Q23.875 159.06772 23.875 159.58334L23.875 162.1146L23.03125 162.1146L23.03125 157.02084L23.71875 157.02084L27.671875 160.39584L28.390625 161.0521Q28.34375 160.33334 28.34375 159.72397L28.34375 156.83334L29.25 156.83334L29.25 162.34897ZM27.25 152.53647L27.375 151.44272Q28.328125 151.69272 28.859375 152.39584Q29.390625 153.09897 29.390625 154.1771Q29.390625 155.53647 28.546875 156.34897Q27.703125 157.14584 26.1875 157.14584Q24.625 157.14584 23.765625 156.33334Q22.890625 155.52084 22.890625 154.2396Q22.890625 152.9896 23.734375 152.20834Q24.578125 151.41147 26.125 151.41147Q26.21875 151.41147 26.40625 151.41147L26.40625 156.0521Q27.4375 155.9896 27.984375 155.47397Q28.515625 154.95834 28.515625 154.1771Q28.515625 153.59897 28.21875 153.19272Q27.90625 152.77084 27.25 152.53647ZM25.546875 155.9896L25.546875 152.52084Q24.75 152.58334 24.359375 152.91147Q23.75 153.4271 23.75 154.22397Q23.75 154.95834 24.234375 155.45834Q24.71875 155.94272 25.546875 155.9896Z" fill-rule="nonzero"/><path fill="#000000" d="M50.75 288.51562Q50.75 286.98438 51.0625 286.0625Q51.375 285.125 51.984375 284.625Q52.609375 284.125 53.546875 284.125Q54.234375 284.125 54.75 284.40625Q55.28125 284.6875 55.625 285.21875Q55.96875 285.73438 56.15625 286.48438Q56.34375 287.23438 56.34375 288.51562Q56.34375 290.03125 56.03125 290.95312Q55.734375 291.875 55.109375 292.39062Q54.5 292.89062 53.546875 292.89062Q52.3125 292.89062 51.59375 292.0Q50.75 290.9375 50.75 288.51562ZM51.828125 288.51562Q51.828125 290.625 52.328125 291.32812Q52.828125 292.03125 53.546875 292.03125Q54.28125 292.03125 54.765625 291.32812Q55.265625 290.625 55.265625 288.51562Q55.265625 286.39062 54.765625 285.70312Q54.28125 285.0 53.53125 285.0Q52.8125 285.0 52.375 285.60938Q51.828125 286.39062 51.828125 288.51562ZM58.34375 292.75L58.34375 291.54688L59.546875 291.54688L59.546875 292.75L58.34375 292.75ZM60.75 288.51562Q60.75 286.98438 61.0625 286.0625Q61.375 285.125 61.984375 284.625Q62.609375 284.125 63.546875 284.125Q64.234375 284.125 64.75 284.40625Q65.28125 284.6875 65.625 285.21875Q65.96875 285.73438 66.15625 286.48438Q66.34375 287.23438 66.34375 288.51562Q66.34375 290.03125 66.03125 290.95312Q65.734375 291.875 65.109375 292.39062Q64.5 292.89062 63.546875 292.89062Q62.3125 292.89062 61.59375 292.0Q60.75 290.9375 60.75 288.51562ZM61.828125 288.51562Q61.828125 290.625 62.328125 291.32812Q62.828125 292.03125 63.546875 292.03125Q64.28125 292.03125 64.765625 291.32812Q65.265625 290.625 65.265625 288.51562Q65.265625 286.39062 64.765625 285.70312Q64.28125 285.0 63.53125 285.0Q62.8125 285.0 62.375 285.60938Q61.828125 286.39062 61.828125 288.51562ZM67.75 288.51562Q67.75 286.98438 68.0625 286.0625Q68.375 285.125 68.984375 284.625Q69.609375 284.125 70.546875 284.125Q71.234375 284.125 71.75 284.40625Q72.28125 284.6875 72.625 285.21875Q72.96875 285.73438 73.15625 286.48438Q73.34375 287.23438 73.34375 288.51562Q73.34375 290.03125 73.03125 290.95312Q72.734375 291.875 72.109375 292.39062Q71.5 292.89062 70.546875 292.89062Q69.3125 292.89062 68.59375 292.0Q67.75 290.9375 67.75 288.51562ZM68.828125 288.51562Q68.828125 290.625 69.328125 291.32812Q69.828125 292.03125 70.546875 292.03125Q71.28125 292.03125 71.765625 291.32812Q72.265625 290.625 72.265625 288.51562Q72.265625 286.39062 71.765625 285.70312Q71.28125 285.0 70.53125 285.0Q69.8125 285.0 69.375 285.60938Q68.828125 286.39062 68.828125 288.51562Z" fill-rule="nonzero"/><path fill="#000000" d="M50.75 231.6823Q50.75 230.15105 51.0625 229.22917Q51.375 228.29167 51.984375 227.79167Q52.609375 227.29167 53.546875 227.29167Q54.234375 227.29167 54.75 227.57292Q55.28125 227.85417 55.625 228.38542Q55.96875 228.90105 56.15625 229.65105Q56.34375 230.40105 56.34375 231.6823Q56.34375 233.19792 56.03125 234.1198Q55.734375 235.04167 55.109375 235.5573Q54.5 236.0573 53.546875 236.0573Q52.3125 236.0573 51.59375 235.16667Q50.75 234.10417 50.75 231.6823ZM51.828125 231.6823Q51.828125 233.79167 52.328125 234.4948Q52.828125 235.19792 53.546875 235.19792Q54.28125 235.19792 54.765625 234.4948Q55.265625 233.79167 55.265625 231.6823Q55.265625 229.5573 54.765625 228.8698Q54.28125 228.16667 53.53125 228.16667Q52.8125 228.16667 52.375 228.77605Q51.828125 229.5573 51.828125 231.6823ZM58.34375 235.91667L58.34375 234.71355L59.546875 234.71355L59.546875 235.91667L58.34375 235.91667ZM66.296875 234.90105L66.296875 235.91667L60.609375 235.91667Q60.609375 235.54167 60.734375 235.1823Q60.953125 234.60417 61.421875 234.04167Q61.90625 233.47917 62.8125 232.7448Q64.21875 231.58855 64.703125 230.91667Q65.203125 230.2448 65.203125 229.65105Q65.203125 229.02605 64.75 228.60417Q64.296875 228.16667 63.578125 228.16667Q62.8125 228.16667 62.359375 228.6198Q61.90625 229.07292 61.890625 229.88542L60.8125 229.77605Q60.921875 228.5573 61.640625 227.9323Q62.375 227.29167 63.609375 227.29167Q64.84375 227.29167 65.5625 227.97917Q66.28125 228.66667 66.28125 229.6823Q66.28125 230.19792 66.0625 230.69792Q65.859375 231.1823 65.359375 231.7448Q64.875 232.29167 63.75 233.2448Q62.796875 234.04167 62.515625 234.33855Q62.25 234.6198 62.078125 234.90105L66.296875 234.90105ZM67.75 233.66667L68.859375 233.57292Q68.984375 234.38542 69.421875 234.79167Q69.875 235.19792 70.515625 235.19792Q71.265625 235.19792 71.796875 234.6198Q72.328125 234.04167 72.328125 233.10417Q72.328125 232.19792 71.8125 231.6823Q71.3125 231.15105 70.484375 231.15105Q69.984375 231.15105 69.5625 231.38542Q69.15625 231.6198 68.921875 231.97917L67.9375 231.85417L68.765625 227.44792L73.046875 227.44792L73.046875 228.44792L69.609375 228.44792L69.15625 230.76042Q69.921875 230.21355 70.765625 230.21355Q71.890625 230.21355 72.65625 230.9948Q73.4375 231.77605 73.4375 233.01042Q73.4375 234.16667 72.765625 235.02605Q71.9375 236.0573 70.515625 236.0573Q69.34375 236.0573 68.59375 235.40105Q67.859375 234.7448 67.75 233.66667Z" fill-rule="nonzero"/><path fill="#000000" d="M50.75 174.84895Q50.75 173.3177 51.0625 172.39583Q51.375 171.45833 51.984375 170.95833Q52.609375 170.45833 53.546875 170.45833Q54.234375 170.45833 54.75 170.73958Q55.28125 171.02083 55.625 171.55208Q55.96875 172.0677 56.15625 172.8177Q56.34375 173.5677 56.34375 174.84895Q56.34375 176.36458 56.03125 177.28645Q55.734375 178.20833 55.109375 178.72395Q54.5 179.22395 53.546875 179.22395Q52.3125 179.22395 51.59375 178.33333Q50.75 177.27083 50.75 174.84895ZM51.828125 174.84895Q51.828125 176.95833 52.328125 177.66145Q52.828125 178.36458 53.546875 178.36458Q54.28125 178.36458 54.765625 177.66145Q55.265625 176.95833 55.265625 174.84895Q55.265625 172.72395 54.765625 172.03645Q54.28125 171.33333 53.53125 171.33333Q52.8125 171.33333 52.375 171.9427Q51.828125 172.72395 51.828125 174.84895ZM58.34375 179.08333L58.34375 177.8802L59.546875 177.8802L59.546875 179.08333L58.34375 179.08333ZM60.75 176.83333L61.859375 176.73958Q61.984375 177.55208 62.421875 177.95833Q62.875 178.36458 63.515625 178.36458Q64.265625 178.36458 64.796875 177.78645Q65.328125 177.20833 65.328125 176.27083Q65.328125 175.36458 64.8125 174.84895Q64.3125 174.3177 63.484375 174.3177Q62.984375 174.3177 62.5625 174.55208Q62.15625 174.78645 61.921875 175.14583L60.9375 175.02083L61.765625 170.61458L66.046875 170.61458L66.046875 171.61458L62.609375 171.61458L62.15625 173.92708Q62.921875 173.3802 63.765625 173.3802Q64.890625 173.3802 65.65625 174.16145Q66.4375 174.9427 66.4375 176.17708Q66.4375 177.33333 65.765625 178.1927Q64.9375 179.22395 63.515625 179.22395Q62.34375 179.22395 61.59375 178.5677Q60.859375 177.91145 60.75 176.83333ZM67.75 174.84895Q67.75 173.3177 68.0625 172.39583Q68.375 171.45833 68.984375 170.95833Q69.609375 170.45833 70.546875 170.45833Q71.234375 170.45833 71.75 170.73958Q72.28125 171.02083 72.625 171.55208Q72.96875 172.0677 73.15625 172.8177Q73.34375 173.5677 73.34375 174.84895Q73.34375 176.36458 73.03125 177.28645Q72.734375 178.20833 72.109375 178.72395Q71.5 179.22395 70.546875 179.22395Q69.3125 179.22395 68.59375 178.33333Q67.75 177.27083 67.75 174.84895ZM68.828125 174.84895Q68.828125 176.95833 69.328125 177.66145Q69.828125 178.36458 70.546875 178.36458Q71.28125 178.36458 71.765625 177.66145Q72.265625 176.95833 72.265625 174.84895Q72.265625 172.72395 71.765625 172.03645Q71.28125 171.33333 70.53125 171.33333Q69.8125 171.33333 69.375 171.9427Q68.828125 172.72395 68.828125 174.84895Z" fill-rule="nonzero"/><path fill="#000000" d="M50.75 118.015625Q50.75 116.484375 51.0625 115.5625Q51.375 114.625 51.984375 114.125Q52.609375 113.625 53.546875 113.625Q54.234375 113.625 54.75 113.90625Q55.28125 114.1875 55.625 114.71875Q55.96875 115.234375 56.15625 115.984375Q56.34375 116.734375 56.34375 118.015625Q56.34375 119.53125 56.03125 120.453125Q55.734375 121.375 55.109375 121.890625Q54.5 122.390625 53.546875 122.390625Q52.3125 122.390625 51.59375 121.5Q50.75 120.4375 50.75 118.015625ZM51.828125 118.015625Q51.828125 120.125 52.328125 120.828125Q52.828125 121.53125 53.546875 121.53125Q54.28125 121.53125 54.765625 120.828125Q55.265625 120.125 55.265625 118.015625Q55.265625 115.890625 54.765625 115.203125Q54.28125 114.5 53.53125 114.5Q52.8125 114.5 52.375 115.109375Q51.828125 115.890625 51.828125 118.015625ZM58.34375 122.25L58.34375 121.046875L59.546875 121.046875L59.546875 122.25L58.34375 122.25ZM60.8125 114.78125L60.8125 113.765625L66.375 113.765625L66.375 114.59375Q65.5625 115.46875 64.75 116.921875Q63.953125 118.359375 63.515625 119.890625Q63.1875 120.96875 63.109375 122.25L62.015625 122.25Q62.03125 121.234375 62.40625 119.796875Q62.796875 118.359375 63.5 117.03125Q64.21875 115.703125 65.03125 114.78125L60.8125 114.78125ZM67.75 120.0L68.859375 119.90625Q68.984375 120.71875 69.421875 121.125Q69.875 121.53125 70.515625 121.53125Q71.265625 121.53125 71.796875 120.953125Q72.328125 120.375 72.328125 119.4375Q72.328125 118.53125 71.8125 118.015625Q71.3125 117.484375 70.484375 117.484375Q69.984375 117.484375 69.5625 117.71875Q69.15625 117.953125 68.921875 118.3125L67.9375 118.1875L68.765625 113.78125L73.046875 113.78125L73.046875 114.78125L69.609375 114.78125L69.15625 117.09375Q69.921875 116.546875 70.765625 116.546875Q71.890625 116.546875 72.65625 117.328125Q73.4375 118.109375 73.4375 119.34375Q73.4375 120.5 72.765625 121.359375Q71.9375 122.390625 70.515625 122.390625Q69.34375 122.390625 68.59375 121.734375Q67.859375 121.078125 67.75 120.0Z" fill-rule="nonzero"/><path fill="#000000" d="M54.71875 65.416664L53.671875 65.416664L53.671875 58.697914Q53.28125 59.05729 52.65625 59.43229Q52.046875 59.791664 51.5625 59.96354L51.5625 58.947914Q52.4375 58.52604 53.09375 57.947914Q53.765625 57.354164 54.046875 56.791664L54.71875 56.791664L54.71875 65.416664ZM58.34375 65.416664L58.34375 64.21354L59.546875 64.21354L59.546875 65.416664L58.34375 65.416664ZM60.75 61.18229Q60.75 59.65104 61.0625 58.729164Q61.375 57.791664 61.984375 57.291664Q62.609375 56.791664 63.546875 56.791664Q64.234375 56.791664 64.75 57.072914Q65.28125 57.354164 65.625 57.885414Q65.96875 58.40104 66.15625 59.15104Q66.34375 59.90104 66.34375 61.18229Q66.34375 62.697914 66.03125 63.61979Q65.734375 64.541664 65.109375 65.05729Q64.5 65.55729 63.546875 65.55729Q62.3125 65.55729 61.59375 64.666664Q60.75 63.604164 60.75 61.18229ZM61.828125 61.18229Q61.828125 63.291664 62.328125 63.99479Q62.828125 64.697914 63.546875 64.697914Q64.28125 64.697914 64.765625 63.99479Q65.265625 63.291664 65.265625 61.18229Q65.265625 59.05729 64.765625 58.36979Q64.28125 57.666664 63.53125 57.666664Q62.8125 57.666664 62.375 58.27604Q61.828125 59.05729 61.828125 61.18229ZM67.75 61.18229Q67.75 59.65104 68.0625 58.729164Q68.375 57.791664 68.984375 57.291664Q69.609375 56.791664 70.546875 56.791664Q71.234375 56.791664 71.75 57.072914Q72.28125 57.354164 72.625 57.885414Q72.96875 58.40104 73.15625 59.15104Q73.34375 59.90104 73.34375 61.18229Q73.34375 62.697914 73.03125 63.61979Q72.734375 64.541664 72.109375 65.05729Q71.5 65.55729 70.546875 65.55729Q69.3125 65.55729 68.59375 64.666664Q67.75 63.604164 67.75 61.18229ZM68.828125 61.18229Q68.828125 63.291664 69.328125 63.99479Q69.828125 64.697914 70.546875 64.697914Q71.28125 64.697914 71.765625 63.99479Q72.265625 63.291664 72.265625 61.18229Q72.265625 59.05729 71.765625 58.36979Q71.28125 57.666664 70.53125 57.666664Q69.8125 57.666664 69.375 58.27604Q68.828125 59.05729 68.828125 61.18229Z" fill-rule="nonzero"/><path fill="#000000" d="M83.25 307.51562Q83.25 305.98438 83.5625 305.0625Q83.875 304.125 84.484375 303.625Q85.109375 303.125 86.046875 303.125Q86.734375 303.125 87.25 303.40625Q87.78125 303.6875 88.125 304.21875Q88.46875 304.73438 88.65625 305.48438Q88.84375 306.23438 88.84375 307.51562Q88.84375 309.03125 88.53125 309.95312Q88.234375 310.875 87.609375 311.39062Q87.0 311.89062 86.046875 311.89062Q84.8125 311.89062 84.09375 311.0Q83.25 309.9375 83.25 307.51562ZM84.328125 307.51562Q84.328125 309.625 84.828125 310.32812Q85.328125 311.03125 86.046875 311.03125Q86.78125 311.03125 87.265625 310.32812Q87.765625 309.625 87.765625 307.51562Q87.765625 305.39062 87.265625 304.70312Q86.78125 304.0 86.03125 304.0Q85.3125 304.0 84.875 304.60938Q84.328125 305.39062 84.328125 307.51562Z" fill-rule="nonzero"/><path fill="#000000" d="M168.13542 311.75L167.08855 311.75L167.08855 305.03125Q166.69792 305.39062 166.07292 305.76562Q165.46355 306.125 164.97917 306.29688L164.97917 305.28125Q165.85417 304.85938 166.51042 304.28125Q167.1823 303.6875 167.46355 303.125L168.13542 303.125L168.13542 311.75Z" fill-rule="nonzero"/><path fill="#000000" d="M250.6302 310.73438L250.6302 311.75L244.9427 311.75Q244.9427 311.375 245.0677 311.01562Q245.28645 310.4375 245.7552 309.875Q246.23958 309.3125 247.14583 308.57812Q248.55208 307.42188 249.03645 306.75Q249.53645 306.07812 249.53645 305.48438Q249.53645 304.85938 249.08333 304.4375Q248.6302 304.0 247.91145 304.0Q247.14583 304.0 246.6927 304.45312Q246.23958 304.90625 246.22395 305.71875L245.14583 305.60938Q245.2552 304.39062 245.97395 303.76562Q246.70833 303.125 247.9427 303.125Q249.17708 303.125 249.89583 303.8125Q250.61458 304.5 250.61458 305.51562Q250.61458 306.03125 250.39583 306.53125Q250.1927 307.01562 249.6927 307.57812Q249.20833 308.125 248.08333 309.07812Q247.1302 309.875 246.84895 310.17188Q246.58333 310.45312 246.41145 310.73438L250.6302 310.73438Z" fill-rule="nonzero"/><path fill="#000000" d="M326.0 309.48438L327.0625 309.34375Q327.23438 310.23438 327.67188 310.64062Q328.10938 311.03125 328.73438 311.03125Q329.48438 311.03125 330.0 310.51562Q330.51562 310.0 330.51562 309.23438Q330.51562 308.51562 330.03125 308.04688Q329.5625 307.5625 328.82812 307.5625Q328.53125 307.5625 328.07812 307.6875L328.20312 306.75Q328.3125 306.76562 328.375 306.76562Q329.04688 306.76562 329.57812 306.42188Q330.125 306.0625 330.125 305.32812Q330.125 304.75 329.73438 304.375Q329.34375 303.98438 328.71875 303.98438Q328.10938 303.98438 327.6875 304.375Q327.28125 304.76562 327.17188 305.53125L326.10938 305.34375Q326.29688 304.29688 326.98438 303.71875Q327.67188 303.125 328.6875 303.125Q329.39062 303.125 329.98438 303.4375Q330.57812 303.73438 330.89062 304.25Q331.20312 304.76562 331.20312 305.35938Q331.20312 305.90625 330.90625 306.375Q330.60938 306.82812 330.03125 307.09375Q330.78125 307.26562 331.20312 307.82812Q331.625 308.375 331.625 309.21875Q331.625 310.34375 330.79688 311.125Q329.98438 311.90625 328.73438 311.90625Q327.60938 311.90625 326.85938 311.23438Q326.10938 310.54688 326.0 309.48438Z" fill-rule="nonzero"/><path fill="#000000" d="M410.29166 311.75L410.29166 309.6875L406.5729 309.6875L406.5729 308.71875L410.49478 303.15625L411.35416 303.15625L411.35416 308.71875L412.5104 308.71875L412.5104 309.6875L411.35416 309.6875L411.35416 311.75L410.29166 311.75ZM410.29166 308.71875L410.29166 304.85938L407.60416 308.71875L410.29166 308.71875Z" fill-rule="nonzero"/><path fill="#000000" d="M487.83334 309.5L488.94272 309.40625Q489.06772 310.21875 489.50522 310.625Q489.95834 311.03125 490.59897 311.03125Q491.34897 311.03125 491.88022 310.45312Q492.41147 309.875 492.41147 308.9375Q492.41147 308.03125 491.89584 307.51562Q491.39584 306.98438 490.56772 306.98438Q490.06772 306.98438 489.64584 307.21875Q489.2396 307.45312 489.00522 307.8125L488.02084 307.6875L488.84897 303.28125L493.13022 303.28125L493.13022 304.28125L489.69272 304.28125L489.2396 306.59375Q490.00522 306.04688 490.84897 306.04688Q491.97397 306.04688 492.7396 306.82812Q493.52084 307.60938 493.52084 308.84375Q493.52084 310.0 492.84897 310.85938Q492.02084 311.89062 490.59897 311.89062Q489.4271 311.89062 488.6771 311.23438Q487.94272 310.57812 487.83334 309.5Z" fill-rule="nonzero"/><path fill="#000000" d="M574.21875 305.26562L573.1719 305.34375Q573.03125 304.71875 572.78125 304.4375Q572.34375 303.98438 571.71875 303.98438Q571.21875 303.98438 570.8281 304.26562Q570.34375 304.64062 570.0469 305.34375Q569.7656 306.03125 569.75 307.3125Q570.125 306.73438 570.6719 306.45312Q571.2344 306.17188 571.84375 306.17188Q572.8906 306.17188 573.625 306.95312Q574.375 307.73438 574.375 308.95312Q574.375 309.76562 574.0156 310.46875Q573.6719 311.15625 573.0625 311.53125Q572.4531 311.89062 571.6875 311.89062Q570.3594 311.89062 569.53125 310.92188Q568.7031 309.95312 568.7031 307.73438Q568.7031 305.23438 569.625 304.10938Q570.4219 303.125 571.78125 303.125Q572.7969 303.125 573.4375 303.70312Q574.09375 304.26562 574.21875 305.26562ZM569.9219 308.96875Q569.9219 309.51562 570.1406 310.01562Q570.375 310.5 570.78125 310.76562Q571.2031 311.03125 571.6719 311.03125Q572.3281 311.03125 572.8125 310.5Q573.2969 309.95312 573.2969 309.03125Q573.2969 308.14062 572.8125 307.625Q572.34375 307.10938 571.625 307.10938Q570.90625 307.10938 570.40625 307.625Q569.9219 308.14062 569.9219 308.96875Z" fill-rule="nonzero"/><path fill="#757575" d="M19.859375 37.25L19.859375 22.9375L21.75 22.9375L21.75 28.8125L29.1875 28.8125L29.1875 22.9375L31.078125 22.9375L31.078125 37.25L29.1875 37.25L29.1875 30.5L21.75 30.5L21.75 37.25L19.859375 37.25ZM39.34375 35.96875Q38.359375 36.796875 37.453125 37.140625Q36.546875 37.484375 35.515625 37.484375Q33.8125 37.484375 32.890625 36.65625Q31.96875 35.8125 31.96875 34.515625Q31.96875 33.75 32.3125 33.125Q32.671875 32.5 33.234375 32.125Q33.796875 31.734375 34.5 31.53125Q35.015625 31.40625 36.0625 31.265625Q38.1875 31.015625 39.1875 30.671875Q39.203125 30.3125 39.203125 30.203125Q39.203125 29.140625 38.703125 28.6875Q38.03125 28.09375 36.703125 28.09375Q35.453125 28.09375 34.859375 28.53125Q34.28125 28.96875 34.0 30.078125L32.28125 29.84375Q32.515625 28.734375 33.046875 28.0625Q33.578125 27.375 34.59375 27.015625Q35.609375 26.640625 36.953125 26.640625Q38.28125 26.640625 39.109375 26.953125Q39.9375 27.265625 40.328125 27.75Q40.71875 28.21875 40.875 28.9375Q40.96875 29.390625 40.96875 30.5625L40.96875 32.90625Q40.96875 35.359375 41.078125 36.015625Q41.1875 36.65625 41.53125 37.25L39.6875 37.25Q39.421875 36.703125 39.34375 35.96875ZM39.1875 32.046875Q38.234375 32.4375 36.3125 32.703125Q35.234375 32.859375 34.78125 33.0625Q34.34375 33.25 34.09375 33.625Q33.84375 34.0 33.84375 34.46875Q33.84375 35.171875 34.375 35.640625Q34.90625 36.109375 35.9375 36.109375Q36.953125 36.109375 37.734375 35.671875Q38.53125 35.21875 38.90625 34.453125Q39.1875 33.84375 39.1875 32.6875L39.1875 32.046875ZM43.53125 37.25L43.53125 22.9375L45.28125 22.9375L45.28125 37.25L43.53125 37.25ZM47.984375 37.25L47.984375 28.25L46.4375 28.25L46.4375 26.875L47.984375 26.875L47.984375 25.78125Q47.984375 24.734375 48.171875 24.21875Q48.421875 23.53125 49.0625 23.109375Q49.703125 22.6875 50.859375 22.6875Q51.609375 22.6875 52.5 22.859375L52.234375 24.390625Q51.6875 24.296875 51.203125 24.296875Q50.40625 24.296875 50.0625 24.640625Q49.734375 24.984375 49.734375 25.921875L49.734375 26.875L51.765625 26.875L51.765625 28.25L49.734375 28.25L49.734375 37.25L47.984375 37.25ZM52.890625 32.953125L52.890625 31.1875L58.28125 31.1875L58.28125 32.953125L52.890625 32.953125ZM60.53125 37.25L60.53125 22.9375L62.28125 22.9375L62.28125 37.25L60.53125 37.25ZM64.578125 24.953125L64.578125 22.9375L66.34375 22.9375L66.34375 24.953125L64.578125 24.953125ZM64.578125 37.25L64.578125 26.875L66.34375 26.875L66.34375 37.25L64.578125 37.25ZM68.984375 37.25L68.984375 28.25L67.4375 28.25L67.4375 26.875L68.984375 26.875L68.984375 25.78125Q68.984375 24.734375 69.171875 24.21875Q69.421875 23.53125 70.0625 23.109375Q70.703125 22.6875 71.859375 22.6875Q72.609375 22.6875 73.5 22.859375L73.234375 24.390625Q72.6875 24.296875 72.203125 24.296875Q71.40625 24.296875 71.0625 24.640625Q70.734375 24.984375 70.734375 25.921875L70.734375 26.875L72.765625 26.875L72.765625 28.25L70.734375 28.25L70.734375 37.25L68.984375 37.25ZM81.671875 33.90625L83.484375 34.140625Q83.0625 35.71875 81.890625 36.609375Q80.734375 37.484375 78.921875 37.484375Q76.65625 37.484375 75.3125 36.09375Q73.984375 34.6875 73.984375 32.15625Q73.984375 29.53125 75.328125 28.09375Q76.671875 26.640625 78.828125 26.640625Q80.90625 26.640625 82.21875 28.0625Q83.546875 29.46875 83.546875 32.046875Q83.546875 32.203125 83.53125 32.515625L75.796875 32.515625Q75.890625 34.21875 76.765625 35.125Q77.640625 36.03125 78.9375 36.03125Q79.90625 36.03125 80.578125 35.53125Q81.265625 35.015625 81.671875 33.90625ZM75.890625 31.0625L81.6875 31.0625Q81.578125 29.765625 81.03125 29.109375Q80.1875 28.09375 78.84375 28.09375Q77.640625 28.09375 76.8125 28.90625Q75.984375 29.703125 75.890625 31.0625ZM86.0625 28.875L86.0625 26.875L88.0625 26.875L88.0625 28.875L86.0625 28.875ZM86.0625 37.25L86.0625 35.25L88.0625 35.25L88.0625 37.25L86.0625 37.25ZM97.15625 32.65625L98.9375 32.5Q99.0625 33.5625 99.515625 34.25Q99.984375 34.9375 100.953125 35.375Q101.9375 35.796875 103.171875 35.796875Q104.25 35.796875 105.078125 35.484375Q105.90625 35.15625 106.3125 34.59375Q106.71875 34.03125 106.71875 33.359375Q106.71875 32.6875 106.328125 32.1875Q105.9375 31.6875 105.046875 31.34375Q104.46875 31.109375 102.484375 30.640625Q100.515625 30.171875 99.734375 29.75Q98.703125 29.21875 98.203125 28.421875Q97.703125 27.625 97.703125 26.640625Q97.703125 25.546875 98.3125 24.609375Q98.921875 23.671875 100.109375 23.1875Q101.296875 22.6875 102.734375 22.6875Q104.328125 22.6875 105.546875 23.203125Q106.765625 23.71875 107.40625 24.71875Q108.0625 25.703125 108.109375 26.96875L106.296875 27.109375Q106.15625 25.75 105.3125 25.0625Q104.46875 24.359375 102.8125 24.359375Q101.09375 24.359375 100.296875 25.0Q99.515625 25.625 99.515625 26.5Q99.515625 27.28125 100.078125 27.78125Q100.625 28.28125 102.9375 28.796875Q105.25 29.3125 106.109375 29.703125Q107.359375 30.28125 107.953125 31.171875Q108.546875 32.046875 108.546875 33.203125Q108.546875 34.34375 107.890625 35.359375Q107.234375 36.375 106.0 36.9375Q104.78125 37.5 103.25 37.5Q101.3125 37.5 100.0 36.9375Q98.6875 36.359375 97.9375 35.21875Q97.1875 34.078125 97.15625 32.65625ZM117.34375 35.96875Q116.359375 36.796875 115.453125 37.140625Q114.546875 37.484375 113.515625 37.484375Q111.8125 37.484375 110.890625 36.65625Q109.96875 35.8125 109.96875 34.515625Q109.96875 33.75 110.3125 33.125Q110.671875 32.5 111.234375 32.125Q111.796875 31.734375 112.5 31.53125Q113.015625 31.40625 114.0625 31.265625Q116.1875 31.015625 117.1875 30.671875Q117.203125 30.3125 117.203125 30.203125Q117.203125 29.140625 116.703125 28.6875Q116.03125 28.09375 114.703125 28.09375Q113.453125 28.09375 112.859375 28.53125Q112.28125 28.96875 112.0 30.078125L110.28125 29.84375Q110.515625 28.734375 111.046875 28.0625Q111.578125 27.375 112.59375 27.015625Q113.609375 26.640625 114.953125 26.640625Q116.28125 26.640625 117.109375 26.953125Q117.9375 27.265625 118.328125 27.75Q118.71875 28.21875 118.875 28.9375Q118.96875 29.390625 118.96875 30.5625L118.96875 32.90625Q118.96875 35.359375 119.078125 36.015625Q119.1875 36.65625 119.53125 37.25L117.6875 37.25Q117.421875 36.703125 117.34375 35.96875ZM117.1875 32.046875Q116.234375 32.4375 114.3125 32.703125Q113.234375 32.859375 112.78125 33.0625Q112.34375 33.25 112.09375 33.625Q111.84375 34.0 111.84375 34.46875Q111.84375 35.171875 112.375 35.640625Q112.90625 36.109375 113.9375 36.109375Q114.953125 36.109375 115.734375 35.671875Q116.53125 35.21875 116.90625 34.453125Q117.1875 33.84375 117.1875 32.6875L117.1875 32.046875ZM121.5625 37.25L121.5625 26.875L123.140625 26.875L123.140625 28.328125Q123.625 27.578125 124.4375 27.109375Q125.25 26.640625 126.28125 26.640625Q127.4375 26.640625 128.17188 27.125Q128.90625 27.59375 129.21875 28.453125Q130.45312 26.640625 132.42188 26.640625Q133.96875 26.640625 134.79688 27.5Q135.625 28.359375 135.625 30.125L135.625 37.25L133.875 37.25L133.875 30.71875Q133.875 29.65625 133.70312 29.203125Q133.53125 28.734375 133.07812 28.453125Q132.64062 28.171875 132.03125 28.171875Q130.9375 28.171875 130.20312 28.90625Q129.48438 29.625 129.48438 31.21875L129.48438 37.25L127.734375 37.25L127.734375 30.515625Q127.734375 29.34375 127.296875 28.765625Q126.875 28.171875 125.890625 28.171875Q125.15625 28.171875 124.515625 28.5625Q123.890625 28.953125 123.609375 29.703125Q123.328125 30.453125 123.328125 31.875L123.328125 37.25L121.5625 37.25ZM137.5625 41.21875L137.5625 26.875L139.17188 26.875L139.17188 28.21875Q139.73438 27.4375 140.4375 27.046875Q141.15625 26.640625 142.17188 26.640625Q143.5 26.640625 144.51562 27.328125Q145.53125 28.015625 146.04688 29.265625Q146.57812 30.5 146.57812 31.984375Q146.57812 33.578125 146.0 34.859375Q145.4375 36.125 144.34375 36.8125Q143.25 37.484375 142.04688 37.484375Q141.17188 37.484375 140.46875 37.109375Q139.78125 36.734375 139.32812 36.171875L139.32812 41.21875L137.5625 41.21875ZM139.15625 32.125Q139.15625 34.125 139.96875 35.078125Q140.78125 36.03125 141.9375 36.03125Q143.10938 36.03125 143.9375 35.046875Q144.78125 34.0625 144.78125 31.96875Q144.78125 30.0 143.95312 29.015625Q143.14062 28.015625 142.01562 28.015625Q140.89062 28.015625 140.01562 29.078125Q139.15625 30.125 139.15625 32.125ZM148.53125 37.25L148.53125 22.9375L150.28125 22.9375L150.28125 37.25L148.53125 37.25ZM159.67188 33.90625L161.48438 34.140625Q161.0625 35.71875 159.89062 36.609375Q158.73438 37.484375 156.92188 37.484375Q154.65625 37.484375 153.3125 36.09375Q151.98438 34.6875 151.98438 32.15625Q151.98438 29.53125 153.32812 28.09375Q154.67188 26.640625 156.82812 26.640625Q158.90625 26.640625 160.21875 28.0625Q161.54688 29.46875 161.54688 32.046875Q161.54688 32.203125 161.53125 32.515625L153.79688 32.515625Q153.89062 34.21875 154.76562 35.125Q155.64062 36.03125 156.9375 36.03125Q157.90625 36.03125 158.57812 35.53125Q159.26562 35.015625 159.67188 33.90625ZM153.89062 31.0625L159.6875 31.0625Q159.57812 29.765625 159.03125 29.109375Q158.1875 28.09375 156.84375 28.09375Q155.64062 28.09375 154.8125 28.90625Q153.98438 29.703125 153.89062 31.0625ZM168.85938 34.15625L170.60938 33.875Q170.75 34.921875 171.42188 35.484375Q172.09375 36.03125 173.29688 36.03125Q174.5 36.03125 175.07812 35.546875Q175.67188 35.046875 175.67188 34.390625Q175.67188 33.796875 175.15625 33.453125Q174.79688 33.21875 173.35938 32.859375Q171.42188 32.359375 170.67188 32.015625Q169.9375 31.65625 169.54688 31.03125Q169.15625 30.390625 169.15625 29.625Q169.15625 28.9375 169.46875 28.34375Q169.79688 27.75 170.34375 27.359375Q170.75 27.0625 171.45312 26.859375Q172.17188 26.640625 172.98438 26.640625Q174.20312 26.640625 175.125 27.0Q176.04688 27.34375 176.48438 27.953125Q176.92188 28.546875 177.09375 29.546875L175.375 29.78125Q175.25 28.984375 174.6875 28.546875Q174.125 28.09375 173.10938 28.09375Q171.89062 28.09375 171.375 28.5Q170.85938 28.890625 170.85938 29.421875Q170.85938 29.765625 171.07812 30.046875Q171.28125 30.328125 171.75 30.515625Q172.01562 30.609375 173.29688 30.953125Q175.17188 31.453125 175.90625 31.78125Q176.64062 32.09375 177.0625 32.703125Q177.48438 33.296875 177.48438 34.203125Q177.48438 35.078125 176.96875 35.859375Q176.45312 36.640625 175.48438 37.0625Q174.51562 37.484375 173.29688 37.484375Q171.28125 37.484375 170.21875 36.640625Q169.15625 35.796875 168.85938 34.15625ZM179.57812 24.953125L179.57812 22.9375L181.34375 22.9375L181.34375 24.953125L179.57812 24.953125ZM179.57812 37.25L179.57812 26.875L181.34375 26.875L181.34375 37.25L179.57812 37.25ZM182.64062 37.25L182.64062 35.828125L189.25 28.25Q188.125 28.296875 187.26562 28.296875L183.03125 28.296875L183.03125 26.875L191.51562 26.875L191.51562 28.046875L185.89062 34.625L184.8125 35.828125Q185.98438 35.734375 187.03125 35.734375L191.82812 35.734375L191.82812 37.25L182.64062 37.25ZM199.67188 33.90625L201.48438 34.140625Q201.0625 35.71875 199.89062 36.609375Q198.73438 37.484375 196.92188 37.484375Q194.65625 37.484375 193.3125 36.09375Q191.98438 34.6875 191.98438 32.15625Q191.98438 29.53125 193.32812 28.09375Q194.67188 26.640625 196.82812 26.640625Q198.90625 26.640625 200.21875 28.0625Q201.54688 29.46875 201.54688 32.046875Q201.54688 32.203125 201.53125 32.515625L193.79688 32.515625Q193.89062 34.21875 194.76562 35.125Q195.64062 36.03125 196.9375 36.03125Q197.90625 36.03125 198.57812 35.53125Q199.26562 35.015625 199.67188 33.90625ZM193.89062 31.0625L199.6875 31.0625Q199.57812 29.765625 199.03125 29.109375Q198.1875 28.09375 196.84375 28.09375Q195.64062 28.09375 194.8125 28.90625Q193.98438 29.703125 193.89062 31.0625ZM212.45312 37.25L208.5 26.875L210.35938 26.875L212.59375 33.09375Q212.95312 34.09375 213.25 35.171875Q213.48438 34.359375 213.90625 33.203125L216.20312 26.875L218.01562 26.875L214.09375 37.25L212.45312 37.25ZM217.85938 34.15625L219.60938 33.875Q219.75 34.921875 220.42188 35.484375Q221.09375 36.03125 222.29688 36.03125Q223.5 36.03125 224.07812 35.546875Q224.67188 35.046875 224.67188 34.390625Q224.67188 33.796875 224.15625 33.453125Q223.79688 33.21875 222.35938 32.859375Q220.42188 32.359375 219.67188 32.015625Q218.9375 31.65625 218.54688 31.03125Q218.15625 30.390625 218.15625 29.625Q218.15625 28.9375 218.46875 28.34375Q218.79688 27.75 219.34375 27.359375Q219.75 27.0625 220.45312 26.859375Q221.17188 26.640625 221.98438 26.640625Q223.20312 26.640625 224.125 27.0Q225.04688 27.34375 225.48438 27.953125Q225.92188 28.546875 226.09375 29.546875L224.375 29.78125Q224.25 28.984375 223.6875 28.546875Q223.125 28.09375 222.10938 28.09375Q220.89062 28.09375 220.375 28.5Q219.85938 28.890625 219.85938 29.421875Q219.85938 29.765625 220.07812 30.046875Q220.28125 30.328125 220.75 30.515625Q221.01562 30.609375 222.29688 30.953125Q224.17188 31.453125 224.90625 31.78125Q225.64062 32.09375 226.0625 32.703125Q226.48438 33.296875 226.48438 34.203125Q226.48438 35.078125 225.96875 35.859375Q225.45312 36.640625 224.48438 37.0625Q223.51562 37.484375 222.29688 37.484375Q220.28125 37.484375 219.21875 36.640625Q218.15625 35.796875 217.85938 34.15625ZM229.0625 37.25L229.0625 35.25L231.0625 35.25L231.0625 37.25L229.0625 37.25ZM244.4375 37.25L244.4375 24.625L239.71875 24.625L239.71875 22.9375L251.0625 22.9375L251.0625 24.625L246.32812 24.625L246.32812 37.25L244.4375 37.25ZM252.57812 24.953125L252.57812 22.9375L254.34375 22.9375L254.34375 24.953125L252.57812 24.953125ZM252.57812 37.25L252.57812 26.875L254.34375 26.875L254.34375 37.25L252.57812 37.25ZM256.5625 37.25L256.5625 26.875L258.14062 26.875L258.14062 28.328125Q258.625 27.578125 259.4375 27.109375Q260.25 26.640625 261.28125 26.640625Q262.4375 26.640625 263.17188 27.125Q263.90625 27.59375 264.21875 28.453125Q265.45312 26.640625 267.42188 26.640625Q268.96875 26.640625 269.79688 27.5Q270.625 28.359375 270.625 30.125L270.625 37.25L268.875 37.25L268.875 30.71875Q268.875 29.65625 268.70312 29.203125Q268.53125 28.734375 268.07812 28.453125Q267.64062 28.171875 267.03125 28.171875Q265.9375 28.171875 265.20312 28.90625Q264.48438 29.625 264.48438 31.21875L264.48438 37.25L262.73438 37.25L262.73438 30.515625Q262.73438 29.34375 262.29688 28.765625Q261.875 28.171875 260.89062 28.171875Q260.15625 28.171875 259.51562 28.5625Q258.89062 28.953125 258.60938 29.703125Q258.32812 30.453125 258.32812 31.875L258.32812 37.25L256.5625 37.25ZM279.67188 33.90625L281.48438 34.140625Q281.0625 35.71875 279.89062 36.609375Q278.73438 37.484375 276.92188 37.484375Q274.65625 37.484375 273.3125 36.09375Q271.98438 34.6875 271.98438 32.15625Q271.98438 29.53125 273.32812 28.09375Q274.67188 26.640625 276.82812 26.640625Q278.90625 26.640625 280.21875 28.0625Q281.54688 29.46875 281.54688 32.046875Q281.54688 32.203125 281.53125 32.515625L273.79688 32.515625Q273.89062 34.21875 274.76562 35.125Q275.64062 36.03125 276.9375 36.03125Q277.90625 36.03125 278.57812 35.53125Q279.26562 35.015625 279.67188 33.90625ZM273.89062 31.0625L279.6875 31.0625Q279.57812 29.765625 279.03125 29.109375Q278.1875 28.09375 276.84375 28.09375Q275.64062 28.09375 274.8125 28.90625Q273.98438 29.703125 273.89062 31.0625Z" fill-rule="nonzero"/></svg>