<?xml version="1.0" encoding="UTF-8" standalone="no"?>
<!-- Created with Inkscape (http://www.inkscape.org/) -->

<svg
   width="27.575409mm"
   height="10.521596mm"
   viewBox="0 0 27.575409 10.521596"
   version="1.1"
   id="svg1"
   xmlns="http://www.w3.org/2000/svg"
   xmlns:svg="http://www.w3.org/2000/svg">
  <defs
     id="defs1" />
  <g
     id="layer1"
     transform="translate(-75.618212,-231.69639)">
    <g
       id="g90"
       transform="translate(11.011653,-23.12447)">
      <path
         style="fill:none;stroke:#000000;stroke-width:0.127149px;stroke-linecap:butt;stroke-linejoin:miter;stroke-opacity:1"
         d="m 64.669833,259.8734 c 0,0 1.076395,-11.06986 2.33219,0 1.255795,11.06986 2.009272,1.27422 2.278371,0.0796 0.269099,-1.19459 1.022576,-10.59202 2.206611,-0.23891 1.184036,10.35308 1.955452,3.18556 2.332191,0.23891 0.376739,-2.94665 1.112276,-9.71599 2.296311,-0.0796 1.184036,9.63634 1.793992,3.34484 2.278371,0.15928"
         id="path89" />
      <path
         style="fill:none;stroke:#000000;stroke-width:0.127149px;stroke-linecap:butt;stroke-linejoin:miter;stroke-opacity:1"
         d="m 78.395072,260.0307 c 0,0 1.076395,-11.06986 2.33219,0 1.255795,11.06986 2.009272,1.27422 2.278371,0.0796 0.269099,-1.19459 1.022576,-10.59202 2.206611,-0.23891 1.184036,10.35308 1.955452,3.18556 2.332191,0.23891 0.376739,-2.94665 1.112276,-9.71599 2.296311,-0.0796 1.184036,9.63634 1.793992,3.34484 2.278371,0.15928"
         id="path90" />
    </g>
  </g>
</svg>
