<?xml version="1.0" encoding="UTF-8" standalone="no"?>
<!-- Created with Inkscape (http://www.inkscape.org/) -->

<svg
   width="39.28997mm"
   height="30.165327mm"
   viewBox="0 0 39.28997 30.165327"
   version="1.1"
   id="svg1"
   xmlns="http://www.w3.org/2000/svg"
   xmlns:svg="http://www.w3.org/2000/svg">
  <defs
     id="defs1" />
  <g
     id="layer1"
     transform="translate(-109.80239,-75.007932)">
    <g
       id="g38"
       transform="translate(-0.6614583)">
      <path
         style="fill:#000000;fill-opacity:1;fill-rule:evenodd;stroke:#000000;stroke-width:0.0408867;stroke-opacity:0.771543"
         id="path33"
         d="m 129.74491,88.79464 a 1.6865767,1.4616998 0 0 1 -1.68178,1.461694 1.6865767,1.4616998 0 0 1 -1.69135,-1.45339 1.6865767,1.4616998 0 0 1 1.67218,-1.469951 1.6865767,1.4616998 0 0 1 1.70084,1.445038" />
      <path
         style="fill:#000000;fill-opacity:1;fill-rule:evenodd;stroke:#000000;stroke-width:0.0408867;stroke-opacity:0.771543"
         id="path34"
         d="m 133.97825,88.79464 a 1.6865767,1.4616998 0 0 1 -1.68179,1.461694 1.6865767,1.4616998 0 0 1 -1.69134,-1.45339 1.6865767,1.4616998 0 0 1 1.67218,-1.469951 1.6865767,1.4616998 0 0 1 1.70084,1.445038" />
      <path
         style="fill:#000000;fill-opacity:1;fill-rule:evenodd;stroke:#000000;stroke-width:0.0408867;stroke-opacity:0.771543"
         id="path35"
         d="m 131.86158,91.837349 a 1.6865767,1.4616998 0 0 1 -1.68179,1.461694 1.6865767,1.4616998 0 0 1 -1.69134,-1.453389 1.6865767,1.4616998 0 0 1 1.67218,-1.469952 1.6865767,1.4616998 0 0 1 1.70084,1.445038" />
    </g>
    <path
       style="fill:none;fill-opacity:1;fill-rule:evenodd;stroke:#000000;stroke-width:0.253066;stroke-opacity:1"
       id="path36"
       d="M 39.7924,156.40311 A 19.51878,5.6942997 0 0 1 20.329069,162.09738 19.51878,5.6942997 0 0 1 0.75515588,156.43546 19.51878,5.6942997 0 0 1 20.107279,150.70901 19.51878,5.6942997 0 0 1 39.79114,156.3384"
       transform="rotate(-47.77777)" />
    <path
       style="fill:none;fill-opacity:1;fill-rule:evenodd;stroke:#000000;stroke-width:0.253066;stroke-opacity:1"
       id="path37"
       d="m 149.49638,89.323936 a 19.51878,5.6942997 0 0 1 -19.46333,5.694277 19.51878,5.6942997 0 0 1 -19.57391,-5.661925 19.51878,5.6942997 0 0 1 19.35212,-5.726444 19.51878,5.6942997 0 0 1 19.68386,5.629389"
       transform="rotate(0.33864607)" />
    <path
       style="fill:none;fill-opacity:1;fill-rule:evenodd;stroke:#000000;stroke-width:0.253066;stroke-opacity:1"
       id="path38"
       d="m 176.1885,-18.098139 a 19.51878,5.6942997 0 0 1 -19.46333,5.694277 19.51878,5.6942997 0 0 1 -19.57391,-5.661925 19.51878,5.6942997 0 0 1 19.35212,-5.726445 19.51878,5.6942997 0 0 1 19.68386,5.62939"
       transform="rotate(41.42597)" />
  </g>
</svg>
