<?xml version="1.0" encoding="UTF-8" standalone="no"?>
<!-- Created with Inkscape (http://www.inkscape.org/) -->

<svg
   width="50.675594mm"
   height="43.763519mm"
   viewBox="0 0 50.675594 43.763519"
   version="1.1"
   id="svg1"
   xmlns="http://www.w3.org/2000/svg"
   xmlns:svg="http://www.w3.org/2000/svg">
  <defs
     id="defs1" />
  <g
     id="layer1"
     transform="translate(-125.63991,-28.981879)">
    <g
       id="g116">
      <rect
         style="fill:#ffffff;fill-opacity:1;stroke:#ffe680;stroke-width:0.188739;stroke-dasharray:none;stroke-opacity:0.449153"
         id="rect116"
         width="50.486862"
         height="43.57478"
         x="125.73428"
         y="29.076248" />
      <g
         id="g38"
         transform="translate(20.715576,-39.439939)">
        <path
           style="fill:#000000;fill-opacity:1;fill-rule:evenodd;stroke:#000000;stroke-width:0.0408867;stroke-opacity:0.771543"
           id="path33"
           d="m 129.74491,88.79464 a 1.6865767,1.4616998 0 0 1 -1.68178,1.461694 1.6865767,1.4616998 0 0 1 -1.69135,-1.45339 1.6865767,1.4616998 0 0 1 1.67218,-1.469951 1.6865767,1.4616998 0 0 1 1.70084,1.445038" />
        <path
           style="fill:#000000;fill-opacity:1;fill-rule:evenodd;stroke:#000000;stroke-width:0.0408867;stroke-opacity:0.771543"
           id="path34"
           d="m 133.97825,88.79464 a 1.6865767,1.4616998 0 0 1 -1.68179,1.461694 1.6865767,1.4616998 0 0 1 -1.69134,-1.45339 1.6865767,1.4616998 0 0 1 1.67218,-1.469951 1.6865767,1.4616998 0 0 1 1.70084,1.445038" />
        <path
           style="fill:#000000;fill-opacity:1;fill-rule:evenodd;stroke:#000000;stroke-width:0.0408867;stroke-opacity:0.771543"
           id="path35"
           d="m 131.86158,91.837349 a 1.6865767,1.4616998 0 0 1 -1.68179,1.461694 1.6865767,1.4616998 0 0 1 -1.69134,-1.453389 1.6865767,1.4616998 0 0 1 1.67218,-1.469952 1.6865767,1.4616998 0 0 1 1.70084,1.445038" />
      </g>
      <path
         style="fill:none;fill-opacity:1;fill-rule:evenodd;stroke:#000000;stroke-width:0.253066;stroke-opacity:1"
         id="path36"
         d="m 83.364944,145.72978 a 19.51878,5.6942997 0 0 1 -19.463331,5.69428 19.51878,5.6942997 0 0 1 -19.573913,-5.66193 19.51878,5.6942997 0 0 1 19.352123,-5.72644 19.51878,5.6942997 0 0 1 19.683861,5.62939"
         transform="rotate(-47.77777)" />
      <ellipse
         style="fill:none;fill-opacity:1;fill-rule:evenodd;stroke:#000000;stroke-width:0.253066;stroke-opacity:1"
         id="path37"
         transform="rotate(0.33864607)"
         cx="151.12115"
         cy="49.758339"
         rx="19.51878"
         ry="5.6942997" />
      <ellipse
         style="fill:none;fill-opacity:1;fill-rule:evenodd;stroke:#000000;stroke-width:0.253066;stroke-opacity:1"
         id="path38"
         transform="rotate(41.42597)"
         cx="146.60295"
         cy="-61.814804"
         rx="19.51878"
         ry="5.6942997" />
      <path
         style="fill:#000000;fill-opacity:1;fill-rule:evenodd;stroke:#000000;stroke-width:0.0171655;stroke-opacity:0.771543"
         id="path40"
         d="m 163.4406,64.237518 a 0.70807499,0.61366498 0 0 1 -0.70606,0.613663 0.70807499,0.61366498 0 0 1 -0.71007,-0.610176 0.70807499,0.61366498 0 0 1 0.70202,-0.617129 0.70807499,0.61366498 0 0 1 0.71407,0.606669" />
      <path
         style="fill:#000000;fill-opacity:1;fill-rule:evenodd;stroke:#000000;stroke-width:0.0171655;stroke-opacity:0.771543"
         id="path41"
         d="m 155.37081,39.234398 a 0.70807499,0.61366498 0 0 1 -0.70606,0.613662 0.70807499,0.61366498 0 0 1 -0.71008,-0.610176 0.70807499,0.61366498 0 0 1 0.70203,-0.617129 0.70807499,0.61366498 0 0 1 0.71406,0.60667" />
      <path
         style="fill:#000000;fill-opacity:1;fill-rule:evenodd;stroke:#000000;stroke-width:0.0171655;stroke-opacity:0.771543"
         id="path42"
         d="m 134.60102,53.521896 a 0.70807499,0.61366498 0 0 1 -0.70606,0.613663 0.70807499,0.61366498 0 0 1 -0.71008,-0.610176 0.70807499,0.61366498 0 0 1 0.70203,-0.617129 0.70807499,0.61366498 0 0 1 0.71406,0.606669" />
      <ellipse
         style="fill:none;fill-opacity:1;fill-rule:evenodd;stroke:#000000;stroke-width:0.253066;stroke-opacity:1"
         id="path90"
         transform="rotate(-47.77777)"
         cx="63.846165"
         cy="145.72978"
         rx="19.51878"
         ry="5.6942997" />
    </g>
  </g>
</svg>
