<?xml version="1.0" encoding="UTF-8" standalone="no"?>
<!-- Created with Inkscape (http://www.inkscape.org/) -->

<svg
   width="50.675606mm"
   height="43.763519mm"
   viewBox="0 0 50.675606 43.763519"
   version="1.1"
   id="svg1"
   xmlns="http://www.w3.org/2000/svg"
   xmlns:svg="http://www.w3.org/2000/svg">
  <defs
     id="defs1" />
  <g
     id="layer1"
     transform="translate(-125.75661,-74.726927)">
    <rect
       style="fill:#ffffff;fill-opacity:1;stroke:#ffe680;stroke-width:0.188739;stroke-dasharray:none;stroke-opacity:0.449153"
       id="rect136"
       width="50.486862"
       height="43.57478"
       x="125.85098"
       y="74.821289" />
    <g
       id="g108"
       transform="translate(4.201075,-11.319563)">
      <circle
         style="font-variation-settings:normal;opacity:1;fill:none;fill-opacity:1;fill-rule:evenodd;stroke:#000000;stroke-width:0.19;stroke-linecap:butt;stroke-linejoin:miter;stroke-miterlimit:4;stroke-dasharray:none;stroke-dashoffset:0;stroke-opacity:1;stop-color:#000000;stop-opacity:1"
         id="path91"
         cx="146.1739"
         cy="107.89282"
         r="10.297398" />
      <g
         id="g83"
         transform="translate(16.438358,18.088635)">
        <path
           style="fill:#000000;fill-opacity:1;fill-rule:evenodd;stroke:#000000;stroke-width:0.0408867;stroke-opacity:0.771543"
           id="path81"
           d="m 129.74491,88.79464 a 1.6865767,1.4616998 0 0 1 -1.68178,1.461694 1.6865767,1.4616998 0 0 1 -1.69135,-1.45339 1.6865767,1.4616998 0 0 1 1.67218,-1.469951 1.6865767,1.4616998 0 0 1 1.70084,1.445038" />
        <path
           style="fill:#000000;fill-opacity:1;fill-rule:evenodd;stroke:#000000;stroke-width:0.0408867;stroke-opacity:0.771543"
           id="path82"
           d="m 133.97825,88.79464 a 1.6865767,1.4616998 0 0 1 -1.68179,1.461694 1.6865767,1.4616998 0 0 1 -1.69134,-1.45339 1.6865767,1.4616998 0 0 1 1.67218,-1.469951 1.6865767,1.4616998 0 0 1 1.70084,1.445038" />
        <path
           style="fill:#000000;fill-opacity:1;fill-rule:evenodd;stroke:#000000;stroke-width:0.0408867;stroke-opacity:0.771543"
           id="path83"
           d="m 131.86158,91.837349 a 1.6865767,1.4616998 0 0 1 -1.68179,1.461694 1.6865767,1.4616998 0 0 1 -1.69134,-1.453389 1.6865767,1.4616998 0 0 1 1.67218,-1.469952 1.6865767,1.4616998 0 0 1 1.70084,1.445038" />
      </g>
      <path
         style="fill:#000000;fill-opacity:1;fill-rule:evenodd;stroke:#000000;stroke-width:0.0171655;stroke-opacity:0.771543"
         id="path87"
         d="m 161.20211,113.12384 a 0.70807499,0.61366498 0 0 1 -0.70606,0.61366 0.70807499,0.61366498 0 0 1 -0.71008,-0.61017 0.70807499,0.61366498 0 0 1 0.70203,-0.61713 0.70807499,0.61366498 0 0 1 0.71406,0.60667" />
      <path
         style="fill:#000000;fill-opacity:1;fill-rule:evenodd;stroke:#000000;stroke-width:0.0171655;stroke-opacity:0.771543"
         id="path88"
         d="m 146.93307,97.598885 a 0.70807499,0.61366498 0 0 1 -0.70607,0.613662 0.70807499,0.61366498 0 0 1 -0.71007,-0.610176 0.70807499,0.61366498 0 0 1 0.70203,-0.617129 0.70807499,0.61366498 0 0 1 0.71406,0.60667" />
      <path
         style="fill:#000000;fill-opacity:1;fill-rule:evenodd;stroke:#000000;stroke-width:0.0171655;stroke-opacity:0.771543"
         id="path89"
         d="m 138.18749,117.2401 a 0.70807499,0.61366498 0 0 1 -0.70606,0.61366 0.70807499,0.61366498 0 0 1 -0.71008,-0.61018 0.70807499,0.61366498 0 0 1 0.70203,-0.61713 0.70807499,0.61366498 0 0 1 0.71407,0.60667" />
      <circle
         style="font-variation-settings:normal;opacity:1;fill:none;fill-opacity:1;fill-rule:evenodd;stroke:#000000;stroke-width:0.19;stroke-linecap:butt;stroke-linejoin:miter;stroke-miterlimit:4;stroke-dasharray:none;stroke-dashoffset:0;stroke-opacity:1;stop-color:#000000;stop-opacity:1"
         id="path92"
         cx="146.1739"
         cy="107.89282"
         r="12.734441" />
      <ellipse
         style="font-variation-settings:normal;opacity:1;fill:none;fill-opacity:1;fill-rule:evenodd;stroke:#000000;stroke-width:0.19;stroke-linecap:butt;stroke-linejoin:miter;stroke-miterlimit:4;stroke-dasharray:none;stroke-dashoffset:0;stroke-opacity:1;image-rendering:auto;stop-color:#000000;stop-opacity:1"
         id="path93"
         cx="146.1739"
         cy="108.12621"
         rx="15.163"
         ry="15.162793" />
      <g
         id="g103"
         transform="translate(-0.53635989,-0.33006763)">
        <path
           style="fill:none;fill-opacity:0.0666667;stroke:#000000;stroke-width:0.195857;stroke-dasharray:none;stroke-opacity:1"
           d="m 162.75723,112.43466 c -0.38024,2.58782 -1.18826,3.00644 -1.18826,3.00644"
           id="path102" />
        <path
           style="fill:none;fill-opacity:0.0666667;stroke:#000000;stroke-width:0.19;stroke-dasharray:none;stroke-opacity:1"
           d="m 163.09466,113.29571 -0.37132,-0.9902 -0.66014,1.07272"
           id="path103" />
      </g>
      <g
         id="g105"
         transform="rotate(-109.21575,147.88149,111.0197)">
        <path
           style="fill:none;fill-opacity:0.0666667;stroke:#000000;stroke-width:0.195857;stroke-dasharray:none;stroke-opacity:1"
           d="m 162.75723,112.43466 c -0.38024,2.58782 -1.18826,3.00644 -1.18826,3.00644"
           id="path104" />
        <path
           style="fill:none;fill-opacity:0.0666667;stroke:#000000;stroke-width:0.19;stroke-dasharray:none;stroke-opacity:1"
           d="m 163.09466,113.29571 -0.37132,-0.9902 -0.66014,1.07272"
           id="path105" />
      </g>
      <g
         id="g107"
         transform="rotate(110.4522,147.98461,107.3788)">
        <path
           style="fill:none;fill-opacity:0.0666667;stroke:#000000;stroke-width:0.195857;stroke-dasharray:none;stroke-opacity:1"
           d="m 162.75723,112.43466 c -0.38024,2.58782 -1.18826,3.00644 -1.18826,3.00644"
           id="path106" />
        <path
           style="fill:none;fill-opacity:0.0666667;stroke:#000000;stroke-width:0.19;stroke-dasharray:none;stroke-opacity:1"
           d="m 163.09466,113.29571 -0.37132,-0.9902 -0.66014,1.07272"
           id="path107" />
      </g>
    </g>
  </g>
</svg>
